<mxfile host="app.diagrams.net" modified="2023-04-26T06:30:46.953Z" agent="Mozilla/5.0 (X11; Ubuntu; Linux x86_64; rv:109.0) Gecko/20100101 Firefox/112.0" etag="JqaVPrFcaIlaI2zGsRPS" version="21.2.1" type="github">
  <diagram name="Page-1" id="Ey9Zp8mXD9M0cl431GWX">
    <mxGraphModel dx="1367" dy="763" grid="1" gridSize="10" guides="1" tooltips="1" connect="1" arrows="1" fold="1" page="1" pageScale="1" pageWidth="850" pageHeight="1100" math="0" shadow="0">
      <root>
        <mxCell id="0" />
        <mxCell id="1" parent="0" />
        <mxCell id="0gGLNNwoWwdXebhI30fq-152" value="" style="curved=1;endArrow=classic;html=1;rounded=0;dashed=1;entryX=0;entryY=0.5;entryDx=0;entryDy=0;strokeWidth=0.5;" edge="1" parent="1" target="0gGLNNwoWwdXebhI30fq-7">
          <mxGeometry width="50" height="50" relative="1" as="geometry">
            <mxPoint x="640" y="96" as="sourcePoint" />
            <mxPoint x="770" y="90" as="targetPoint" />
            <Array as="points">
              <mxPoint x="670" y="66" />
              <mxPoint x="760" y="76" />
            </Array>
          </mxGeometry>
        </mxCell>
        <mxCell id="0gGLNNwoWwdXebhI30fq-1" value="X&lt;sup&gt;0,0&lt;/sup&gt;" style="rounded=1;whiteSpace=wrap;html=1;" vertex="1" parent="1">
          <mxGeometry x="590" y="80" width="50" height="30" as="geometry" />
        </mxCell>
        <mxCell id="0gGLNNwoWwdXebhI30fq-5" value="" style="group" vertex="1" connectable="0" parent="1">
          <mxGeometry x="680" y="80" width="55" height="30" as="geometry" />
        </mxCell>
        <mxCell id="0gGLNNwoWwdXebhI30fq-2" value="X&lt;sup&gt;0,1&lt;/sup&gt;" style="rounded=1;whiteSpace=wrap;html=1;" vertex="1" parent="0gGLNNwoWwdXebhI30fq-5">
          <mxGeometry width="50" height="30" as="geometry" />
        </mxCell>
        <mxCell id="0gGLNNwoWwdXebhI30fq-4" value="" style="rounded=1;whiteSpace=wrap;html=1;" vertex="1" parent="0gGLNNwoWwdXebhI30fq-5">
          <mxGeometry x="45" width="10" height="30" as="geometry" />
        </mxCell>
        <mxCell id="0gGLNNwoWwdXebhI30fq-6" value="" style="group" vertex="1" connectable="0" parent="1">
          <mxGeometry x="776" y="80" width="55" height="30" as="geometry" />
        </mxCell>
        <mxCell id="0gGLNNwoWwdXebhI30fq-7" value="X&lt;sup&gt;0,1&lt;/sup&gt;" style="rounded=1;whiteSpace=wrap;html=1;" vertex="1" parent="0gGLNNwoWwdXebhI30fq-6">
          <mxGeometry width="50" height="30" as="geometry" />
        </mxCell>
        <mxCell id="0gGLNNwoWwdXebhI30fq-8" value="" style="rounded=1;whiteSpace=wrap;html=1;" vertex="1" parent="0gGLNNwoWwdXebhI30fq-6">
          <mxGeometry x="45" width="10" height="30" as="geometry" />
        </mxCell>
        <mxCell id="0gGLNNwoWwdXebhI30fq-9" value="" style="group" vertex="1" connectable="0" parent="1">
          <mxGeometry x="873" y="80" width="55" height="30" as="geometry" />
        </mxCell>
        <mxCell id="0gGLNNwoWwdXebhI30fq-10" value="X&lt;sup&gt;0,1&lt;/sup&gt;" style="rounded=1;whiteSpace=wrap;html=1;" vertex="1" parent="0gGLNNwoWwdXebhI30fq-9">
          <mxGeometry width="50" height="30" as="geometry" />
        </mxCell>
        <mxCell id="0gGLNNwoWwdXebhI30fq-11" value="" style="rounded=1;whiteSpace=wrap;html=1;" vertex="1" parent="0gGLNNwoWwdXebhI30fq-9">
          <mxGeometry x="45" width="10" height="30" as="geometry" />
        </mxCell>
        <mxCell id="0gGLNNwoWwdXebhI30fq-15" value="" style="rounded=1;whiteSpace=wrap;html=1;fillColor=#dae8fc;strokeColor=#6c8ebf;fontFamily=Times New Roman;sketch=0;labelBackgroundColor=#ffffff;fontStyle=1" vertex="1" parent="1">
          <mxGeometry x="339.22" y="562" width="30" height="60" as="geometry" />
        </mxCell>
        <mxCell id="0gGLNNwoWwdXebhI30fq-16" value="" style="rounded=1;whiteSpace=wrap;html=1;fillColor=#dae8fc;strokeColor=#6c8ebf;fontFamily=Times New Roman;sketch=0;labelBackgroundColor=#ffffff;fontStyle=1" vertex="1" parent="1">
          <mxGeometry x="409.22" y="562" width="30" height="60" as="geometry" />
        </mxCell>
        <mxCell id="0gGLNNwoWwdXebhI30fq-17" value="" style="triangle;whiteSpace=wrap;html=1;fillColor=#f8cecc;strokeColor=#b85450;fontFamily=Times New Roman;sketch=0;labelBackgroundColor=#ffffff;fontStyle=1" vertex="1" parent="1">
          <mxGeometry x="381.22" y="577" width="20" height="30" as="geometry" />
        </mxCell>
        <mxCell id="0gGLNNwoWwdXebhI30fq-18" value="" style="triangle;whiteSpace=wrap;html=1;fillColor=#f8cecc;strokeColor=#b85450;fontFamily=Times New Roman;sketch=0;labelBackgroundColor=#ffffff;fontStyle=1" vertex="1" parent="1">
          <mxGeometry x="439.22" y="632" width="20" height="30" as="geometry" />
        </mxCell>
        <mxCell id="0gGLNNwoWwdXebhI30fq-19" value="" style="rounded=1;whiteSpace=wrap;html=1;fillColor=#dae8fc;strokeColor=#6c8ebf;fontFamily=Times New Roman;sketch=0;labelBackgroundColor=#ffffff;fontStyle=1" vertex="1" parent="1">
          <mxGeometry x="469.22" y="672" width="30" height="60" as="geometry" />
        </mxCell>
        <mxCell id="0gGLNNwoWwdXebhI30fq-20" value="" style="triangle;whiteSpace=wrap;html=1;fillColor=#f8cecc;strokeColor=#b85450;fontFamily=Times New Roman;sketch=0;labelBackgroundColor=#ffffff;fontStyle=1" vertex="1" parent="1">
          <mxGeometry x="499.22" y="742" width="20" height="30" as="geometry" />
        </mxCell>
        <mxCell id="0gGLNNwoWwdXebhI30fq-21" value="" style="rounded=1;whiteSpace=wrap;html=1;fillColor=#dae8fc;strokeColor=#6c8ebf;fontFamily=Times New Roman;sketch=0;labelBackgroundColor=#ffffff;fontStyle=1" vertex="1" parent="1">
          <mxGeometry x="529.22" y="782" width="30" height="60" as="geometry" />
        </mxCell>
        <mxCell id="0gGLNNwoWwdXebhI30fq-22" value="" style="triangle;whiteSpace=wrap;html=1;fillColor=#f8cecc;strokeColor=#b85450;fontFamily=Times New Roman;sketch=0;labelBackgroundColor=#ffffff;fontStyle=1" vertex="1" parent="1">
          <mxGeometry x="559.22" y="852" width="20" height="30" as="geometry" />
        </mxCell>
        <mxCell id="0gGLNNwoWwdXebhI30fq-23" value="" style="rounded=1;whiteSpace=wrap;html=1;fillColor=#dae8fc;strokeColor=#6c8ebf;fontFamily=Times New Roman;sketch=0;labelBackgroundColor=#ffffff;fontStyle=1" vertex="1" parent="1">
          <mxGeometry x="589.22" y="892" width="30" height="60" as="geometry" />
        </mxCell>
        <mxCell id="0gGLNNwoWwdXebhI30fq-24" value="" style="triangle;whiteSpace=wrap;html=1;fillColor=#f8cecc;strokeColor=#b85450;fontFamily=Times New Roman;sketch=0;labelBackgroundColor=#ffffff;fontStyle=1" vertex="1" parent="1">
          <mxGeometry x="619.22" y="962" width="20" height="30" as="geometry" />
        </mxCell>
        <mxCell id="0gGLNNwoWwdXebhI30fq-25" value="" style="rounded=1;whiteSpace=wrap;html=1;fillColor=#f8cecc;strokeColor=#b85450;fontFamily=Times New Roman;sketch=0;labelBackgroundColor=#ffffff;fontStyle=1" vertex="1" parent="1">
          <mxGeometry x="659.22" y="1002" width="140" height="30" as="geometry" />
        </mxCell>
        <mxCell id="0gGLNNwoWwdXebhI30fq-26" value="" style="triangle;whiteSpace=wrap;html=1;rotation=-90;fillColor=#d5e8d4;strokeColor=#82b366;fontFamily=Times New Roman;sketch=0;labelBackgroundColor=#ffffff;fontStyle=1" vertex="1" parent="1">
          <mxGeometry x="820.22" y="962" width="20" height="30" as="geometry" />
        </mxCell>
        <mxCell id="0gGLNNwoWwdXebhI30fq-27" value="" style="rounded=1;whiteSpace=wrap;html=1;fillColor=#e1d5e7;strokeColor=#9673a6;fontFamily=Times New Roman;sketch=0;labelBackgroundColor=#ffffff;fontStyle=1" vertex="1" parent="1">
          <mxGeometry x="850.22" y="892" width="10" height="60" as="geometry" />
        </mxCell>
        <mxCell id="0gGLNNwoWwdXebhI30fq-28" value="" style="rounded=1;whiteSpace=wrap;html=1;fillColor=#d5e8d4;strokeColor=#82b366;fontFamily=Times New Roman;sketch=0;labelBackgroundColor=#ffffff;fontStyle=1" vertex="1" parent="1">
          <mxGeometry x="860.22" y="892" width="30" height="60" as="geometry" />
        </mxCell>
        <mxCell id="0gGLNNwoWwdXebhI30fq-29" value="" style="triangle;whiteSpace=wrap;html=1;rotation=-90;fillColor=#d5e8d4;strokeColor=#82b366;fontFamily=Times New Roman;sketch=0;labelBackgroundColor=#ffffff;fontStyle=1" vertex="1" parent="1">
          <mxGeometry x="900.22" y="852" width="20" height="30" as="geometry" />
        </mxCell>
        <mxCell id="0gGLNNwoWwdXebhI30fq-30" value="" style="rounded=1;whiteSpace=wrap;html=1;fillColor=#e1d5e7;strokeColor=#9673a6;fontFamily=Times New Roman;sketch=0;labelBackgroundColor=#ffffff;fontStyle=1" vertex="1" parent="1">
          <mxGeometry x="940.22" y="782" width="10" height="60" as="geometry" />
        </mxCell>
        <mxCell id="0gGLNNwoWwdXebhI30fq-31" value="" style="rounded=1;whiteSpace=wrap;html=1;fillColor=#d5e8d4;strokeColor=#82b366;fontFamily=Times New Roman;sketch=0;labelBackgroundColor=#ffffff;fontStyle=1" vertex="1" parent="1">
          <mxGeometry x="950.22" y="782" width="30" height="60" as="geometry" />
        </mxCell>
        <mxCell id="0gGLNNwoWwdXebhI30fq-32" value="" style="triangle;whiteSpace=wrap;html=1;rotation=-90;fillColor=#d5e8d4;strokeColor=#82b366;fontFamily=Times New Roman;sketch=0;labelBackgroundColor=#ffffff;fontStyle=1" vertex="1" parent="1">
          <mxGeometry x="990.22" y="742" width="20" height="30" as="geometry" />
        </mxCell>
        <mxCell id="0gGLNNwoWwdXebhI30fq-33" value="" style="rounded=1;whiteSpace=wrap;html=1;fillColor=#e1d5e7;strokeColor=#9673a6;fontFamily=Times New Roman;sketch=0;labelBackgroundColor=#ffffff;fontStyle=1" vertex="1" parent="1">
          <mxGeometry x="1030.22" y="672" width="10" height="60" as="geometry" />
        </mxCell>
        <mxCell id="0gGLNNwoWwdXebhI30fq-34" value="" style="rounded=1;whiteSpace=wrap;html=1;fillColor=#d5e8d4;strokeColor=#82b366;fontFamily=Times New Roman;sketch=0;labelBackgroundColor=#ffffff;fontStyle=1" vertex="1" parent="1">
          <mxGeometry x="1040.22" y="672" width="30" height="60" as="geometry" />
        </mxCell>
        <mxCell id="0gGLNNwoWwdXebhI30fq-35" value="" style="triangle;whiteSpace=wrap;html=1;rotation=-90;fillColor=#d5e8d4;strokeColor=#82b366;fontFamily=Times New Roman;sketch=0;labelBackgroundColor=#ffffff;fontStyle=1" vertex="1" parent="1">
          <mxGeometry x="1080.22" y="632" width="20" height="30" as="geometry" />
        </mxCell>
        <mxCell id="0gGLNNwoWwdXebhI30fq-36" value="" style="rounded=1;whiteSpace=wrap;html=1;fillColor=#d5e8d4;strokeColor=#82b366;fontFamily=Times New Roman;sketch=0;labelBackgroundColor=#ffffff;fontStyle=1" vertex="1" parent="1">
          <mxGeometry x="1120.22" y="562" width="30" height="60" as="geometry" />
        </mxCell>
        <mxCell id="0gGLNNwoWwdXebhI30fq-37" value="" style="triangle;whiteSpace=wrap;html=1;rotation=-90;fillColor=#d5e8d4;strokeColor=#82b366;fontFamily=Times New Roman;sketch=0;labelBackgroundColor=#ffffff;fontStyle=1" vertex="1" parent="1">
          <mxGeometry x="1160.22" y="577" width="20" height="30" as="geometry" />
        </mxCell>
        <mxCell id="0gGLNNwoWwdXebhI30fq-38" value="" style="rounded=1;whiteSpace=wrap;html=1;fillColor=#d5e8d4;strokeColor=#82b366;fontFamily=Times New Roman;sketch=0;labelBackgroundColor=#ffffff;fontStyle=1" vertex="1" parent="1">
          <mxGeometry x="1190.22" y="562" width="30" height="60" as="geometry" />
        </mxCell>
        <mxCell id="0gGLNNwoWwdXebhI30fq-39" value="" style="endArrow=classic;html=1;strokeWidth=1;fontFamily=Times New Roman;sketch=0;labelBackgroundColor=#ffffff;fontStyle=1" edge="1" parent="1">
          <mxGeometry width="50" height="50" relative="1" as="geometry">
            <mxPoint x="499.22" y="701.5" as="sourcePoint" />
            <mxPoint x="1029.22" y="702" as="targetPoint" />
          </mxGeometry>
        </mxCell>
        <mxCell id="0gGLNNwoWwdXebhI30fq-40" value="" style="endArrow=classic;html=1;strokeWidth=1;fontFamily=Times New Roman;sketch=0;labelBackgroundColor=#ffffff;fontStyle=1;entryX=0;entryY=0.5;entryDx=0;entryDy=0;" edge="1" parent="1" target="0gGLNNwoWwdXebhI30fq-96">
          <mxGeometry width="50" height="50" relative="1" as="geometry">
            <mxPoint x="439.22" y="591.5" as="sourcePoint" />
            <mxPoint x="1119.22" y="592" as="targetPoint" />
          </mxGeometry>
        </mxCell>
        <mxCell id="0gGLNNwoWwdXebhI30fq-41" value="" style="endArrow=classic;html=1;strokeWidth=1;entryX=0;entryY=0.5;entryDx=0;entryDy=0;fontFamily=Times New Roman;sketch=0;labelBackgroundColor=#ffffff;fontStyle=1" edge="1" parent="1" target="0gGLNNwoWwdXebhI30fq-30">
          <mxGeometry width="50" height="50" relative="1" as="geometry">
            <mxPoint x="559.22" y="811.5" as="sourcePoint" />
            <mxPoint x="1089.22" y="812" as="targetPoint" />
          </mxGeometry>
        </mxCell>
        <mxCell id="0gGLNNwoWwdXebhI30fq-42" value="" style="endArrow=classic;html=1;strokeWidth=1;fontFamily=Times New Roman;sketch=0;labelBackgroundColor=#ffffff;fontStyle=1" edge="1" parent="1">
          <mxGeometry width="50" height="50" relative="1" as="geometry">
            <mxPoint x="619.22" y="921.5" as="sourcePoint" />
            <mxPoint x="849.22" y="922" as="targetPoint" />
          </mxGeometry>
        </mxCell>
        <mxCell id="0gGLNNwoWwdXebhI30fq-43" value="" style="shape=cube;whiteSpace=wrap;html=1;boundedLbl=1;backgroundOutline=1;darkOpacity=0.05;darkOpacity2=0.1;strokeColor=#6c8ebf;gradientColor=#7ea6e0;fontFamily=Times New Roman;sketch=0;labelBackgroundColor=#ffffff;fontStyle=1" vertex="1" parent="1">
          <mxGeometry x="639.22" y="717" width="30" height="80" as="geometry" />
        </mxCell>
        <mxCell id="0gGLNNwoWwdXebhI30fq-44" value="" style="shape=cube;whiteSpace=wrap;html=1;boundedLbl=1;backgroundOutline=1;darkOpacity=0.05;darkOpacity2=0.1;gradientColor=#7ea6e0;fillColor=#dae8fc;strokeColor=#6c8ebf;fontFamily=Times New Roman;sketch=0;labelBackgroundColor=#ffffff;fontStyle=1" vertex="1" parent="1">
          <mxGeometry x="669.22" y="717" width="30" height="80" as="geometry" />
        </mxCell>
        <mxCell id="0gGLNNwoWwdXebhI30fq-45" value="" style="shape=cube;whiteSpace=wrap;html=1;boundedLbl=1;backgroundOutline=1;darkOpacity=0.05;darkOpacity2=0.1;gradientColor=#7ea6e0;fillColor=#dae8fc;strokeColor=#6c8ebf;fontFamily=Times New Roman;sketch=0;labelBackgroundColor=#ffffff;fontStyle=1" vertex="1" parent="1">
          <mxGeometry x="699.22" y="717" width="30" height="80" as="geometry" />
        </mxCell>
        <mxCell id="0gGLNNwoWwdXebhI30fq-46" value="" style="shape=cube;whiteSpace=wrap;html=1;boundedLbl=1;backgroundOutline=1;darkOpacity=0.05;darkOpacity2=0.1;fillColor=#b1ddf0;strokeColor=#10739e;fontFamily=Times New Roman;sketch=0;labelBackgroundColor=#ffffff;fontStyle=1" vertex="1" parent="1">
          <mxGeometry x="790.22" y="722" width="30" height="80" as="geometry" />
        </mxCell>
        <mxCell id="0gGLNNwoWwdXebhI30fq-47" value="" style="shape=cube;whiteSpace=wrap;html=1;boundedLbl=1;backgroundOutline=1;darkOpacity=0.05;darkOpacity2=0.1;fillColor=#b1ddf0;strokeColor=#10739e;fontFamily=Times New Roman;sketch=0;labelBackgroundColor=#ffffff;fontStyle=1" vertex="1" parent="1">
          <mxGeometry x="783.22" y="722" width="30" height="80" as="geometry" />
        </mxCell>
        <mxCell id="0gGLNNwoWwdXebhI30fq-48" value="" style="shape=cube;whiteSpace=wrap;html=1;boundedLbl=1;backgroundOutline=1;darkOpacity=0.05;darkOpacity2=0.1;fillColor=#b1ddf0;strokeColor=#10739e;fontFamily=Times New Roman;sketch=0;labelBackgroundColor=#ffffff;fontStyle=1" vertex="1" parent="1">
          <mxGeometry x="773.22" y="722" width="30" height="80" as="geometry" />
        </mxCell>
        <mxCell id="0gGLNNwoWwdXebhI30fq-49" value="" style="endArrow=classic;html=1;dashed=1;strokeColor=#080808;strokeWidth=1;entryX=0;entryY=0;entryDx=0;entryDy=60;entryPerimeter=0;fontFamily=Times New Roman;sketch=0;labelBackgroundColor=#ffffff;fontStyle=1" edge="1" parent="1" target="0gGLNNwoWwdXebhI30fq-48">
          <mxGeometry width="50" height="50" relative="1" as="geometry">
            <mxPoint x="729.22" y="782" as="sourcePoint" />
            <mxPoint x="779.22" y="732" as="targetPoint" />
          </mxGeometry>
        </mxCell>
        <mxCell id="0gGLNNwoWwdXebhI30fq-50" value="" style="endArrow=classic;html=1;dashed=1;strokeColor=#080808;strokeWidth=1;entryX=0;entryY=0.513;entryDx=0;entryDy=0;entryPerimeter=0;fontFamily=Times New Roman;sketch=0;labelBackgroundColor=#ffffff;fontStyle=1" edge="1" parent="1" target="0gGLNNwoWwdXebhI30fq-48">
          <mxGeometry width="50" height="50" relative="1" as="geometry">
            <mxPoint x="699.22" y="761.5" as="sourcePoint" />
            <mxPoint x="743.22" y="761.5" as="targetPoint" />
          </mxGeometry>
        </mxCell>
        <mxCell id="0gGLNNwoWwdXebhI30fq-51" value="" style="endArrow=classic;html=1;dashed=1;strokeColor=#080808;strokeWidth=1;entryX=0.167;entryY=0.269;entryDx=0;entryDy=0;entryPerimeter=0;fontFamily=Times New Roman;sketch=0;labelBackgroundColor=#ffffff;fontStyle=1" edge="1" parent="1" target="0gGLNNwoWwdXebhI30fq-48">
          <mxGeometry width="50" height="50" relative="1" as="geometry">
            <mxPoint x="669.22" y="742" as="sourcePoint" />
            <mxPoint x="743.22" y="743.54" as="targetPoint" />
          </mxGeometry>
        </mxCell>
        <mxCell id="0gGLNNwoWwdXebhI30fq-52" value="" style="edgeStyle=segmentEdgeStyle;endArrow=classic;html=1;dashed=1;strokeColor=#080808;strokeWidth=1;entryX=0;entryY=0;entryDx=25;entryDy=80;entryPerimeter=0;fontFamily=Times New Roman;sketch=0;labelBackgroundColor=#ffffff;fontStyle=1" edge="1" parent="1" target="0gGLNNwoWwdXebhI30fq-45">
          <mxGeometry width="50" height="50" relative="1" as="geometry">
            <mxPoint x="619.22" y="907" as="sourcePoint" />
            <mxPoint x="734.22" y="837" as="targetPoint" />
            <Array as="points">
              <mxPoint x="724.22" y="907" />
            </Array>
          </mxGeometry>
        </mxCell>
        <mxCell id="0gGLNNwoWwdXebhI30fq-53" value="" style="edgeStyle=segmentEdgeStyle;endArrow=classic;html=1;dashed=1;strokeColor=#080808;strokeWidth=1;fontFamily=Times New Roman;sketch=0;labelBackgroundColor=#ffffff;fontStyle=1" edge="1" parent="1" target="0gGLNNwoWwdXebhI30fq-44">
          <mxGeometry width="50" height="50" relative="1" as="geometry">
            <mxPoint x="558.22" y="825" as="sourcePoint" />
            <mxPoint x="694.22" y="800" as="targetPoint" />
            <Array as="points">
              <mxPoint x="693.22" y="825" />
              <mxPoint x="693.22" y="805" />
              <mxPoint x="694.22" y="805" />
            </Array>
          </mxGeometry>
        </mxCell>
        <mxCell id="0gGLNNwoWwdXebhI30fq-54" value="" style="edgeStyle=segmentEdgeStyle;endArrow=classic;html=1;dashed=1;strokeColor=#080808;strokeWidth=1;fontFamily=Times New Roman;sketch=0;labelBackgroundColor=#ffffff;fontStyle=1" edge="1" parent="1">
          <mxGeometry width="50" height="50" relative="1" as="geometry">
            <mxPoint x="499.22" y="717" as="sourcePoint" />
            <mxPoint x="658.22" y="792" as="targetPoint" />
            <Array as="points">
              <mxPoint x="618.22" y="717" />
              <mxPoint x="618.22" y="802" />
              <mxPoint x="658.22" y="802" />
            </Array>
          </mxGeometry>
        </mxCell>
        <mxCell id="0gGLNNwoWwdXebhI30fq-55" value="" style="edgeStyle=segmentEdgeStyle;endArrow=classic;html=1;dashed=1;strokeColor=#080808;strokeWidth=1;entryX=0;entryY=0.25;entryDx=0;entryDy=0;fontFamily=Times New Roman;sketch=0;labelBackgroundColor=#ffffff;fontStyle=1" edge="1" parent="1" target="0gGLNNwoWwdXebhI30fq-33">
          <mxGeometry width="50" height="50" relative="1" as="geometry">
            <mxPoint x="820.22" y="752" as="sourcePoint" />
            <mxPoint x="878.22" y="652" as="targetPoint" />
            <Array as="points">
              <mxPoint x="820.22" y="752" />
              <mxPoint x="838.22" y="752" />
              <mxPoint x="838.22" y="687" />
            </Array>
          </mxGeometry>
        </mxCell>
        <mxCell id="0gGLNNwoWwdXebhI30fq-56" value="" style="edgeStyle=segmentEdgeStyle;endArrow=classic;html=1;dashed=1;strokeColor=#080808;strokeWidth=1;exitX=0.933;exitY=0.5;exitDx=0;exitDy=0;exitPerimeter=0;fontFamily=Times New Roman;sketch=0;labelBackgroundColor=#ffffff;fontStyle=1" edge="1" parent="1" source="0gGLNNwoWwdXebhI30fq-46">
          <mxGeometry width="50" height="50" relative="1" as="geometry">
            <mxPoint x="828.22" y="912" as="sourcePoint" />
            <mxPoint x="938.22" y="802" as="targetPoint" />
            <Array as="points">
              <mxPoint x="838.22" y="762" />
              <mxPoint x="838.22" y="802" />
            </Array>
          </mxGeometry>
        </mxCell>
        <mxCell id="0gGLNNwoWwdXebhI30fq-57" value="" style="edgeStyle=segmentEdgeStyle;endArrow=classic;html=1;dashed=1;strokeColor=#080808;strokeWidth=1;entryX=0.1;entryY=0.15;entryDx=0;entryDy=0;entryPerimeter=0;fontFamily=Times New Roman;sketch=0;labelBackgroundColor=#ffffff;fontStyle=1" edge="1" parent="1" target="0gGLNNwoWwdXebhI30fq-27">
          <mxGeometry width="50" height="50" relative="1" as="geometry">
            <mxPoint x="820.22" y="787" as="sourcePoint" />
            <mxPoint x="838.22" y="902" as="targetPoint" />
            <Array as="points">
              <mxPoint x="828.22" y="787" />
              <mxPoint x="828.22" y="902" />
            </Array>
          </mxGeometry>
        </mxCell>
        <mxCell id="0gGLNNwoWwdXebhI30fq-58" value="" style="shape=image;verticalLabelPosition=bottom;labelBackgroundColor=#ffffff;verticalAlign=top;aspect=fixed;imageAspect=0;image=data:image/jpeg,/9j/4AAQSkZJRgABAQAAAQABAAD/2wBDAAgGBgcGBQgHBwcJCQgKDBQNDAsLDBkSEw8UHRofHh0aHBwgJC4nICIsIxwcKDcpLDAxNDQ0Hyc5PTgyPC4zNDL/2wBDAQkJCQwLDBgNDRgyIRwhMjIyMjIyMjIyMjIyMjIyMjIyMjIyMjIyMjIyMjIyMjIyMjIyMjIyMjIyMjIyMjIyMjL/wAARCAITAi4DASIAAhEBAxEB/8QAHwAAAQUBAQEBAQEAAAAAAAAAAAECAwQFBgcICQoL/8QAtRAAAgEDAwIEAwUFBAQAAAF9AQIDAAQRBRIhMUEGE1FhByJxFDKBkaEII0KxwRVS0fAkM2JyggkKFhcYGRolJicoKSo0NTY3ODk6Q0RFRkdISUpTVFVWV1hZWmNkZWZnaGlqc3R1dnd4eXqDhIWGh4iJipKTlJWWl5iZmqKjpKWmp6ipqrKztLW2t7i5usLDxMXGx8jJytLT1NXW19jZ2uHi4+Tl5ufo6erx8vP09fb3+Pn6/8QAHwEAAwEBAQEBAQEBAQAAAAAAAAECAwQFBgcICQoL/8QAtREAAgECBAQDBAcFBAQAAQJ3AAECAxEEBSExBhJBUQdhcRMiMoEIFEKRobHBCSMzUvAVYnLRChYkNOEl8RcYGRomJygpKjU2Nzg5OkNERUZHSElKU1RVVldYWVpjZGVmZ2hpanN0dXZ3eHl6goOEhYaHiImKkpOUlZaXmJmaoqOkpaanqKmqsrO0tba3uLm6wsPExcbHyMnK0tPU1dbX2Nna4uPk5ebn6Onq8vP09fb3+Pn6/9oADAMBAAIRAxEAPwD5/ooooAKKKKACiiigAooooAKKKKACiiigAoorWsLDZiaYfN1VT29z70m7FRi5OyCwsNmJph838Knt7n3rSCL6D8qBSisG7nVGKSshQo/urTwq/wB0flTQDmpVB9KTLSHIi5+6Pyqby067V/KmqP8AOamAqbloYEX+6v5UoiUnlV/IVIAO9OCg9c0rspIj8peyr+VHlL/cX8qmwKMUrlEYiTP3V/KneWn9xfyp+KKm47DREv8AcX8qURqT9xfyp4x3pwFF2Owzyk/uL+VBhX+4v5VLg+tG2kNJEaxKD9xfyp3lIf4V/KpVWnbTn/69FwsRCBf7i/lS+Qh42r+VThaXZ60XCyK32ZOyr+VHkJjlFH4VYIx3oAp3YtCAQIOiL+VNMKf3F/KrBX0NN20XY7FcQoT9xfypfJj/ALi/kKnKntTcHPNFx2IxEn9xfypyxIf4F/KpNvHH86VR6ikFiMQp/cX8hQYU7Iv5VKRigqKLhYj8lMcqv5UoijH8C/lTwO1KFouKxEY0/uL/AN80CJP7i/kKm2460u3P/wCuhsLIrmJf7i/kKaYE/uL+VWStJii4WKhhUfwL+QpREmPur+VWCtJjB60XFYreSndF/KkMKf3F/KrJXNIAadxNFbyU7IPyFZ+p6RHfRfLhJl+42P0PtWzs96QoKpSa1IlBNWZ5vNDJBK0UqlXU4INMruNW0ePUYcrhJ1HyP/Q+38q4qaGS3maKVCkinBU11QmpI4KtJwfkMoooqzIKKKKACiiigAooooAKKKKACiiigAooooAKKKKACiiigAooooAKKKKACiitewsNmJph8/VVPb3PvSbsVGLk7ISwsNmJph8/VVPb3PvWjTsUmOawbudUYpKyAYpwFAx3B/KjPpSKHhe/NSr6VEMetSKaTKROpxUg556VCnJ5NS5qSkPXPrUig1EvWp0XPU0mWhdtLj1FOAxS7RnNIoYFzShRT9tGKRVhuPainhc0u0CkAgHFPCZpB6VIoJ6UDG7CDxUgUnrShSaeBSEMK4oC59qko5NACYxxim4BNBHbj8abgg8UXCwhwD0pMeooYkUmSfai47DsYpAAT3pgcZ608OOmaQxSKTGKCwFLwaY7CgZpdmTSqfenqB/+qgBAuKNvtTiMUmDmgA2etG2nYNOxkdKQWIivrTcD3qfyyRTSmD0oFYhKADNG2pSOKRU9qYWIiueoo2e1WCuKBjHSgGiuU4pu2rOM0FKdxWKu0e1ZesaNHqcOVwlwg+R/6H2/lW4UBqMx01Jp3RMoKSszy+aGS3meGZCkiHBU1HXe6xo0epRZGEuEHyP/AEPt/KuGmhkt5nhmQpIhwVNdkJqSPMq0nTfkR0UUVZkFFFFABRRRQAUUUUAFFFFABRRRQAUUUUAFFFFABRRRQAUUVsadp+zE8w+fqq+nufek3YqMXJ2EsNP2YmmHz9VU9vc+9aODT/wpuM9BWDdzqjFJWQYNPHSkAJ604CpKE49KTB7U8ClIx60DGDNPU4PP8qTFKvvQMmVh6GnjmowfwqVRx1qSkPjUlsiraAVXiB6cVbWPHU1LNEKFJpwSngZHrTtp9KVykRkYpNpqXaTS4qblEeKU4x0qTae1NYGgdhqmng46YoVfelwaAHDPelPH/wCqm8j1prMcUgsOMgHrTDMc96jwzGnCIkUFKIGYfWm+aPpS+VzT9gpXHykBlPrUbOzHC5PtVnygegq1bwhY8sOTRcfKUUs5pMHOAam+wMOr5P0rUUADgUuCTzQFjKNlKOhz+FIEZOGGK1mXA4qOSPevv70BYpKvvUigDvTNpjbaakA4607kjtoNNwQafto4PcUikhuTilCZpRnPTipAOaYxgGKGGe1PIPpS7TjI5oJsQbOevFOCEHg/hUoBpP4ueKAECeoo2HFSil2+9ArFfbzRj2qZlxzmmhcjNFwsR7c01k/zipSCPejG4cUXFYqMlY+s6Kmpw5GEuEHyP/Q+38v577Ke4qIjmqjJp3RMoKSszyqeCW2meGZCkiHDKe1R16DrWix6pDkYS4QfI/8AQ+38v58FPBLbTvDMhSRDhlPauynUU0eXWoum/IjooorQxCiiigAooooAKKKKACiiigAooooAKKKKACiitawsdmJph83VVPb3PvSbsVGLkwsLDZiaYfN1VT29z71p5ptPBFYt3OmMUlYM04DNN709TmpKQUufelH1oxg9aRQoHvS4x3zRxml7UDG4J9qMHNOGc9qULikMUVKgBqIHn/69Too78UmNFiIVZUZqOIYHFWFzUM1ihQCKeAaFXJp6ipLGlfSkxjrU23imlc9RSKRFj3padt9qChJ6UDsR/nRuA7VIVwKjPPWmKwu761GTuNK3HSnRjPWkNIeiECnbSacqkdMkUHIpGiQzHPOKmSANgnpTY0LNnFXkjIHNIdiJYAKeFwcZqTyz2PNNdMeooAagcE7ug6VKnzUq4VPmb86Mqp60XCwmBu5NMKNuLZGPpTzhqOAMUXCxWkhDtkio/KZDkcirflg0nlgdM0rhykQ54PX3pPK9eKeYsHI6elT7EGMHORRcVrFcLx1NICwOKndMDIpqrnrVXCw0rgZPApygeuaesXJ549KcUweDTuSR7Ae9BQVIUzzikOBSuOxD0fA6U/GKkGCacU5yKQ7EajNMaPB4qfHNDJkdvyoCxAUBHOajwQeDxUzJjpTCKLhYiYZFQstTlaa6jHQ0xNFYisjW9Fj1OHIwlwg+ST+h9v5fz2yB/kUxl46U4ycXdGc4KSszyqeCW2meGZCkiHDKe1R16BrOix6pDkYS4QfI5/kfb+X8+Dngltp3hmQpIhwyntXdTqKaPJrUXTfkR0UUVoYhRRRQAUUUUAFFFFABRRRQAUUV2PhTwtDd3UU2quYYXGU5x/k0m7FRi5Mw7CxC4mlHzfwqe3v9a0sU6eKKG6ljiYsiuQpPcUzFZSvfU6IpJWQtOA/zimjrTulSULj/ADing81ETmnrwKQyQtmkpM0bsdqRQ/IpVBJ6UwZPTNSquKRQoXFLg4p6qT2pzA7eD+lAEODnAq3EpxVYZ3Veh5HWpZaRMnSp41OP/rU2MY71Oq5qGapCqvvUqL7Uir2z+tSImO9SWkNIpMHtUxjNJtIFIpEBXHWjbUhHNAXFAyMpnvURQ+tWTn60wr3wadxWK7KQKkhAI5/nSvjBGKSI4OKQ0iYCmvwRk0/OBUYyzUmWiZFJwRVpOmO9QpxUyuFNK5aRJtJXpzRtzjeufpxTS5Y0qpzxSuPlBkQrgjApuQT04FS+XxyaeEA96Vw5SLAIpBH3zU+Pb9abtweKLhYRRgUhyT0p2DnJPFLhaB2IirdKgdGB6/pV4gYyM1XkAzTRDRGp45pxBHSgdKME0ySRDnqKft+lMUZHHWnjJpisMZef/rUmKkINM/GkUNINPXrTSD60uBigdhxHvTelAbHWh8EZzQKwhphz70A8U0mgdhSM+tRunFP/AA/SkzxRclorMCKY3SrBG6omXHWmIrsufSsfWdGj1OHIwlwg+R/X2Pt/L+e4VNRMtVGTTujKcFJWZ5bPBJbTPDMhSRDhlNR13utaPHqUWRhLhB8j/wBD7fy/nw00MlvM0MyFJEOCprup1FNHk1qLpvyI6KKK0MQooooAKKKKACiitSxsthEsq/N/Cp7e9JuxUYuTFsbHYBNKvz/wqe3v9a6fUr9JtItLdXAkjB4Xg4+tZHSmnnrWV2zoSSVkIAc55NSDFNHtTulJgh2cUhNITSCkUPFOGaav0p1IoWk3c9KTqeKnjizzikUh0Y4qwqHFCrgVKijHJpDGhaa4qY4A6ioWHOaRQxFJYcGtCIcACq8CnOR/Or0K/wCc1MmaRRIiH3/OrCDsP502NOKlVQKzNkh6inhCfWhQKkWk2VYNpxRj2p4HFIR70h2Izz60w9elSFB9aYygdKBpDSB+P0pMZFSDkc4pCAOlMRXfOeRTQhPQmpu/WloHYgbKjmnQAM2c8UMOf/rVPCAo4qWyoosIFxTlj5yKQHjrUqKT3/SpbNUhUHOMc1IF9qBGR3qRF55qbl2Igu/rUojOOMEVKYwBwKQDAweKVxqIwKc0jLz0qcLxkH9Ka69xTuS0VpG2jufaprqwu9OmVL2Foi6hlz3z71HLHvAyDkEGrGpXkmpXMUjkqscYQA8/rTuTYqlT6fjUDhlGT0+lT5A6VHdS70VBTJZEpGKCMHpSxpj3p23nvTIGr1p5JpR6EU4L6UxDdpxyePwpApBqXOO1IVyOKVykhmDnpTSKTOGx3pxOe9FyrCFaTOKTkHnpRxQIAe1RsD604k56UEZpgRZxQM1JgUlITI2BpucipdoqN/ancmxEy4pjrx3NSdeOKaRTJKrrWNrGkR6lFkYS4UfI/wDQ+38q3WWoWXFXGTTujKcFJWZ5hNDJbzNFKhSRTgg0yu71jSItRhyCEuFHyP8A0Pt/KuHmhkt5milQo6nBBrtp1FNHlVqLpvyGUUUVoYhRRV23ttoEknXsPSk3YaVySytdpEsg+b+FT2rTR3xwnFQQnins5H0rJs6IpJDyxbrSGkByKWkMUClJA/8A10gYAU3OTQMcASeKkVaRVxTuPWkUh2KTHPBoC5+lSonNSXYI4z3/AJ1ajQj6UiKBU6ClcpCqme1O2+1PAGOaUkY6ipY0Qvx/+qmgZPalY81JEvNFy0iWJewxV2ND0zmmwx8ZxzVhV9hWbZqkPQVKijNIi1Mox2qGapAFp+COlCrk8YqQLSYxnPpSFfWpsAc0AZoHYhKCo2HoKsHI7UxlJHai4WIMtnBFKQMU4pQACcZpjsRhR60oUnt+dSbG9OKAu3pnNJhYrsuDjFLHnoTzUrZ74/KosESAipZaRbj6cmplQZBqOIZOTVlGJlwOlS2bJDxHkccGnhdo+YGnkMORUbSkN1GPpSGkPG3rnH60pIPAPNG6MyxqzAKzDLY6VbmsB/baWEc67JCNkm3jn2osJuxXABGGwTSsMLgVLqFldaTqJs7lSehVsY3CkWQOMEYPpQ1YlSUldFVgcHmoNpJqzIMSEVXd9gOKEwYxuASc8VWID/N2pDI5clz8vpipYyD901ojCT1HKuBSsh6jFSiPIzmnZB47UMaIB1owQcmptgzTWQg8UrjsR/Kx5pTgdKDkU35gef5UDDbk5pCADTs80h69aBjSGBznikZfen7c+tNbI9aYhm3vmnAZ4p3UUgOKTAjZSKTFPJ57U1sigTGFcd6awwKVs0jZxTFYgPXig/WnEc0gBpktEZGaiZasEf5xUTLg1SJaKTjBrJ1fSY9Rh3DCTqPkf+h9v5VtyL7Zquwq4yad0Y1IKSszzeWKSCVopVKupwQaZXZ6tpSX0eRhZ1Hyt6+x9q4+WN4ZWjkUq6nBB7V2wmpI8qrTcH5GzeeGtV0OO0uNTsJrdblA8XmKRwen4+3b600j5a1fEXiEazBYwxm7KwLhvtD7sHj7vPArKGXwqqWPoKm7Y0rOw6IHHBpXLf5NNiOMgjkdRTpFO3PakWOQnbTs+tMQgrxQaBoXOTgVOi4GcVHCg61KWxxmpZSFLZ6U5EzzSxrk5NWQBjpUtlpEax1Kq47UtKufT9akoeu4VMhJ7VEufSp1A7UikKBTWNP4HeozyelJlJCKuTV2GLcKjiiLY44rQjTauAMVDZrFDo1x3qdB3pi4HU5qVPaobNUh69afg9sU1RmpAPU0i0KKkXimAD1/WnAf5zSKsOPJ60uMdKTAzzS49KQWEI9aQjilIGeRQQQOKAsN2gioWQbsA1MATTSnzZ6U7jSBV2ilIz3pygHvTWIBxRcLETpxxULRnqBzVrG40/ysc4pFIbbPuj/2hVvDcbR1qnjy23KKuQz7gMVLLTJ1JbIPQUySNRERg4NSB3LfLwO9P8suQaktFfyV8lQwLHHrV2yldrT7DGN0gcSRuDypFHl5Ugc4qxYLHFKTOh2sMAg42n1pxeoSsyK7nv7+5Et/MHlQYH7sL/KolUA9M/jUkqNFM4LBxnIYelRMQOvH1pNkqKSsiOf1qoVBzU8xzwBTNo2EU0TI1PB2gRa5rf77mCAbmUEjJ+oqx46t7az8TrHaRhAIwXUdye9aPgDUbTS7fVJrmQIVw3IPTn0rlLrUH1XVbi+lH+sb5cnoK05kl5nnuM54jySBRnpQUAOTipFwBQ7YqbndYiZc0EcU8jIyKTLAYOaVx2ImCgdKZx/k1OajI56GncVhoAzTGTJqUqCRjikZcGncYxUHcUjDinBSD7fSkZfai4EZGBTQKlxgUwjB7/lQIQYJpGBpcZzz+lJgUCsRkjvTSBSyDJoAyOSKYEDKSaZip2+lMI5/+vQiWiM9aYwGOlSsPrTD1qkS0V2XIqsVxkdqvMKrSLg00zNopyKOtZWo6MuqbZIysc68MTwGFbcg4qpuaKUsOcjGDWik1rE5qsFJWOcuhAXVosDjkCrmmXMFndRyyorhT0NUJFCucdKAR6V1J2OIfcvHLqE8sQ2xu2VHpSyxg2+9W5B5FR96Hztxk4pPe4CRcRingZNMTpjNTRgZoY0SKNq06NQzdaYx5xzVy2jAGSKhmkSSKMAZqTilyAPaoywzxUmg8lR35pUBJ601Rk1Mi85pFJEioO9SgAdxTAB1IpCM1LZVhWPOM5p0KFnoih3HPatCKMIO1S2axiEa7e1TLQFHapAAKhmiQqrUwHpUajPpUigj0pMtIkQYFPABpEz3Ap+4Z6frUlIMDtThgdqVQD6U4qMdqRSE4PWlzx1poHNIx9qQxeOwprHjFPB4puef/r0BYTdximYcnpUgxmpBzQMhGRQACeacy/N0p+AF7Uxjlj4zml8s560+NjgVMQSM1LEVinGGqIxsjZU1dKnHrSDB60gRFFPjAfirIkOcxnNV5FVqqNazfaI1jJxI2M+lI1RrCVlHHBPtTmlO7BOR7Umv+GbrRRaM12ssU45IQjb+tT+JZ7K2trSz0+VZVx8zgHg/jzzQlchVFJ6EE033doI45J5qrNPnG0ZNQyLPBs+0QsocZUlutSjA9KW2hVxE3E5Pepgg25DAnPTHNM3BSOeKlVcjIpiZFJAHBGSufSkWHy1wDU23vinbM80ybEKuQaVnGfT8amCKDyv60rIPTA+tFxld5OlNcVO0a49qjwo+lAyIHBpTyOlObA6D9aTH+c0xBRjPNOC57UuO3FFxWGFe4/lUJB3d6sBD2pCpFK4EJGOmKYRUxO3r0phwT8uKpBYiGeeajY4NTNx0FRtnNMCI9aTn3/Onlcmlx9KBMjA/zmmMOam24NRt1pksYRxTGFS44prD1zQQyu2KhZeeKtMBUTL9apEsquvrVKaPJ/8Ar1pMuarSLz0qkzNo4x2LHNIp7UDpTQcNXaeUSGkbpwaO1Ic4pAIpx61ZiK87umKqKxB6VIWzxTY0WIRulI6j1rSX5R1qrbARxAd6WST3rNm0SVpfQ0LlvWoEy1W4oyBzxUs0SJY1yP8AGrC/KKZGhqdYSeoNRc0SGAlzxmpoodx71IkYXtxVlI8jj+VQ2WogkeABiplXFCoFqQDntUmqQKueopePSkLdulOUD+9SLSHL6YNPAyeDSBc9KkVfSpLsKoPqalCZFNC4708UihQuB1o3FfWjnPTikNIdhdxNJikOc9aORSYwwQeacB7004PfFPAxQFhFBz/9anNwOv6UhGaTA9aAEKs3OQalReMN1pF471MvXpTAdGFBxnmpiAOxpikA5pWz1B/SpCwpOPpTcgnrTVY5IOKd/KkVYYQWPSmBXLbcY9DUpwOQadu+XigYk7TTIFmkLAcAelVYZWstRt7ry/MWJwxUnrzVo/MMUCJuvGPcUJ2YW0NrxH4ng1uzihhsRG4JbeSDtz6cVjIvy8jmkO0HoM0u4cdKJPmd2RCCgrIdhR2FO/h4FNGM9akAOPagpjVJPOf0p55HH8qbtBOM/pSDCnH+NADsjODmgrgZAzRS/j+lBNhpc46frULkkZxU+0H+ID8KjlUg8c0FEBoB55pTnFNySadxjxndT1OTimhO9OwCOOtK4rAfpTGB/Cl+bPP8qQg9zx9KAsNbIGMZqMqdvQ/nTmznjp9KaS2OnFUhEXPOaibrU7KKiKZ7imAzv1pcZ9qRk44ojBI5/lTuIdtI96jK5PP86lwB/wDqphAzxQJkbDFNI+tSHk9aTGf/ANVMlohdQRUTDHvU7jFRMP8AOaaIZXIAqCTrmrD5qF+fSqM2jhAaa3WjNIa7jxyRDxStj1qENinBhQFxDw3FSRcuM1E+DzToXK0MaepoFiEOBnAqNCXPTio4/MlbCjiti0sgoBbrWcnY6Iq5HBAeDV+KH1FTLHgdB+FSBCehrJs3ihFiA7VOqCkAK1KqmouaJCqoqQYHagZPWnipLSAgetKDik98UdeaRokOHJqRFJNRovPWrCjHakUkOC4PWnj2oUZp2D2pMpB1HegAigK2ckU/rU3KsNyc9aU0FSe9KFIpFWG8Z6UuARS55pwoYWGhV9P1p30/nTgoxxTwppDsR4J6UKPm5pzAg0Ae4qkFiQAe9SgAjvUKB88GpgGHXmpY7DjyOlIIz6frRx3FKMseKQWFxj+H9aCc8YoEbA5zTwpI5NICMAYo2YOe1SlT2/U0w8dP50DEOaX58d6QAsc9KeVJHXmgZJHZSy2ktyD8sZweKrhVYZzVzSLaG5vvJu5dsJHv1/CoDEsc0iK25VYhWHcU3smRfWwzgCnBuKCuORzTGYelIdh+7Jxg0hOfrTcHFC+2c0wsJgn60vOeaU8nGcfWgLj1pBYd82O9RyEsOakGcf8A1qY1Fx2IghpQOf8A69LjHIpPmzQNIcfelUDPGKAT3qRQT3oE0MIYdKiI7kEVOVY//qprA96YiAg9aaTzUgUjtTWGe2KaBkbcjpUdS9P/ANVNKAnOaYEXX1poXB61KYuc5oCY75oER85oZcjpzTyDmkKk/wD16ZDISuD0NMYEc81MRj0pp/CmiWQsDULZGassOOKhz2JpksgP1qu+c96tOKgZAT/9aqMzzw5zS5rtLqU6f4O1WfWEjbVNanjlgiMYVlXJzKOOAckDpXUabaW0OueF/D4ggNjeaQ0txE0YLSOysSd2M5JVcc8Yruqv2abfTbzPJjT5oqSe6ueQNz/+umFiD1ru/hXOIPiLFb+VDKjpKpaRA2BtJ49Dx/OsTw5rdrotxrD3cDyC6tJoUCgHYx6ZzWnLezWzMXu12OeaQip7SJ7h8DgVqaj4XmsbXTLqKdLm01CISJKoI2t/EhB5yp4z0NX7S0EMarwSBUVPdNKK5tRLOyEajPJrRSIA8UqIMVIoArnbO1IcqjPNSBfShBUgHPQ1DNYoRUHXNSEDFKAMU4DipNEhirj1p4XPOacEPWnBcdqktIZs460AHOMin4JNOVeaTLSBFGe1TqnPWmotWUXHrSuWkNCinAD1p3/AakUcVNyrEQBPXp9adtA54NTBc9qCtTcqxDtB7YpdtSbD6UoGOB/KgCEIc04RDNT4IHSkBB7GlcZHsweaXbjpUgUnt+tOC0XHYiwD2oGOmKmwB2zSYBNO4WEQehp4DZ4PFOA2ilDcZJpDEJA6nmkChjkUrcgc0oweM0h2FU+tJnnrQE+b1/ClClTz0pDsGOOv6UnJ/iz+FSBc/wD66XaFHei4WGBO9Lz0pwOakJVkAxyKQWIPKzz0+lIqjftHU0/eQ23HXvSCNuuKYrDgoHemvED3oUHJBFO2D/IouFiHy+etDoQuRSsoLcU/bxyKAsRLwOtKQp70rIOgpAuBj+tFwaAYI4OaYcE1IExUbdcYoBCY+tKFUmnYyMU7bjt+OadwY0Badj+6adtz0z+dKEIFIRGBk8ikK8+n41J/nrTST60xWIzxRtVvUfQ0/ae+aawOaYWI/KX1NNZQBx/OpCKAPWgCLHHWkK09wf8AIpgJpisNKZ64/Koypz1qY9aQ9aESyEg+tR5wetTsaaRxVEsgY+9QOMGrLA1C6kjgVRDKzdelRE896lcHNQsSPaqIOH1rW7rXL/7Xd7A4RURIxtRFAwAo7dKuW3jPWLa2ghR4jJBE0ENw0eZURuoDdfXHpk1j2lpNfXkNpAN0szBVUVb1zSk0TV5LBbtbny1BeRUK4YjlcH0PFeg4LqjwIztLli9UO0LWrrw7q8WqWYjNxHnHmruU5BByMj1qtaapLZS3Bjht5PtKNG6zRBwA3cZ6H3FVHNSWkJknXjIppuOqKjfmOpGoXeo21nHctGI7SIRQxxptVQO+PU9Se9W0X5eeaq26BEAq4vSsJSbd2dlOEYqyHKMdDUq1EDz0FTJz6D6VmzaKJlHvUig+opqKalAJrM2SFAz2Bp4UY5oVTnFSBWFSaIAtBBz0p4UinYxSLSIttOUHNPxT0XmpLSHIvrxUuAvehE75qTFJstIjVC7jB4qwq+tLGgUdOtPKjH/16m5VhuKNpBpQMd6k20AREMTRtxU2MD/69Mxk5pNjSEC571II89KFqQH3qblWIynalRMGpcDqaMimIZsz3/SmeWQev5VKvB61MAMZPNAivhhjpj0pwQN2AqyiqwzQFHQUmx3I/KAHSk8nOCP51IY2LZzgU4oexqbgQmPnpSbgDg8GpSDmnbBjJFFx3IQo7UeX34qZV9M0EH0ouO5DsxTSuOe1Tbcc0xmJIwpx3pgRlAOc/pTlYhd2cinuNy4I4pBChTbux+NAC/fGeKhkjJHDYqbY0fy9R60jfdwaQyukJXvmpAw6E0/cPWjcOlO4EYIPb9ab3/8Ar0/Bz0pfmpiI8+1Jjd3qUAk9KQrzyKQEP3Wp2c08qD3FHl8UXAaMHqadtxyM0oTnnNSbDjgmgREVb0phRuozUw9zSEf5NMRDzjnP5U1hgVLhT2P4Gkxj/wCvTuBCBmmtx0qYqCMZxUbxnHy9KAImNIpBPU0hHOMfpUipgc0CFH1pMZp4HHf8KYTg9vxqkQyN1A//AF1Ax+lWGfjtUDkE8VRLIWzUZJqZqhcUyWROc1A5BPSrLciq5681RD3MJvEOh6X481LVrC3d7chhbCMALvIxu2novUgcY4qr43vdPvH0eeykgklfT4zcmIDh+eGx/EBjNcnSEnFeq5XTTXmfPWXtJVLavQXIJ6VqaXGMjOay1BLYHNbtl8iqaykzaktbm1GAAOtSA4qskvSpAx7GsGzriSqwZulW48AdaqR9atx4B6VmzeJZXGKmQ+hqEEEVNEMjjj8ag1SJVANSBaRRgVIp2j/69SapCYIFKq0YLGnbOalstITbk8VKkeBSKD9anCkDgipKQijtUirTlX1NSKOaRaE2kjFPGQMGlzTgmeakYgGfrSgECnbeODScjpQ2UkNKZGTSDGcZqaNeOf508AelTcexGFpwXvyKU59KB1oAOMcmkAz0NONIELHimgsOVR3qbaduRTVjCjnpU6BccUMlkKoSAWHNO8o5yBip+c9KRiB3xUEiKpAphfcxXHT1qRWKjlgfak3Bh83GfWgYgVevHHvQQCDg8U8RgHcM/SgqT93rTuBEsLZyT8v0pxUg9MipCoxzTM4PA4pBci3ZY4p4x0IFO255xzSAc9f0p9B3uIUDj2pu0DpUuMDAP51HnJwTSAjO7dgjikY4PtUx6cHNRbcnJ6+lA7kRRd2c/hSbB6VMykjNNK59qEURhWHWjIB6j86lHpyfxpXUYzii4iIDHSkOeozTyOM/zpQmRnNFxjAMjpSYxzUpUH0xSbeKYiLr3NOyQO5p20+tNxjpmgYmM84ANMIOak696X8aYiEDJ5NLtPvTyAe9N79sUCGsoxzn8aZ0qQgClAwOKYEW3IzmoyMdxVk9M8flUbDcaZJFg00pzzUmMGkzTQmQOMHFV3jccgZq42KZj3qkQyqUY9QKidCB2q0y81E4pklMnFQMMnirLjrULgVRNjyekP1FOwKYTzXpnzhNbAmQHtWxCucYqlY2/mgEDitZItnFZzZ1Uo6EqBgOtSruHekRT68VJHt3/NyKxZ0xRYiPAq5Fiq+2EqhiJDH7wNWkAAxWcjeJYUZxVmPOKrxYxVuMe9QzZIcoA607HpTgc9qcBipNEgAIH/16VRk9aOGPpUyrgYzUlpAoAYVMAM8U1V71OqjqBUspCJz1H61Iq88Ucj2FPRealloTGG9qfk56frSgGnHOcnH5UmAY45NKI+eKT7x+tTKu1e/50ihjqAtNjJxzjNTbFcE96YYtrZoY0KVLL6U4KAOtLzgHNGN3ekJkZyTgilU4OM1IV5x3pnlHdkCqEPDgHB71KpBpgTjmpVwBipExp643D8qcI1YckkinKuB1pSOPlNIRC0SFgQTxUjIQvqO9H3Bk45o+YOAehoGJuBOB1pyEsvIwafgRt0xn1qQFjzSJZCiZyW5pyqoGOtPbG3pUZjOODx9KYhrsAcf1qMg546VIcjlhUZK+YMNQWhCPb9aQfLyR+tTBcjk8fSkKdhk/WgLkXVsjpSYDGnGPaOvNGCRjP6UAMIU/WggA+1Ls55zTmXGCOlA7jcjHT9aNoPSnMmRxQqHbg4zSC4YGOlMIyeDSknOOMUAYPXFMCPOTigA4qQlR1BzTMZ9qBjd3PvQR3/rRtOMkCnHgDJxTGR4JNIVZsjFSgDGQaXbk8dKBXIRGQPmpwQYz2pWBJ4p2DtoERYFGMjGf0qTaD6/iaNuBTJIduOKayY5GamZR15/OoxnkU0BXOT60hAK4qcjAOaiwM+lUJkRAVab1H/16kYEGou5poljGqGTpU/UZqGTpz/OqJKkh568VXep5uxzUB+tMnqeU7eOtNVcyKvqaQnmrFtGd4Zu3SvTb0PnYxuzYtUEMIFWlIxzVBZjjGKlSRm7YrCTO6KL3mADGamhG4+tV7eMu2T0rUiAUYyKzkzojEdHGcg5FW4kyfWmwxgnJq2kfcVmzeMRypjsamT61GOvpUoxipZokSDinDJqMHNTIuOalmiQ5QB161Mq5HrSIoPUVOqjt/OoLSHJHhcnr6U8D2oTnrT2OenNJlJAoyafwG/8Ar04DaOfyoHJqRi9e9CplsU4c09BtPIpAOVVQ9aU8dqVsIQR0NHVulAgwdvHekwcYxUrZVflpihv4jn8KAuIADTgM9OKY554FP37U5/WkA0qQacqHqSKFIbpUgA7mgBAozycfjUgI6ZpAVx8uaAwJz+lITJAoPemhNvFSLh1zShSBz1oFcaEIHNJGf3nOMU/KjrTTtLcfzoAVtrP2P40/6YFICBzgfnSMQ3Tg0CY1gdpBP04pGOQFzilKhVAzmh1BXvQNDDlFx1FBRWT7tOjBxkYIprbgcjGPpQO40ZBA/rTmIA605ST0oIAPSgCFQSTnp7U7ZSknPAP4U4Lu5xj60wuM+UcYP500hWYpmpSOKjDAk+tIYhwvy5/Wgj8aTnPt9KUHPFACfUfrUbDceCM/nU4A6ZprEA0DuV9jhucUHripGft/KoypLZoKuOjGAcHil2789/xoROOTinKpx1A/CgTYgTaeMikKkHdzT+npn60oODQSQ5B55GaUpkcEU5xk9R+VG3b70AN2EDHNIOBg/wCFOI9QRQMD3qhMikHy/KcH3qLGOSRmrJ/Cq8vynP8AWmAzGCeeKY2CcipmKqoGf1qM7aaERnnjNQngnrU5xnpUUg9OlUSyFj71DIT0zU56VA+KaJKsi/LjNQEdi1WJRzxUDdepqiTzOC1UKGY1OIlz8vNWW0aeMZ3EipYbWSPqM12udzy4UrEEdq7cnj61aitscDmraIc8irscYbGAKzcjojArQWzCr0VsBgnrViK2OAc5NTrBjsazbN4wGxoFFSq3YGnCDjmpo7cDsKhs1SGLxTwGJqdY1U807aM/LUXNEhirU6Ang0iRmpghBFJspIkVcCpAMDNMAI6jNSAepxUlWHL64zT19cYoUjOBUoX0qShFBNP25oVCDn+lOLY7ZqWAoGOP6VJyF4qNcnkVMpb0oExAc8EUrjJwOlKG5pQC3J6UIkYFI6UgDZ5qbbgcGoyCeuRTHcTBDcH9KQ7jT+F4zzTHP+zn8aAETIPWpMkHpxTQFcYwQfrT48LwDn8aQ2IBzkCp41BTofzoXn/9dSKFC7cGkTcFj2jjijeQQOtIV296cDkc0EiHLHnpTlGKTqf/AK9KCW+lADjjGe1MDKDQOGx1HpSr8xIHBFAAy7yPWlK7RyKYC3mE5GB7UzzCWPpQMkwMDHFIfl600EtJxjFK7noRjHegBi4Zmx8uO5qSNe5bNRBlOccn61JGcrnBFMGO3EHG3A9agdzuyuKlZhTcAHI60gIwX5ZhgfSgEbvb60/zADhh+tL5nGCmBQMjbHY80Be9OwrD0/GjPH/16AuNZSVzTFBHank5GKYxx2oGgwJD6GnbNvUikiRgd7dCOKcSeeaAEJz9KTOKUAEUAEuAKBCck8Uuw7s/1p7HB6GmkMTkdaBClV7jn60wk9sflTgpBLOaDtYdx+FAiLDMfm6fSm7frinhcMT2+lMbG6mMGAIzUDcVMAQOf5VDJkOCPxpgIxUgdz9aYVDdOKflc8DH41EcM2M1SACgB5NQvxxUrYqJxxTJZA49TUD8VO+PX9ahfB71SJK0hJ//AF1Wc5NWXBqswIPU1S2JMn7M3biozblTzWq1uz9Kje1J7/pWlzFQM4RgGrMSY6GpDAV65pQnoTRcpRJo1PXdVhA3XOarJkH5hVxDxxU3NUh+1iMmnrxwaQHNSIp3dKkocseetTJGAKaCQealAz3qWy0hAD2NSIOeaULjvTgue9QXYVVBPFShVFIvAwKcE5zQ2OwojJ5BqRdy9aTgdKkQcVICBeckk0/bjnNOBHQ08KD060hMTaRTgrfWkwd3tTgSvSlcQBSOcfrTwfWk3EjOMGlRT1JpkgwPbpTGBqVhjnOKaxzQCGhCR1o2EHPWkIwaQqWGAaCkIfp+tATB44NPClaUnac0IBBIV4LA1MhyOajKoxDMcEU/Jzii5LH5+b2qTGR15qKM84JxipGYAYb8OaRI0k+tAXavHOaC2eBxTl3Acn9KBjBtzk/lTg3fOKcrgg8UZHamITIxnsab5eelLj3pFGc4pDFCAdTzSsG6dVoYoowSKRWyCCfpTAbjDYVaPm+tG4BsAjJpApDZyD+FAyQAY5puRj5Rmmt6E0gHHBHWgQg9/wAqCjE57U9Qc0owD1pBcTbtXmk2gD0FK3zHA60gRh94g/hQMay+/FR7AWGelTMO/FNBxQMSTOzCc4pu2QkHFOyM9RSgigBjHHBFKgIUnFKyk9KcUwBz+lAETZyKfwe9BcgYppIPegQyUlQec01WGz6U1n2McnIpsbZPBoHYduLfdNOIGMUHj2pmzPJOBTAQkD/9VRSgtg1MQo75/GmE5GRTEQnpz1puMnNPkBbHrUbDtnmmA0owJOKiZiOo5qRyR3FRv8y5qiWQsetQtUhU1AxzxmqRJE/Q5qnIeetW2PBHNVHOTzTAnCEjJoMS9s5qbbiniPNUyUimYmHam+Xn1q+QQME8VHsU9qVykipsGeaeEA+7U2wDoR+VOVSfpRcqwkYOMYqwoOOlMVGzjtU6r2zUtlJCqoJ5qUACkVRT44stuJwBUspAECnJU81KFz2NPGPwpR7UixNhH/66cFb0py7ulO+cdqkBo3DjFSKpbtSr71Io9KQMQJgcU9AR1oAqQIQM0iGRnJ6U5U7k04ZY9KfgCkK4BM0HPSgUoB3dRj6UxC4YrTfLGenNSHjjApuCpORzTAjIb0oIbH3eaD5meBxSFmHXpQMayuRwMGkCMPenIHOc9KCuaYCYOPegE45PT2o5Ucc03AJz3qQJVPPBqYE45HFQK2PTNOLseuMUxNCuMuGB49KXcOBmmBgxx1pcjO3+tIBTwwxzUwOR1FQkFTxxSjk9qAJN/bqKaq7Ce+aFIz7Ue60CF2juP1puMZ9PanAsR/8AWpjP8204oAVBjnipcd6jUZFAfsTTAMjo1BUAdQaRgGI6jFPxkcUAM3N2xUingbhzSDHSnc470gYxoyW4odtvDdKRnYnngj2pcbh82D+lADCpYArShcHmnEbR8o49KjL5bH9aBjmAB6c/Wmjr0P507tikAxQApyRTAOuf505iT0pQDj/61ADMA+/40xo8ZIqQjjimAEUAVpkyciiMeWD6098k8H9aaPvc0FCLknNPcnNLkIfkGaQtk80xDAxzjFMOR0pzE9KYwYcjGKYhrN/nNRuNwzUk3y7fpUOcZzVCIz0qNj8vFPK7ScHrUTthttNCZCSc81FJg9KlYcnNQyVQiFuuKpyZDVadvSqcnJ64pkmyEVBzyacWz6YpVXd/+qpQi4+bmhsaIQFPJpGUHpxU/lJ1BpQg+tItFXaPrSBR61OY+eOKYY3zgUirCqOMZqTAXnNQHcGwRViPGMd6LlJDuo4xU6DCgE1Gq85NSkjA4qWx2HDaKTODwcUnzHoP1qQDaASOaQwUsfu08Bsc09eFBzTwwIApANUDFTIMjjFMAy3A4qXaPTj61JLE8vnJFSE7fpQD6DH407qaRI3cVxgZzTxnqaFIBHYU4H1BxQIPlHWgxrgHOaHUAZAOach45piGjafrTSoBwal2gnNMdgpHvTATaO1NaMYyRmpRuI9KjJIyGamhjP4cCmhc9TTx9eKYS27hT+FMLibFB60mATjIp+GI5BppTI460mgGMo7mk3jPDDH0pqb8nOfxpBGu7k4PpQUTBlA6g04njOKjYICMdaUkkjmkIcHZ26gYpzN2HBpuQDjvTtufakIUsccdacpyKjIbsf0p4yBzTQD9wC0zg8imsynAHX61KLZ3jZx0HTjrQhbEefrTSO5OKApK809V4xQMAFZchhxSqQpwSKb04WnsoOCQaQh4wvNNMm7pRnimkZHFACuoIyTilVwq4BzTDlF5pFyTwOKQx+d3NIQPfNBwBSD6UwFP60qdTmmNzjg0qtjNACyEsxANBwo6io2OwZ5xSn5gDTARicjB4prAjk04nHFRStzikMNymhQMZz+FNU4zSeYRQOw4k84NNI4yaQtnpQSQKYmQtON+0HJ9KTzNwyCa2PC95bWcl7cXC8ovy57+1YsXLM/ZiSB6VfLpcyU3z8th0p/djNVyQ561ZkHFVWJBoRoIzc/4VC4BbNSY3c1G5wTTQmRSNiqztxU0hFVZGxVIlkTNjPNVZOTxzUzkVXfrVEnqC+B5MZF8n/fv/wCvWbq2gtpT26tcCTziQMLjGMf416GhyoNcz4uXdJYYPdz/ACrslRhyX6nl08VVdXlvoVR4IkPP25P+/Z/xrM1bw/JpkkC/aBKJTjITGP1r0RDla5vxYfnsecAOefy/wpTowVPmKpYqs63K9igvgeQjP25f+/f/ANeszWtDfR1iLXCy+YSBhcYwK9FjOUBFcr40AZbQ56Fx+gonQgqfMtyqeLrSr8jehyCjjt+VLtB70p46Um4A9a8657ZIq+9PwaarjpTtwzQAoTB61Y29MVF16U4ZHWi4iYcDFOGc9qhU1Ir8YzSuSyQHB56U8jJyOlRKdxwak9s4pCZJj1P6U4Djk1HkDg/zp/mLnB6fWkJj1UbeeacFTBH9ahVjk8cfWl3BTQKxMHXoKTdhsUwKr9M/nSKAr9f1oCxMXI4IppwR0pS4oCKxzVIkaN2evH0pNpZuelSEqv8A+ulRgw/+vQguRkYHXj6UzcCMVIdoOO9JhScVQXK5BLnBz7YpCzfjU0i4Py005Hb9aB3G7Tgnuaj2jqRj8am2seRikIIosFyEoM8dfrS5dcc09snp/Omj0YVNh3GCQl+SKlLfTFN2DNLgAUgG4XPB5+lSZJGKhZc9KN2xc9qYyTp3p8V1LGGj6qelRRksuRjBpVyGoEOGSfmJANO3bB1qIZZ+vFSYCnrUgKuclsjgelEe5jljxQCFbBIzTs9jQA7IPT+dMbIbg00jbyDx9KAdw3UgFZj60hOV4PNAYetNeQcbaB2HKMjrTCMNyaUyZHHFRMwA4pjsTbx07Uocg9sVBGN7BieB71NuxxQDQEc4OMGl/iNNPzUmQBzQIazHfzUTjLbufwp7tTCwPNBSFyCh5/CowDS/LmjGOaYwCnNABZgo5J6CjOOaN+0hl6g8UEsuRWrpazKFG9+1URDIrbSMYOK0rG5L5aVuB+tU5ZDJM7KPvNhRVoy1Qy42qoycVRcjOVOa7/SPB8E1msuogu78hQxG0fgawPF3htNEAvLbP2UnDLn7v4k1q6UlDnexzLGU3PkTOadjnrUbnI5NKpaZXkjUsiDLH0FQs4YZqLHTchf72M1VkJzU8rcE4/WqbNuNUhMY2SwAqGcFJCp6ipHOKryNzySaonqdhHJIcZdv++jUpndiAWJ+pqCPpTl+/UNstIn8+QdWb/vqnBi5G5ifqackBcA54pxjVOhqdSlYQSTK2Q7fnTZN7/eJOPU08A4pecYpXZWhAI1I+bNGxV6AfiaseXgZOKZjnnpSLTIQCemKeF3detPPHsKUHikx3GH0NOUY6GnAeopwAPtSC4xQc5p68mkbHrT0i6MelAhylhT1yTnBNLvYHABx61KrHPUYpEsQqMAGkAUdKXIYntimYycCgSHk8YNLtB4xim4HrzUqKOpNOwMVYQvORRtGc9aRyRjBGKaxbIA5FFhA3B3dqVZC44NKCenFOC9u1MTE8ztikVi2ece2KkVFDZ7U0qp+bFBIhb2zTcK3IODR/FtxxS7Qp6VVxkThiADnA9qduyADQvzMcKePenD6U0Ji9B1/KmMKDn8KMrQAw5I4pvlnqTTjzS5AHNSFyIgr0FG7saflcmgMc80DuN28cGnbMrzzSOTjJoUsy+1IaYAYGB+VMbHXJzSkBTzS7Qw7fnSGNj5Zj0pxIIORTiDjimFG9KQXGqApyD+tSKSeaiLY6mnBj1z+lFhjyx7UwuBwcCmvJjPrUe4leaQJE2Bjg/rTCueppoJxwaXn2pjEIwMCkzzin4Ug/MBikC55FK5Q9CQtIeuTmlFKPWmSNVj60MQeKcRzxTDjPWmA3aXB2gnHJqDJBqfzXjDBD97rkVCchcGixSFyTjFOLYGaj5HenZyKBMAc8mjdzj+tM3e5pAwz1piJC7AYU1f0RVk1e1WQjG8HFZbPlqmSb7PJFPGf3iNnGTVw3MqivFpHsS8AYrP17T11PRbm0cgBlyCe2KTRdVi1SxSVGBcDDqOxqLxI4/sOePzNhmxGD9SBXp3jKlrsfOcko1OV7nn2qXun6HZS6TZRrJJNEqyPuJ2t3OCK5XOEAzXW+OLGz0mw0+zhBNwT8xJJJGOvNci/3ccZrgatoe1hnePMyKQ/KapsevNWJXyMZqrIeP8A69CN2RsTiq0h56VMx4qtIeetUSdlEwPWp1xnivnKiuh4TzOBZn/d/H/gH01EWK8VKDnqM18wUUfU/MP7T/u/j/wD6dO78KU/cBxz6V8w0UvqX94P7T/u/j/wD6eY5TpUeMrjvXzLRR9S/vDWaf3Px/4B9NCMk47UpQLXzJRS+pf3h/2r/c/H/gH07xjpSMB6frXzHRR9R/vfgH9q/wBz8f8AgH06oGfX8adg7uTXzBRS+o/3vwD+1f7n4/8AAPqEZzUgf3r5aoo+o/3vwD+1f7n4/wDAPqZc85/nTgMV8r19J+FyP+ES0bsfsUP/AKAKxr4b2S5r3OjDY328+S1jUPFSo21OtMCkjkj8qep4IxnFcx2sQSbuCMe9GQaafmzt61EqyGT/AOtQCROCxPHFOJ7E03lUzmnh8jJpiaHqABkUmdwIxSBlcccU3cqE5oRDHtgLUJJIII+lP3oegpob5s9qYCKCB707AI5pC6scDg01xsGQM0wFBAJGaZJnBIBIpojDMHzj2pzE7SooAhjfdzjFPYkdKYhKHGMUjknqaQ7Dt+XAPWn4RiecFRnFRhSFyKULkZzSARWyMkc0u8KORSk7B0ppIbr+FAxQ+ab5m7IU9KRsDr0pFwAaGNDyTjrSEnHJyajIOeoxS570h2E+bByPoKRW28N3pHY9jn8KiD/N0pDSJHYDrSKQaXb5jc9/TimTW7Ry7AckjNZymk7FId346U/dgVBlkbawOaeSCM5pp3HYd+FO3e361GBxnP6U4VQDufenbyPWmhscZFO38UxMaZM8Udt2OKaqkFj2NCblBU4xmgBWfjkGmZBOac/PWmnpwaaEhGNMJ4pz8CoznFMdhitgkUm/NDMR3pmaYDsgdjUgYFarsWxTVlIPNMhlmO6ubGTzbeQow/Ki9u9Q1TbNczZ8s5XAxz17VEgM77R071NdyBIQi8VopO1jCVOLd2jLvLm4v7r7RdSb5BxnFV2P41I7fMagducA0ty0kloQSHnpVZ25qeVsGqsjiqRLI3PPWqkh55NTuwxVKVvm6VRDPNqKKK9U+cCiiigAooooAKKKKACiiigAooooAKKKKACiiigAr6S8LoP+EU0c54+xQf8AoC18219L+GM/8Ilox7fYYOf+2a1x43+Gd+W/x/k/0NYJsXpTQPyp+MjrTCGQk8V5h7YhIB6frRt+Yt0B4p6sxFI2/aTjmgZGVO3CnilUNjg0wPuJB60/IA4P6UDFEgHGRmnbQTnvUQOe1PEgH1oFYeVUDpn8aQsNvpTQS/Q0FmX3FO5Nhiq2/dkY+lTbs5BHFMEgIzSqR1FMTE5BxnimOPQ/pTnQsxz0qAsIzincEOKgjk80gHy8801nzwtG1gOQTSKHBdo4GaAc+lAbI4GD9aQ5HPP5UhDX5P8AhUbMRjFK5ccgcUvDAZ4zQUhqkMcE0rAr06fSmshQZH86awaQcUDF3YPrSs4qLaynvmk2u3JFIdhfMANMlcH7tPIA61GdpOKTKRJHIFIZiOKlmvPmWTaCQOKYoSJMnnpUbx723DpXDV1YxJbgTnOAD7U1W55FPMezBx1pTGx57VdGVnqO47AI5oXjoc01M08nFdQheMe9KrY4JpmR7UZoEPJANNJJOaCcc5zSFu+aYCk5zTMijcSKYWPpVWAc7ArUWcDmnZNRu4FCAjdhmo2YZ4PFJKQeajyCKYNjw3OKQ9CTTEJNPALnFUQy5Z5jQsRyelU7qYM55qSe42IFHXpWeWJ5PWmRYR2zzUJOaezccVCZCgOMc00JjLa2Ooava2QYL5sgBPoM10Hj3wdb+HLK1u7aQ4d/LYHPXHua5iO6ezvre8QfPE4YEe1dR8QPFlt4h0zT7e2b5lbfJz0OPoK3ppbs46vPzrl2OIfhM1JYaPJqiO6SbApx93NV5W+XjGKgS9lt8iN8A9qVjU83ooor0z54KKKKACiiigAooooAKKKKACiiigAooooAKKKKACvpnwuufCGjEMB/oMHH/bNa+Zq+mPDGR4Q0YjtYwcf9s1rjxv8ADO7Lv4/yf6GqCQDzzS7ty460KwYcrQdwzjivLPcGlgopwOR1zTSxxnr60oYEdaBjHQjpUJUhs9vepmfafvigsQM9aBohJ7E04KD0IxS8uemaXBAoAcEKLwePpQCx5HIpgJCmkTHGTTE0S445HFJ8qn/69LvXoDSM4BxTJsRyMw6HNNGTyRUhwx/+vSEAUxEZLA8YH4U7JIoO09aYdvpSKEbJIAI/EUkyMkgUHIx1xSMBUTl8ZzQNIkLLjqPypmCTx0qINnr1p4AYY3YpFWHkjHXNICWPWogqqRzzS7l3YzgUBYVhzUZPqcfhT2IQnkEVESrNnP4UFIC/qc1G0igcmrTeS1psJw26lmNu1skUfbqaljGM2+Jc9BVmARsMFsVTRiueRirUMSy2zPgqc4IzXHVi7gySR4xIIwQSKr3Mnz7U4HfiorS2IuZ5Sx24x1pCWeTcBxVUoNu4WsP6jHekG4UhYhuRQWJrrACSf/r0uRjr+lKpJ60h+amIGbimggCjYR16VGytu6jFAEm7jApvfk0wOB1obkUDBzgcVXzk8mplba4Ydjmmyy75GcgAsc8UySFhkdaaqbcnNKzeho7cmqsDGk0b9ik/lTNu5wBRMQDjmmSRO27rzURAFPJ4qJjiqRFyNiBVdySetSu3FVnNUkS2RP3z0qu/XIqSRue1VpGHNUiGQzP2qlIxBxU0jjJqpIwLVaMmzh6KKK9I8AKKKKACiiigAooooAKKKKACiiigAooooAKKKKACvpjwu+fCejD0sIP/AEWtfM9fTPhaP/iktGOf+XCD/wBFrXHjf4Z3Zd/H+T/Q1GBbAA4pShxz0peMdcmlGcdcV5Z7ZGMIeO9PCDHANLjPTNIw44P6UDGOu3rSAbhzTWLKcHBFPUEr8o4oGLtGNvrUTgocYz+NSk4xmnEblzigVyJQCM4waa+Cc9xUm4H5eRSFcDlqY7kQLFsmmuNzAjrUmDjpxUfl85zQAq7sHNNkLBeBTyOMU1k460wRGrHHSk2nOcH8qCetM5zwD+BoKsKWNM3BuP61Iy98UwjHI60gsIY89absA6U8ZYYNMYHOP50DSGmNjluuKTBPWn4OMZoWNsUhiIByGHFNYqfujFKyFeSKNoHJFMCPAGc/zpFAA4/nUpVCM0hKr/8AroC5HjPWp45vKh2r69Ki+8aXYyHkEd6hxTHck+0s6sGH5UwKT60I26lYn1ppWAbtI60ufSkIPc0uOOtOwDt5VeQaTgjjNR7sNgmlB/CgQpDDkUzeT1zTm9M0wIRk0wEyM/8A16Dx3oPXmmtweKAI2YDvTGIK8fpTnXPeogvOCaoVxAC3JpzkBegpSPcUj4IxVIlsbEeWkIwAKqu24k+tWpf3UG0fxCqLH6UybinpVdm5qR2wO1V3PvVEsa9VpGxxUrtxVOVuaoljHYCq0jZyRT5G4qrI1UkZNkUjDpVGUjPWppWOe1Yl/qnkyeXDtdwfmJ6D2+taxi5aIwqVIwV2YdFFFd54oUUUUAFFFFABRRRQAUUUUAFFFFABRRRQAUUUUAFfTnhlgPB2i5/58IP/AEWtfMdfTvhY7vCGigjgWEH/AKLWuTG/wzty/wDj/J/oaWdoG1f1qTDFcinDOcAU0o2MYODXl2PbGlWxkMAaccBfmp4T5c0wkn5cZFDC4wjHIwR6UhDEjjj0p27Bx0pATuPekMRuKaeORSlmZT/Km8vwKBgWXqBzQ2GHT9aURbR81OfIGccfWmAxD2NMIIJxSkqwwMZ/OlAO3tQBGwIqNmIbOKlY7eagYM7gAcZ5oGiN5AWz/WnRn3rS8q2hjzxwOeaz8BnJTgfnUc1ykxGBIyKiG7P3TVnBA4/lUZ3FhmmNERyD0NIxP4fWpmZgcDkU8LkfMDmgCsCR0HH1pc5HpT22g9MfjULHaeD+lNDFLN0yKayuenT3oySPemeY6/eBxRcAO5OtJy3NO3B+nSkYEjrQMUe2adJMXADY446UxT2FKSc5oBjTwO3505GyKXdkYK/rSFV+lMBHIxURbFOfGfQexpjeozSAcMH5j17UdetIp70/nrTAQqMDP6UDgcU0kk89KXIFMQZJqJxg8VITmo2PNNANKSNG0gBKr1PpUfGNxqb7XIltJApG1+vFM02zl1XVYrKHJGcuQM7RTSvsRKSSuxjAhQ3Y9KaiF5AOcd66LxrYx6Y1jawj+A5rDhHkQs7HqMCtHG25hTqqorop3jlmwOg4qoxOOKklYs5OagZj7UjQY7HFQsTinO3PaoXaqsSyKRsCuXu/E6xXMsP2Uko5XIfr+ldLI3HGKxPBuj2urePb2W+kRbPTkmvpd4yCsZ7jByMkZHpmt6FNTbTOTFVJU4px6s2NH0XVNUsTqV7brpOl+XvW9vH2xt0xjvzkYOMU++8Lag1ib3RHg123Vtsr6e+/yzgHnuevasxmuPF0V94k13WGt9Hs5lhWFFIErEZ8qJegYqvX3BNc3qep2emXqzeE9S1O2hlQ7o3Yo8Q6bS6nDE4zwMAbeSc47XhoQkrnnzxVRTavdFO81uSVGjiQxseC2ckfSsiiinGKjsc06kpu8mFFFFUQFFFFABRRRQAUUUUAFFFFABRRRQAUUUUAFFFFABX094V2nwjonzc/YIB/5DWvmGvpvwvlfCWiHqPsEH/ota5MZ/DO3L/4/wAn+hs5wfUetKoOeDQpJBGMelIHdWIxxXmntDzknio2XJwOtDOueT+FAaNzleopAhpiU8nr7Uj7uq1Iyh/Y0zDL7+1IpEUakmnKsaMSTyadkt2xSbTmgLilR17UBu2RinpESSSf0pG4HyjNAhjIrDjpTQFPAcflUhXcMng0hGwZpDuQGNHJG4ZoWNUjKhgPwpXA5dRk/WlzuTpQxpkGwAnJJyaHXK4AxTpHCr0pke4nkYFIsQ/ItCAN82acc78HlaXIBwDxQCGn72c4pCgyTnmkxufcDwKXfnOaQyMk7ipFNAVgadkklQMg03YVXA6UyiMlUYHPStATJdWucDjtVEqBwRnPvSlSF64HpUvUGiqqMWZR0qbZgYNSKCBgU3kdSapAhuFVTSIBtyakyB1o2g9AaYXIXfByKaeRmpiMnkVG+ew4oBEZ6cmmkccmn7sA5qL7xpjF49aeBzRtzQFOeDQICDTT8vJNOK+tNYetMQwtk0m/HApePSmuRTQiGZgsbP6Cu++HejfZ9PbUJV/fT9CfSvP3Vp54bdesjgcV7dp1stnp8MKgKEUAj6V04eHNK55mY1HGFl1PNfHUjXPi2OAH5YoQPzrndRkxiJDwOtbPiSdJfEN7dKQedoP0Fc1IxZiWPJ5orfEaYKNqSIWb3qGQ1JIcmoXNZnUxjHjrVd2xUrtVd296pEMikcAHNVvh1FDd+Mdf06S4WBtQ066tY3YZAZsc/gAT+FOmfIPSuCnv7mx1me4s7iSCZZHAkjYqwzkHBreipWfI7PoedmH8NJHR+Iby20Pwq3g2C8ttRmGpfbpbu1Y+UmI9gQZA3N1JPQcDk528VRRXoNt7nlXCiiikAUUUUAFFFFABRRRQAUUUUAFFFFABRRRQAUUUUAFFFFABX034UJPhPRvQWEH/AKLWvmSvprwtIP8AhE9FBHIsIB/5DWuTGfwzty/+P8n+htnB9qPm+ooRTjOMikZwDjGDXmHtDXjEo+U80m3CHYfmFPXG7J4/Gl2KpLA9aAAuTFkD5h2pgB3ZyakXO7APFOMSsc96AuNQbwfakYYOBS79oKkY+tMHXORj0oEDZUAg804KGGM8mkJHc0IFJ3Z/GkMBG6k56U2RljXJFOJcvg8igIXbaV49aVguRGRlXcoyDSkBhyMZqRo/l2bT+BpMBQATzTHcreWxYgg04xuFqViQc5GPpUTS45JpMpMi8pj1wfpTfIB5AwamEo7ZzTTIHOO9Iq5F5YXhqcVj9/zqTaMYJ5phBJxyaQ7jAVBIUHmmspPTrTmUgd80ig96TGRlWHamFmyMVMwGcg0xjjmmlYdxpGRSFKXORQD9aYCbcCkPHSlLH8KQAk0wGsTimYJqUjB60wnmgZE4HQ01IxkkYqYpu5JqPGDimAcDv+lNbgcH9KV1BFIQMcUwGc+1IxIp3IpjZPrQIQZPNRsRTiDjg1GwIpiZe8L2n2/xbaowyseXP4V6l4g1RNJ0eadmwxG1PrXm3g27t7HxC89y4RBEeSKi8WeIjrmobIv+PaI4XnrXZQkoxueTi6E61VJbGRcTtcOZGP3jk81UkNSNwtV3rCTu7noJKKSRGxwagfvT2PNQyEev600JshdjVZ2NSSN71yviDXvJLWdm/wC96SSA/c9h7/y+vTSEHJ2RhWqxpxvIj17XPKL2lo/7zpJID932Hv8Ay+vTlaKK9CEFBWR4lWrKrK7CiiirMgooooAKKKKACiiigAooooAKKKKACiiigAooooAKKKKACiiigAr6a8LD/ikdGb/pxg/9FrXzLX034WcHwdooP/PjAP8AyGtcmN/hndl38f5P9DYDZxg0uQeT1FMUADOabncSNteYe3Yn3qVBWkOGGcVCuxRhfy609XCZ56+tArEgGB1pVB3ZxTQQOSaVpMDjpQiR+/JwwzSF1BAAxmkUAjNO2qwznBFAhrDLfWhQBxt/Wn7fRs0hTPNA7hvI6AUod+uOPakHzmnYANBLInEjPwQF7ig4zjvTyrFuOlIyBTuJwaQ0yJzgZxkVGxDL92pWAIP9ajRCCeRj0xSLRFszyc4ppwhzVghAaMxH+H9aVirlZpVK8H5qjiLOeetXP3R4VOaYSoPApWGmR7XHUYH0pCBjPX8KcZAxxQFFFhkeB1xTDCsh64qQoAetOAAHQn8aY7kXkBeFJNG0Y5zS5UNx+VOYAkf0oAiKZBxmmAYzUrp3HFRbQM5NAIaRmo2ODT2244/lUeA3JplIATTTkZJNPGKRnGcUxERyaQgipN3oDUb80ARvk0nIFSY461G5xTC4w5bvTDjcM8DPNKSP8iomOaoRLqDwNKotl2oByc9aokBRkCpSaid8Dp+tUibEbMSOaru3NPdjiq7Hk5xVEsZIcc4qq75FSSyc4rkfEXiLyS9lZP8AvekkoP3PYe/v2+vTSEHN2RhWqxpx5pDfEPiHyS1nZv8AvekkgP3PYe/v2+vTj6KK9GEFBWR4VatKrLmYUUUVZkFFFFABRRRQAUUUUAFFFFABRRRQAUUUUAFFFFABRRRQAUUUUAFFFFABX0z4WYnwjowx/wAuEH/ota+Zq+mPC5/4pDRsHn7DB/6LWuTG/wAM78t/j/J/oawJwTjkU5MsM96YrEDrS+ZkV5Z7ZIqEcginkcc0xWIUdxSPIWxt4oJFODT1KnqKZGvc1KqjOR1+tMTHA56DigjPelTJzmlCMM5oJG4xxk4p6hh06Ux0YjjNKdyrhRQIkwc9P1pGkCdRSLnbkmozIB70CHlxJ0OKjaPLbs8UiyfNmnM2DxjmlcobuAOKRiVGe31pcHFKMBecflSKI+XXK0gVh2NTryvFNYkdqAuRshxxUWznr+lWPvKccfhUOwg5NIpMYU28kHH1pCQRlf508l2O3HFGSpIoKuRhS4+bg0FcKf8ACnt9KOooC5XC4OcUuSOTUpXPoPwppU49aAuQM5JpjOKmx60xogx70DIcEnIFB9x+tSOrAYU/pTGU96CkyM0winHrSbQTkkflTGMYnsKaSMUrGomfBxmmIUtgGoSeeopWPf8ArTCaoGhrHioWYCpGJJqNlz1poTIz61DITU7HA61WfvzVEtlaRyD0qB3J9qll69a43xN4l8gvY2Mn77pLKv8AB7D39+316awg5uyOetWjTjzSGeJfEfkF7Gyf990klU/c9h7+/b69OLoor0oQUFZHg1q0qsuaQUUUVZkFFFFABRRRQAUUUUAFFFFABRRRQAUUUUAFFFFABRRRQAUUUUAFFFFABRRRQAV9I+F3x4V0f/rxg/8AQFr5ur6N8Lg/8IvpB7fYof8A0Ba5Mb/DO/LP94+T/Q2wAx4qYbV6dajVlCYHWgAk5zXlnuMn3AmnKVJ6/rUCoc5qVeOgoJaJMANxUinHJximKxxzUisM80EMADnORilUkPntTgMEikZtq4HWmRcRmKncRxRuCLuYdfWn4BXIHNNP71dpoAQPkZBpNuTR9n2/dJp5BUYJ5pDImQDHenlSVBAxSD5TuJ/SplJY5xwaBNkQGOlMbn/9dSuSp45pQu4c0BchUEGnbSc+lS+WRztqM7gchTQO4x0GCOlRkADtU+WPOCPxqExlSSWzSZSYpH7vdUYI79afncuMU0pkf/WoGmIQc8VE2BxU23io2I+lBSYwjIxRkKKCSRgUzYe/WlcZGzndTS5B9qk2gcU0qO2MUFDD8xzTDUu3A601s4oGQMOeKjc4FTMDUMoyCAaY7kTP3qNnGc0GE47U3YEHPX60wI2fJppP0qQgYppAIqhMiLGo2apH4FQE00IjY81DIcVKx6nmuH8WeK/IL6fp8n777ssy/wDLP/ZH+179vr01p03N2RhWrRpR5pEXinxR5BewsH/fdJZV/g/2R7+/b69OFoor1KdNQVkeBWrSrS5pBRRRVmIUUUUAFFFFABRRRQAUUUUAFFFFABRRRQAUUUUAFFFFABRRRQAUUUUAFFFFABRRRQAV9FeGnI8LaR6fYoR/44tfOtfQvhwn/hGNJ/68of8A0AVx43+Gehln+8fJ/ob8T7ulSbucCq8fyrnvUitk15Z7rRMG55NSZOODUGRnNPEmRigmxYjJ708DbyelVRnPB/WrEall2t0oIaJg2XBzxUhYMwxSIgUcD9aeiDOSOaZkxd2OlKUz8w4NDqCvHWkAbvTJuJht3Wl8sk5BqUMcdqCuTmgVxgi3cNmnBVXgGpAccZpG+YcUE3GFcjGOKaQ3YHH1qQo6rkocH3qymj3ckYcdxkLimot7EupGO7KeCBmm8nrxS7XVyp4IOCKfzj/69JqxaknqV3LA4xnNBUgdM1KBQCAPSpLuV8Htx7VG2c5qwxIqF1JPFIuLGFjio+GByelTlcDtTAFBPTNIq5DuP8NNbpk1KSBnFMPzLz/OgpMYGyOn60hbntS8hcD+dRt8p5oGI3PIqAgn1qU885xTCuevFA0RkVHJgdBUzkAYquaY0RljUMg96mbpxUZGaYyE/SmscCnuMVC1UhEbnNQOQBTpGAPWuF8XeLfIMmnadJ+++7NMp/1f+yP9r1Pb69NqdNzdkY1q0aUeaQni3xb9n8zTtOk/ffdmmX/ln6qv+16nt9enn1FFerTpqCsj5+tWlWlzSCiiirMQooooAKKKKACiiigAooooAKKKKACiiigAooooAKKKKACiiigAooooAKKKKACiiigAooooAK+iPDY/4pfSf+vKH/0AUUVxY34F6no5X/H+RsA8Y7URE0UV5p7xLtBzmnR/exRRQST9j9KfGTmiigzkXF6U5WOetFFBiyeMZ60HjOKKKZBGGJbBPFSp6UUUwLCgeVnvVQjEhx60UUyInQWrF7Jt3OB6VdgJ+zA+goorppbnnVd36nLOd87s3JzSdM4oorCfxM9Cn8CImdjnmogxOQaKKxZqhx44FRsetFFItDHYhMg0+3iSSzmkYZdQcHNFFVEUtiuBxR/CR2ooqXuax2Iz1pG60UUFETDJqGQndjtRRQtxkJPzUw85ooplIhI5NRknJoopgROTVZycnmiiqiDOd8WXU9n4dvZreVo5QFAdeoywBx6cE14/RRXp4Re4/U8LMm/apeQUUUV1HnhRRRQAUUUUAFFFFABRRRQAUUUUAFFFFAH/2Q==;fontFamily=Times New Roman;sketch=0;fontStyle=1" vertex="1" parent="1">
          <mxGeometry x="248.22000000000003" y="557" width="73.56" height="70" as="geometry" />
        </mxCell>
        <mxCell id="0gGLNNwoWwdXebhI30fq-59" value="" style="shape=image;verticalLabelPosition=bottom;labelBackgroundColor=#ffffff;verticalAlign=top;aspect=fixed;imageAspect=0;image=data:image/jpeg,/9j/4AAQSkZJRgABAQAAAQABAAD/2wBDAAIBAQEBAQIBAQECAgICAgQDAgICAgUEBAMEBgUGBgYFBgYGBwkIBgcJBwYGCAsICQoKCgoKBggLDAsKDAkKCgr/2wBDAQICAgICAgUDAwUKBwYHCgoKCgoKCgoKCgoKCgoKCgoKCgoKCgoKCgoKCgoKCgoKCgoKCgoKCgoKCgoKCgoKCgr/wAARCAITAi4DASIAAhEBAxEB/8QAHwAAAQUBAQEBAQEAAAAAAAAAAAECAwQFBgcICQoL/8QAtRAAAgEDAwIEAwUFBAQAAAF9AQIDAAQRBRIhMUEGE1FhByJxFDKBkaEII0KxwRVS0fAkM2JyggkKFhcYGRolJicoKSo0NTY3ODk6Q0RFRkdISUpTVFVWV1hZWmNkZWZnaGlqc3R1dnd4eXqDhIWGh4iJipKTlJWWl5iZmqKjpKWmp6ipqrKztLW2t7i5usLDxMXGx8jJytLT1NXW19jZ2uHi4+Tl5ufo6erx8vP09fb3+Pn6/8QAHwEAAwEBAQEBAQEBAQAAAAAAAAECAwQFBgcICQoL/8QAtREAAgECBAQDBAcFBAQAAQJ3AAECAxEEBSExBhJBUQdhcRMiMoEIFEKRobHBCSMzUvAVYnLRChYkNOEl8RcYGRomJygpKjU2Nzg5OkNERUZHSElKU1RVVldYWVpjZGVmZ2hpanN0dXZ3eHl6goOEhYaHiImKkpOUlZaXmJmaoqOkpaanqKmqsrO0tba3uLm6wsPExcbHyMnK0tPU1dbX2Nna4uPk5ebn6Onq8vP09fb3+Pn6/9oADAMBAAIRAxEAPwD+f+iiigAooooAKKKKACiiigAooooAKKKKACiiigAooooAKKKKACiiigAooooAKKKKACiiigAooooAKKKKACiiigAooooAKKKKACiiigAooooAKKKKACiiigAooooAKKKKACiiigAooooAKKKKACiiigAooooAKKKKACiiigAooooAKKKKACiiigAooooAKKKKACiiigAooooAKKKKACiiigAooooAKKKKACiiigAooooAKKKKACiiigAooooAKKKKACiiigAooooAKKKKACiiigAooooAKKKKACiug+Fvwn+Kfxx8d2Pwt+Cnw08QeMPE+qeb/Znhzwto0+oX935cTzSeVbwI8kmyKOSRtqnaqMxwATX0f8FP+CFv/BYH4/eKrjwd4F/4J2/FCwu7bT3vZJvGvh1/DVqY1eNCqXWrm2gklzIpEKuZCodgpVHKgHyhRX3f8W/+DaP/AILR/Bj4NN8ZvFH7GmoajFBqEtvf+GvCWuWOuazbRg2qRXIs9Pmme4ile5dVFv5skYtLiSZIYhHJJ8IUAFFFFABRRRQAUUUUAFFFFABRRRQAUUUUAFFFFABRRRQAUUUUAFFFFABRRRQAUUUUAFFFFABRRRQAUUUUAFFFFABRRRQAUUUUAFFFFABRRRQAUUUUAFFFFABRRRQAUUUUAFFFFABRRRQAUUUUAFFFFABRRRQAUUV7/wD8Eq/2XP8AhtH/AIKO/Bf9mi98Df8ACS6R4l+IFh/wleif2n9j+06FbyfatV/fCWJk26fBdP8Au3Ep24jzIUBAPuD4T/8ABnR/wVN+K/ws8NfFL/hY/wAH/DX/AAkvh+y1X/hHPFmsa5Z6rpX2iBJvsl7b/wBkt5FzFv8ALlj3HY6suTjNev8AwL/4Mhv2p/EH9qf8NL/twfD/AMJeT5H9if8ACC+Hb7xF9rz5nnef9qOm/Z9uItu3zt+98+XsG/8Ao+ooA/BHwn/wY1+FbPxVpl546/4KV6hqOiRahC+s6fpPwlSyurq1DgyxQ3EmqTpBKyblWVoZVRiGMbgbT7h/xBU/8Esv+i+ftAf+FTof/wAp6/X6igD88PCf/Bqx/wAEOfDnhXTPD2sfsjahr93YafDb3Wu6t8SNfS61GRECtczLa3sMCyyEF2EUUcYZjsRFwo+n/Cf/AATJ/wCCbfgLxVpnjrwL/wAE+fgfout6LqEN/o2s6T8J9HtrqwuoXEkVxDLHbB4pUdVdXUhlZQQQRXuFFABRRRQAV8If8FU/+Deb9gz/AIKn6jqXxX8Y6RqHgX4sXWnxwQ/Erwm4El00FvNFarqFm58i+iQyRFmAiunjtYYVuo40Cj7vooA/kC/4KXf8G3X/AAUc/wCCcn9reP8A/hAv+FofDLT/AD7j/hYHgC2kuPsNnH9qk83UrHBuLDZbW3nzS4ls4fNRPtbscV8AV/f5XwB/wUu/4Nuv+Ccf/BRv+1vH/wDwgX/Cr/ibqHn3H/CwPAFtHb/bryT7VJ5upWOBb3++5ufPmlxFeTeUifa0UYoA/kCoroPiz8LfHfwO+Kfib4KfFLQv7L8T+D/EF7oniPTPtUU/2S/tJ3guIfMhZ45NksbruRmVsZUkEGufoAKKKKACiiigAooooAKKKKACiiigAooooAKKKKACiiigAooooAKKKKACiiigAooooAKKKKACiiigAooooAKKKKACiiigAooooAKKKKACiiigAooooAKKKKACiiigAooooAKKKKACiiigAooooAK/Z7/gyo/Zo/4WB+3F8Tv2o9V0nw/e6f8ADb4fxaVZf2jB5l/Zarq9z+5u7PMZWPFpp+pQSSB0cLdhAHSWTb+MNf1m/wDBpn+y/wCKv2cP+CP2geJ/GL6hDd/FbxhqfjWHStT0V7KSwtZUg0+1A3sTPFPb6dFexzhUV471NoZQJHAP0vooooAKKKKACiiigAooooAKKKKACiiigD8Ef+Dxz/glZqOvadpX/BVv4M+HNPSLRdPttC+Myxz29tJJG1xFb6VqYjESvdS75/sUztK8gjXT1SIRQzOn8+Nf3ufFn4W+BPjj8LPE3wU+KWhf2p4Y8YeH73RPEemfapYPtdhdwPBcQ+ZCySR74pHXcjKy5ypBANfxZf8ABWf/AIJ++Kv+CZf7efjr9lLWINQl0TTtQ+3+BNZ1BXZtW0C5JksrjzWggSeVUzbzvEgiF1bXMaEiOgD5wooooAKKKKACiiigAooooAKKKKACiiigAooooAKKKKACiiigAooooAKKKKACiiigAooooAKKKKACiiigAooooAKKKKACiiigAooooAKKKKACiiigAooooAKKKKACiiigAooooAKKKKACiiigDoPhP8LfHfxx+Kfhr4KfC3Qv7U8T+MPEFlonhzTPtUUH2u/u50gt4fMmZI498siLudlVc5YgAmv7rP2evgp4V/Zr+AXgf9nPwLqGoXeieAPB+meG9GutWlSS6mtbG1jtYnmaNERpSkSliqIpYkhVHA/hj/Z6+Nfir9mv4++B/wBozwLp+n3et+APGGmeJNGtdWieS1murG6juokmWN0doi8ShgroxUkBlPI/tN/4Ji/8FC/hZ/wVB/Y28L/tc/C3TP7I/tfzrPxH4Wm1WC7ufD+q277LiymeE/7k0TOsTyW9xbzNFF5oQAHv9FFFABRRRQAUUUUAFFFFABRRRQAUUUUAFfmh/wAHSf8AwTP079u//gnpffHDw9ren6V4y+AGn6t4v0681M3BjvdGSzMuq6cBE+xJZUtbeaOR4pD5lkkWYknllX9L68A/4Kxf8osv2lv+zf8Axl/6Y7ygD+IKiiigAooooAKKKKACiiigAooooAKKKKACiiigAooooAKKKKACiiigAooooAKKKKACiiigAooooAKKKKACiiigAooooAKKKKACiiigAooooAKKKKACiiigAooooAKKKKACiiigAooooAKKKKACvq//AII7/wDBVP4y/wDBKH9rjR/i/wCDvEeoP4E1rULOy+K/hC3gFzHrmjLL+8aOB5Yk+3QI8slrMZEKSMUZjDNPHJ8oUUAf3mfAH4/fBr9qX4NeHv2g/wBnz4haf4q8G+KtPF7oWu6Y5MdxHkqylWAeKVHV45IZFWSKSN45FR0ZR2Ffyhf8Guv/AAVc8d/sOftxaJ+yt4suvEGtfDL43eILLw+fDdjdxGHSPEl5c29tZawkUo+ltOI3iLwyLIwna0giP9XtABRRRQAUUUUAFFFFABRRRQAUUUUAFeAf8FYv+UWX7S3/AGb/AOMv/THeV7/Xh/8AwU28J+KvHv8AwTb/AGg/AvgXwzqGta3rXwP8WWGjaNpNk9zdX91No91HFbwxRgvLK7sqKigszMAASaAP4c6KKKACiiigAooooAKKKKACiiigAooooAKKKKACiiigAooooAKKKKACiiigAooooAKKKKACiiigAooooAKKKKACiiigAooooAKKKKACiiigAooooAKKKKACiiigAooooAKKKKACiiigAooooAKKKKACv7nP+Cfn7S//AA2R+w78Jv2o7nVvD93qHjn4f6Xquvf8ItP5lha6rJbJ9vtIsySMnkXYngaN3Z42hZHO9Gr+GOv6bv8AgzB/a81H4vfsGeN/2R/Ed7qFzd/BzxglxozSWFvHa22jayJriK2jkjIkmlF9barM5lUlVuYVV2UbIgD9jqKKKACiiigAooooAKKKKACiivL/ANr39tD9mD9gv4NT/H/9rj4v6f4L8KQ6hBYLqF7BNPJc3UxIjt4Le3SSe5lIV3KRI7LHFLIwCRuygHoHizxZ4V8BeFdT8deOvE2n6Lomi6fNf6zrOrXqW1rYWsKGSW4mlkISKJEVnZ2IVVUkkAV/Mj/wXR/4Og/in+2t/wAJn+x1+w7cf8Ix8EtQ26bqXjD7NPb674wtl81blMsw+xabc7kH2fyxcSxRYmdEuZrNfnD/AILj/wDBcf4y/wDBXr4yppelxah4V+C/hXUHfwH4DlmAknkw0f8AaupeWxSW+dGYKgLR2scjRRFi889x8IUAFFFFABRRRQAUUUUAFFFFABRRRQAUUUUAFFFFABRRRQAUUUUAFFFFABRRRQAUUUUAFFFFABRRRQAUUUUAFFFFABRRRQAUUUUAFFFFABRRRQAUUUUAFFFFABRRRQAUUUUAFFFFABRRRQAUUUUAFFFFABX3/wD8G3X/AAUu/wCHcn/BR3Qf+E/8Wf2f8Mvih5XhX4gfbL/yrOy82QfYdVl8y5ht4vstyV8y5m3+TZ3F9sUtIK+AKKAP7/KK+IP+Ddz9unWP2+/+CVHw++I/jzxn/bnjbwl5/g/x5eut40z39gVEEtxNds7XVzPp8lhdTTq7q81zJ9xg0afb9ABRRRQAUUUUAFFFFABX8aX/AAXa/wCCofir/gqN+3n4m+Iej+NtQvfhb4V1CfR/hHo0k7i1t9MjKRvqEcTwQPHLfvCLt/Nj89Fkht3d1totv7P/APB3d/wVT079nD9l+P8A4Jz/AAo8R6ha/EL4tafBe+KZrSC4hWw8I+dMkirdRyxjzby4tjamHEyParepMsfmwl/5kaACiiigAooooAKKKKACiiigAooooAKKKKACiiigAooooAKKKKACiiigAooooAKKKKACiiigAooooAKKKKACiiigAooooAKKKKACiiigAooooAKKKKACiiigAooooAKKKKACiiigAooooAKKKKACiiigAooooAKKKKAPYP2Ov2/P2yf+Cf8A47m+Iv7Hn7QniDwNqF3t/tO306ZJrDU9kU8Uf2yxnWS1vPLW5mMfnxP5TSF02uAw/oe/4Jo/8He/7G37TP8AZPwt/bn8Pf8AClvG1z5Fr/wkfmvdeFdSuW+yw7/tGPO0vzJpbiTZcq9vbwQbpb5mOK/mBooA/v8AKK/ji/4JR/8ABfP9uL/glNrEXhnwT4g/4Tv4ZS+TFe/C/wAYancyWFnCLxrmaTS2D/8AEruZPNuQZER4Xa4Mk0E7Rx7P3e/Zo/4O4v8AgkL8YPhZaeLPjp8SPEHwk8Tjy4tU8Ja/4S1LVNk3kRPLJbXWmW08c9sJXkiSSUQTP5LM0EQZcgH6f0V8Af8AEUd/wQo/6Pm/8xl4n/8AlZR/xFHf8EKP+j5v/MZeJ/8A5WUAff8AXn/7VX7S/wALP2N/2cfGn7Ufxr1b7J4Y8DeH7jVdT2TwRzXXlr+7tLfz5I43uZ5THBDGzr5k00aA5cV8gf8AEUd/wQo/6Pm/8xl4n/8AlZX5If8ABzz/AMF5/hn+3xp3g39lD9gn44ahrHwnTTzrHxC1Cys73TY9f1P7Ri10+e3vLSCcxWggFyMO8Esl5ExQSWcbAA/NH9vz9sXx3/wUA/bJ+IX7YfxFs/smoeOfED3dvpnmRSf2ZYRosFjY+ZFDCs32e0it4POMatL5PmON7sT4/RRQAUUUUAFFFFABRRRQAUUUUAFFFFABRRRQAUUUUAFFFFABRRRQAUUUUAFFFFABRRRQAUUUUAFFFFABRRRQAUUUUAFFFFABRRRQAUUUUAFFFFABRRRQAUUUUAFFFFABRRRQAUUUUAFFFFABRRRQAUUUUAFFFFABRRRQAUUUUAFFFFABRRRQAUUUUAFFFFABRRRQAUUUUAFFFFABRRRQAUUUUAFFFFABRRRQAUUUUAFFFFABRRRQAUUUUAFFFFABRRRQAUUUUAFFFFABRRRQAUUUUAFFFFABRRRQAUUUUAFFFFABRRRQAUUUUAFFFFABRRRQAUUUUAFFFFABRRRQAUUUUAFFFFABRRRQAUUUUAFFFFABRRRQAUUUUAFFFFABRRRQAUUUUAFFFFABRRRQAUUUUAFFFFABRRRQAUUUUAFFFFABRRRQAUUUUAFFFFABRRRQAUUUUAFFFFABRRRQAUUUUAFFFFABRRRQAUUUUAFFFFABRRRQAUUUUAFFFFABRRRQAUUUUAFFFFABRRRQAUUUUAFFFFABRRRQAUUUUAFFFFABRRRQAUUUUAFFFFABRRRQAUUUUAFFFFABRRRQAUUUUAFFFFABRRRQAUUUUAFFFFABRRRQAUUUUAFFFFABRRRQAUUUUAFFFFABRRRQAUUUUAFFFFABRRRQAUUUUAFFFFABRRRQAUUUUAFFFFABRRRQAUUUUAFFFFABRRRQAUUUUAFFFFABRRRQAUUUUAFFFFABRRRQAUUUUAFFFFABRRRQAUUUUAFFFFABRRRQAUUUUAFFFFABRRRQAUUUUAFFFFABRRRQAUUUUAFFFFABRRRQAUUUUAFFFFABRRRQAUUUUAFFFFABRRRQAUUUUAFFFFABRRRQAUUUUAFFFFABRRRQAUUUUAFFFFABRRRQAUUUUAFFFFABRRRQAUUUUAFFFFABRRRQAUUUUAFFFFABRRRQAUUUUAFFFFABRRRQAUUUUAFFFFABRRRQAUUUUAFFFFABRRRQAUUUUAFFFFABRRRQAUUUUAFFFFABRRRQAUUUUAFFFFABRRRQAUUUUAFFFFABRRRQAUUUUAFFFFABRRRQAUUUUAFFFFABRRRQAUUUUAFFFFABRRRQAUUUUAFFFFABRRRQAUUUUAFFFFABRRRQAUUUUAFFFFABRRRQAUUUUAFFFFABRRRQAUUUUAFFFFABRRRQAUUUUAFFFFABRRRQAUUUUAFFFFABRRRQAUUUUAFFFFABRRRQAUUUUAFFFFABRRRQAUUUUAFFFFABRRRQAUUUUAFFFFABRRRQAUUUUAFFFFABRRRQAUUUUAFFFFABRRRQAUUUUAFFFFABRRRQAUUUUAFFFFABRRRQAUUUUAFFFFABRRRQAUUUUAFFFFABRRRQAUUUUAFFFFABRRRQAUUUUAFFFFABRRRQAUUUUAFFFFABRRRQAUUUUAFFFFABRRRQAUUUUAFFFFABRRRQAUUUUAFFFFABRRRQAUUUUAFFFFABRRRQAUUUUAFFFFABRRRQAUUUUAFFFFABRRRQAUUUUAFFFFABRRRQAUUUUAFFFFABRRRQAUUUUAFFFFABRRRQAUUUUAFFFFABRRRQAUUUUAFFFFABRRRQAUUUUAFFFFABRRRQAUUUUAFFFFABRRRQAUUUUAFFFFABRRRQAUUUUAFFFFABRRRQAUUUUAFFFFABRRRQAUUUUAFFFFABRRRQAUUUUAFFFFABRRRQAUUUUAFFFFABRRRQAUUUUAFFFFABRRRQAUUUUAFFFFABRRRQAUUUUAFFFFABRRRQAUUUUAFFFFABRRRQAUUUUAFFFFABRRRQAUUUUAFFFFABRRRQAUUUUAFFFFABRRRQAUUUUAFFFFABRRRQAUUUUAFFFFABRRRQAUUUUAFFFFABRRRQAUUUUAFFFFABRRRQAUUUUAFFFFABRRRQAUUUUAFFFFABRRRQAUUUUAFFFFABRRRQAUUUUAFFFFABRRRQAUUUUAFFFFABRRRQAUUUUAFFFFABRRRQAUUUUAFFFFABRRRQAUUUUAFFFFABRRRQAUUUUAFFFFABRRRQAUUUUAFFFFABRRRQAUUUUAFFFFABRRRQAUUUUAFFFFABRRRQAUUUUAFFFFABRRRQAUUUUAFFFFABRRRQAUUUUAFFFFABRRRQAUUUUAFFFFABRRRQAUUUUAFFFFABRRRQAUUUUAFFFFABRRRQAUUUUAFFFFABRRRQAUUUUAFFFFABRRRQAUUUUAFFFFABRRRQAUUUUAFFFFABRRRQAUUUUAFFFFABRRRQAUUUUAFFFFABRRRQAUUUUAFFFFABRRRQAUUUUAFFFFABRRRQAUUUUAFFFFABRRRQAUUUUAFFFFABRRRQAUUUUAFFFFABRRRQAUUUUAFFFFABRRRQAUUUUAFFFFABRRRQAUUUUAFFFFABRRRQAUUUUAFFFFABRRRQAUUUUAFFFFABRRRQAUUUUAFFFFABRRRQAUUUUAFFFFABRRRQAUUUUAFFFFABRRRQAUUUUAFFFFABRRRQAUUUUAFFFFABRRRQAUUUUAFFFFABRRRQAUUUUAFFFFABRRRQAUUUUAFFFFABRRRQAUUUUAFFFFABRRRQAUUUUAFFFFABRRRQAUUUUAFFFFABRRRQAUUUUAFFFFABRRRQAUUUUAFFFFABRRRQAUUUUAFFFFABRRRQAUUUUAFFFFABRRRQAUUUUAFFFFABRRRQAUUUUAFFFFABRRRQAUUUUAFFFFABRRRQAUUUUAFFFFABRRRQAUUUUAFFFFABRRRQAUUUUAFFFFABRRRQAUUUUAFFFFABRRRQAUUUUAFFFFABRRRQAUUUUAFFFFABRRRQAUUUUAFFFFABRRRQAUUUUAFFFFABRRRQAUUUUAFFFFABRRRQAUUUUAFFFFABRRRQAUUUUAFFFFABRRRQAUUUUAFFFFABRRRQAUUUUAFFFFABRRRQAUUUUAFFFFABRRRQAUUUUAFFFFABRRRQAUUUUAFFFFABRRRQAUUUUAFFFFABRRRQAUUUUAFFFFABRRRQAUUUUAFFFFABRRRQAUUUUAFFFFABRRRQAUUUUAFFFFABRRRQAUUUUAFFFFABRRRQAUUUUAFFFFABRRRQAUUUUAFFFFABRRRQAUUUUAFFFFABRRRQAUUUUAFFFFABRRRQAUUUUAFFFFABRRRQAUUUUAFFFFABRRRQAUUUUAFFFFABRRRQAUUUUAFFFFABRRRQAUUUUAFFFFABRRRQAUUUUAFFFFABRRRQAUUUUAFFFFABRRRQAUUUUAFFFFABRRRQAUUUUAFFFFABRRRQAUUUUAFFFFABRRRQAUUUUAFFFFABRRRQAUUUUAFFFFABRRRQAUUUUAFFFFABRRRQAUUUUAFFFFABRRRQAUUUUAFFFFABRRRQAUUUUAFFFFABRRRQAUUUUAFFFFABRRRQAUUUUAFFFFABRRRQAUUUUAFFFFABRRRQAUUUUAFFFFABRRRQAUUUUAFFFFABRRRQAUUUUAFFFFABRRRQAUUUUAFFFFABRRRQAUUUUAFFFFABRRRQAUUUUAFFFFABRRRQAUUUUAFFFFABRRRQAUUUUAFFFFABRRRQAUUUUAFFFFABRRRQAUUUUAFFFFABRRRQAUUUUAFFFFABRRRQAUUUUAFFFFABRRRQAUUUUAFFFFABRRRQAUUUUAFFFFABRRRQAUUUUAFFFFABRRRQAUUUUAFFFFABRRRQAUUUUAFFFFABRRRQAUUUUAFFFFABRRRQAUUUUAFFFFABRRRQAUUUUAFFFFABRRRQAUUUUAFFFFABRRRQAUUUUAFFFFABRRRQAUUUUAFFFFABRRRQAUUUUAFFFFABRRRQAUUUUAFFFFABRRRQAUUUUAFFFFABRRRQAUUUUAFFFFABRRRQAUUUUAFFFFABRRRQAUUUUAFFFFABRRRQAUUUUAFFFFABRRRQAUUUUAFFFFABRRRQAUUUUAFFFFABRRRQAUUUUAFFFFABRRRQAUUUUAFFFFABRRRQAUUUUAFFFFABRRRQAUUUUAFFFFABRRRQAUUUUAFFFFABRRRQAUUUUAFFFFABRRRQAUUUUAFFFFABRRRQAUUUUAFFFFABRRRQAUUUUAFFFFABRRRQAUUUUAFFFFABRRRQAUUUUAFFFFABRRRQAUUUUAFFFFABRRRQAUUUUAFFFFABRRRQAUUUUAFFFFABRRRQAUUUUAFFFFABRRRQAUUUUAFFFFABRRRQAUUUUAFFFFABRRRQAUUUUAFFFFABRRRQAUUUUAFFFFABRRRQAUUUUAFFFFABRRRQAUUUUAFFFFABRRRQAUUUUAFFFFABRRRQAUUUUAFFFFABRRRQAUUUUAFFFFABRRRQAUUUUAFFFFABRRRQAUUUUAFFFFABRRRQAUUUUAFFFFABRRRQAUUUUAFFFFABRRRQAUUUUAFFFFABRRRQAUUUUAFFFFABRRRQAUUUUAFFFFABRRRQAUUUUAFFFFABRRRQAUUUUAFFFFABRRRQAUUUUAFFFFABRRRQAUUUUAFFFFABRRRQAUUUUAFFFFABRRRQAUUUUAFFFFABRRRQAUUUUAFFFFABRRRQAUUUUAFFFFABRRRQAUUUUAFFFFABRRRQAUUUUAFFFFABRRRQAUUUUAFFFFABRRRQAUUUUAFFFFABRRRQAUUUUAFFFFABRRRQAUUUUAFFFFABRRRQAUUUUAFFFFABRRRQAUUUUAFFFFABRRRQB//Z;fontFamily=Times New Roman;sketch=0;fontStyle=1" vertex="1" parent="1">
          <mxGeometry x="1238.22" y="557" width="73.56" height="70" as="geometry" />
        </mxCell>
        <mxCell id="0gGLNNwoWwdXebhI30fq-60" value="" style="edgeStyle=segmentEdgeStyle;endArrow=classic;html=1;strokeColor=#080808;strokeWidth=1;dashed=1;fontFamily=Times New Roman;sketch=0;labelBackgroundColor=#ffffff;fontStyle=1" edge="1" parent="1">
          <mxGeometry width="50" height="50" relative="1" as="geometry">
            <mxPoint x="1000.22" y="748" as="sourcePoint" />
            <mxPoint x="1028.22" y="712" as="targetPoint" />
            <Array as="points">
              <mxPoint x="1000.22" y="712" />
            </Array>
          </mxGeometry>
        </mxCell>
        <mxCell id="0gGLNNwoWwdXebhI30fq-61" value="" style="edgeStyle=segmentEdgeStyle;endArrow=classic;html=1;strokeColor=#080808;strokeWidth=1;dashed=1;fontFamily=Times New Roman;sketch=0;labelBackgroundColor=#ffffff;fontStyle=1" edge="1" parent="1">
          <mxGeometry width="50" height="50" relative="1" as="geometry">
            <mxPoint x="910.22" y="858" as="sourcePoint" />
            <mxPoint x="938.22" y="822" as="targetPoint" />
            <Array as="points">
              <mxPoint x="910.22" y="822" />
            </Array>
          </mxGeometry>
        </mxCell>
        <mxCell id="0gGLNNwoWwdXebhI30fq-62" value="" style="edgeStyle=segmentEdgeStyle;endArrow=classic;html=1;strokeColor=#080808;strokeWidth=1;dashed=1;fontFamily=Times New Roman;sketch=0;labelBackgroundColor=#ffffff;fontStyle=1" edge="1" parent="1">
          <mxGeometry width="50" height="50" relative="1" as="geometry">
            <mxPoint x="830.22" y="968" as="sourcePoint" />
            <mxPoint x="848.22" y="932" as="targetPoint" />
            <Array as="points">
              <mxPoint x="830.22" y="932" />
            </Array>
          </mxGeometry>
        </mxCell>
        <mxCell id="0gGLNNwoWwdXebhI30fq-63" value="" style="edgeStyle=segmentEdgeStyle;endArrow=classic;html=1;strokeColor=#080808;strokeWidth=1;dashed=1;fontFamily=Times New Roman;sketch=0;labelBackgroundColor=#ffffff;fontStyle=1;" edge="1" parent="1">
          <mxGeometry width="50" height="50" relative="1" as="geometry">
            <mxPoint x="1090.22" y="637" as="sourcePoint" />
            <mxPoint x="1108.22" y="601" as="targetPoint" />
            <Array as="points">
              <mxPoint x="1090.22" y="601" />
            </Array>
          </mxGeometry>
        </mxCell>
        <mxCell id="0gGLNNwoWwdXebhI30fq-64" value="" style="endArrow=classic;html=1;strokeColor=#080808;strokeWidth=1;fontFamily=Times New Roman;sketch=0;labelBackgroundColor=#ffffff;fontStyle=1" edge="1" parent="1">
          <mxGeometry width="50" height="50" relative="1" as="geometry">
            <mxPoint x="270.22" y="662" as="sourcePoint" />
            <mxPoint x="499.22" y="1002" as="targetPoint" />
          </mxGeometry>
        </mxCell>
        <mxCell id="0gGLNNwoWwdXebhI30fq-65" value="" style="endArrow=classic;html=1;strokeColor=#080808;strokeWidth=1;fontFamily=Times New Roman;sketch=0;labelBackgroundColor=#ffffff;fontStyle=1" edge="1" parent="1">
          <mxGeometry width="50" height="50" relative="1" as="geometry">
            <mxPoint x="958.22" y="1002" as="sourcePoint" />
            <mxPoint x="1254.22" y="672" as="targetPoint" />
          </mxGeometry>
        </mxCell>
        <mxCell id="0gGLNNwoWwdXebhI30fq-66" value="EfficientNetB0 as Encoder" style="text;html=1;resizable=0;autosize=1;align=center;verticalAlign=middle;points=[];fillColor=none;strokeColor=none;rounded=0;rotation=55;fontFamily=Times New Roman;sketch=0;labelBackgroundColor=#ffffff;fontStyle=1" vertex="1" parent="1">
          <mxGeometry x="263.22" y="797" width="150" height="20" as="geometry" />
        </mxCell>
        <mxCell id="0gGLNNwoWwdXebhI30fq-67" value="Decoder" style="text;html=1;resizable=0;autosize=1;align=center;verticalAlign=middle;points=[];fillColor=none;strokeColor=none;rounded=0;rotation=-45;fontFamily=Times New Roman;sketch=0;labelBackgroundColor=#ffffff;fontStyle=1" vertex="1" parent="1">
          <mxGeometry x="1120.22" y="822" width="60" height="20" as="geometry" />
        </mxCell>
        <mxCell id="0gGLNNwoWwdXebhI30fq-68" value="" style="rounded=1;whiteSpace=wrap;html=1;fillColor=#dae8fc;strokeColor=#6c8ebf;fontFamily=Times New Roman;sketch=0;labelBackgroundColor=#ffffff;fontStyle=1" vertex="1" parent="1">
          <mxGeometry x="298.22" y="1072" width="30" height="60" as="geometry" />
        </mxCell>
        <mxCell id="0gGLNNwoWwdXebhI30fq-69" value="" style="rounded=1;whiteSpace=wrap;html=1;fillColor=#f8cecc;strokeColor=#b85450;fontFamily=Times New Roman;sketch=0;labelBackgroundColor=#ffffff;fontStyle=1" vertex="1" parent="1">
          <mxGeometry x="449.22" y="1092" width="140" height="30" as="geometry" />
        </mxCell>
        <mxCell id="0gGLNNwoWwdXebhI30fq-70" value="" style="rounded=1;whiteSpace=wrap;html=1;fillColor=#e1d5e7;strokeColor=#9673a6;fontFamily=Times New Roman;sketch=0;labelBackgroundColor=#ffffff;fontStyle=1" vertex="1" parent="1">
          <mxGeometry x="689.22" y="1077" width="10" height="60" as="geometry" />
        </mxCell>
        <mxCell id="0gGLNNwoWwdXebhI30fq-71" value="" style="rounded=1;whiteSpace=wrap;html=1;fillColor=#d5e8d4;strokeColor=#82b366;fontFamily=Times New Roman;sketch=0;labelBackgroundColor=#ffffff;fontStyle=1" vertex="1" parent="1">
          <mxGeometry x="803.22" y="1077" width="30" height="60" as="geometry" />
        </mxCell>
        <mxCell id="0gGLNNwoWwdXebhI30fq-72" value="" style="triangle;whiteSpace=wrap;html=1;fillColor=#f8cecc;strokeColor=#b85450;fontFamily=Times New Roman;sketch=0;labelBackgroundColor=#ffffff;fontStyle=1" vertex="1" parent="1">
          <mxGeometry x="948.22" y="1092" width="20" height="30" as="geometry" />
        </mxCell>
        <mxCell id="0gGLNNwoWwdXebhI30fq-73" value="" style="triangle;whiteSpace=wrap;html=1;rotation=-90;fillColor=#d5e8d4;strokeColor=#82b366;fontFamily=Times New Roman;sketch=0;labelBackgroundColor=#ffffff;fontStyle=1" vertex="1" parent="1">
          <mxGeometry x="1090.22" y="1092" width="20" height="30" as="geometry" />
        </mxCell>
        <mxCell id="0gGLNNwoWwdXebhI30fq-74" value="Mobile Net Block" style="text;html=1;resizable=0;autosize=1;align=center;verticalAlign=middle;points=[];fillColor=none;strokeColor=none;rounded=0;rotation=0;fontFamily=Times New Roman;sketch=0;labelBackgroundColor=#ffffff;fontStyle=1" vertex="1" parent="1">
          <mxGeometry x="333.22" y="1092" width="100" height="20" as="geometry" />
        </mxCell>
        <mxCell id="0gGLNNwoWwdXebhI30fq-75" value="Final Block" style="text;html=1;resizable=0;autosize=1;align=center;verticalAlign=middle;points=[];fillColor=none;strokeColor=none;rounded=0;rotation=0;fontFamily=Times New Roman;sketch=0;labelBackgroundColor=#ffffff;fontStyle=1" vertex="1" parent="1">
          <mxGeometry x="589.22" y="1097" width="70" height="20" as="geometry" />
        </mxCell>
        <mxCell id="0gGLNNwoWwdXebhI30fq-76" value="Attention Block" style="text;html=1;resizable=0;autosize=1;align=center;verticalAlign=middle;points=[];fillColor=none;strokeColor=none;rounded=0;rotation=0;fontFamily=Times New Roman;sketch=0;labelBackgroundColor=#ffffff;fontStyle=1" vertex="1" parent="1">
          <mxGeometry x="694.22" y="1097" width="100" height="20" as="geometry" />
        </mxCell>
        <mxCell id="0gGLNNwoWwdXebhI30fq-77" value="Residual Block" style="text;html=1;resizable=0;autosize=1;align=center;verticalAlign=middle;points=[];fillColor=none;strokeColor=none;rounded=0;rotation=0;fontFamily=Times New Roman;sketch=0;labelBackgroundColor=#ffffff;fontStyle=1" vertex="1" parent="1">
          <mxGeometry x="835.22" y="1097" width="90" height="20" as="geometry" />
        </mxCell>
        <mxCell id="0gGLNNwoWwdXebhI30fq-78" value="Max Pooling" style="text;html=1;resizable=0;autosize=1;align=center;verticalAlign=middle;points=[];fillColor=none;strokeColor=none;rounded=0;rotation=0;fontFamily=Times New Roman;sketch=0;labelBackgroundColor=#ffffff;fontStyle=1" vertex="1" parent="1">
          <mxGeometry x="968.22" y="1097" width="80" height="20" as="geometry" />
        </mxCell>
        <mxCell id="0gGLNNwoWwdXebhI30fq-79" value="Transposed Convolution" style="text;html=1;resizable=0;autosize=1;align=center;verticalAlign=middle;points=[];fillColor=none;strokeColor=none;rounded=0;rotation=0;fontFamily=Times New Roman;sketch=0;labelBackgroundColor=#ffffff;fontStyle=1" vertex="1" parent="1">
          <mxGeometry x="1120.22" y="1097" width="140" height="20" as="geometry" />
        </mxCell>
        <mxCell id="0gGLNNwoWwdXebhI30fq-80" value="F&lt;sub&gt;1&lt;/sub&gt;" style="text;html=1;resizable=0;autosize=1;align=center;verticalAlign=middle;points=[];fillColor=none;strokeColor=none;rounded=0;fontFamily=Times New Roman;sketch=0;labelBackgroundColor=#ffffff;fontStyle=1" vertex="1" parent="1">
          <mxGeometry x="339.22" y="537" width="30" height="20" as="geometry" />
        </mxCell>
        <mxCell id="0gGLNNwoWwdXebhI30fq-81" value="F&lt;sub&gt;2&lt;/sub&gt;" style="text;html=1;resizable=0;autosize=1;align=center;verticalAlign=middle;points=[];fillColor=none;strokeColor=none;rounded=0;fontFamily=Times New Roman;sketch=0;labelBackgroundColor=#ffffff;fontStyle=1" vertex="1" parent="1">
          <mxGeometry x="408.22" y="537" width="30" height="20" as="geometry" />
        </mxCell>
        <mxCell id="0gGLNNwoWwdXebhI30fq-82" value="F&lt;sub&gt;3&lt;/sub&gt;" style="text;html=1;resizable=0;autosize=1;align=center;verticalAlign=middle;points=[];fillColor=none;strokeColor=none;rounded=0;fontFamily=Times New Roman;sketch=0;labelBackgroundColor=#ffffff;fontStyle=1" vertex="1" parent="1">
          <mxGeometry x="429.22" y="692" width="30" height="20" as="geometry" />
        </mxCell>
        <mxCell id="0gGLNNwoWwdXebhI30fq-83" value="F&lt;sub&gt;4&lt;/sub&gt;" style="text;html=1;resizable=0;autosize=1;align=center;verticalAlign=middle;points=[];fillColor=none;strokeColor=none;rounded=0;fontFamily=Times New Roman;sketch=0;labelBackgroundColor=#ffffff;fontStyle=1" vertex="1" parent="1">
          <mxGeometry x="489.22" y="802" width="30" height="20" as="geometry" />
        </mxCell>
        <mxCell id="0gGLNNwoWwdXebhI30fq-84" value="F&lt;sub&gt;5&lt;/sub&gt;" style="text;html=1;resizable=0;autosize=1;align=center;verticalAlign=middle;points=[];fillColor=none;strokeColor=none;rounded=0;fontFamily=Times New Roman;sketch=0;labelBackgroundColor=#ffffff;fontStyle=1" vertex="1" parent="1">
          <mxGeometry x="554.22" y="912" width="30" height="20" as="geometry" />
        </mxCell>
        <mxCell id="0gGLNNwoWwdXebhI30fq-85" value="A&lt;sub&gt;5&lt;/sub&gt;" style="text;html=1;resizable=0;autosize=1;align=center;verticalAlign=middle;points=[];fillColor=none;strokeColor=none;rounded=0;fontFamily=Times New Roman;sketch=0;labelBackgroundColor=#ffffff;fontStyle=1" vertex="1" parent="1">
          <mxGeometry x="840.22" y="872" width="30" height="20" as="geometry" />
        </mxCell>
        <mxCell id="0gGLNNwoWwdXebhI30fq-86" value="A&lt;sub&gt;4&lt;/sub&gt;" style="text;html=1;resizable=0;autosize=1;align=center;verticalAlign=middle;points=[];fillColor=none;strokeColor=none;rounded=0;fontFamily=Times New Roman;sketch=0;labelBackgroundColor=#ffffff;fontStyle=1" vertex="1" parent="1">
          <mxGeometry x="930.22" y="762" width="30" height="20" as="geometry" />
        </mxCell>
        <mxCell id="0gGLNNwoWwdXebhI30fq-87" value="A&lt;sub&gt;3&lt;/sub&gt;" style="text;html=1;resizable=0;autosize=1;align=center;verticalAlign=middle;points=[];fillColor=none;strokeColor=none;rounded=0;fontFamily=Times New Roman;sketch=0;labelBackgroundColor=#ffffff;fontStyle=1" vertex="1" parent="1">
          <mxGeometry x="1020.22" y="652" width="30" height="20" as="geometry" />
        </mxCell>
        <mxCell id="0gGLNNwoWwdXebhI30fq-88" value="&lt;div align=&quot;justify&quot;&gt;&lt;span&gt;&lt;sup&gt;F&#39;&lt;/sup&gt;&lt;sub&gt;5&lt;/sub&gt;&lt;/span&gt;&lt;/div&gt;" style="text;html=1;resizable=0;autosize=1;align=right;verticalAlign=middle;points=[];fillColor=none;strokeColor=none;rounded=0;fontFamily=Times New Roman;sketch=0;labelBackgroundColor=#ffffff;fontStyle=1" vertex="1" parent="1">
          <mxGeometry x="890.22" y="902" width="30" height="30" as="geometry" />
        </mxCell>
        <mxCell id="0gGLNNwoWwdXebhI30fq-89" value="&lt;div align=&quot;justify&quot;&gt;&lt;span&gt;&lt;sup&gt;F&#39;&lt;/sup&gt;&lt;sub&gt;4&lt;/sub&gt;&lt;/span&gt;&lt;/div&gt;" style="text;html=1;resizable=0;autosize=1;align=right;verticalAlign=middle;points=[];fillColor=none;strokeColor=none;rounded=0;fontFamily=Times New Roman;sketch=0;labelBackgroundColor=#ffffff;fontStyle=1" vertex="1" parent="1">
          <mxGeometry x="980.22" y="797" width="30" height="30" as="geometry" />
        </mxCell>
        <mxCell id="0gGLNNwoWwdXebhI30fq-90" value="&lt;div align=&quot;justify&quot;&gt;&lt;span&gt;&lt;sup&gt;F&#39;&lt;/sup&gt;&lt;sub&gt;3&lt;/sub&gt;&lt;/span&gt;&lt;/div&gt;" style="text;html=1;resizable=0;autosize=1;align=right;verticalAlign=middle;points=[];fillColor=none;strokeColor=none;rounded=0;fontFamily=Times New Roman;sketch=0;labelBackgroundColor=#ffffff;fontStyle=1" vertex="1" parent="1">
          <mxGeometry x="1075.22" y="687" width="30" height="30" as="geometry" />
        </mxCell>
        <mxCell id="0gGLNNwoWwdXebhI30fq-91" value="&lt;div align=&quot;justify&quot;&gt;&lt;span&gt;&lt;sup&gt;F&#39;&lt;/sup&gt;&lt;sub&gt;2&lt;/sub&gt;&lt;/span&gt;&lt;/div&gt;" style="text;html=1;resizable=0;autosize=1;align=right;verticalAlign=middle;points=[];fillColor=none;strokeColor=none;rounded=0;fontFamily=Times New Roman;sketch=0;labelBackgroundColor=#ffffff;fontStyle=1" vertex="1" parent="1">
          <mxGeometry x="1118.22" y="527" width="30" height="30" as="geometry" />
        </mxCell>
        <mxCell id="0gGLNNwoWwdXebhI30fq-92" value="&lt;div align=&quot;justify&quot;&gt;&lt;span&gt;&lt;sup&gt;F&#39;&lt;/sup&gt;&lt;sub&gt;1&lt;/sub&gt;&lt;/span&gt;&lt;/div&gt;" style="text;html=1;resizable=0;autosize=1;align=right;verticalAlign=middle;points=[];fillColor=none;strokeColor=none;rounded=0;fontFamily=Times New Roman;sketch=0;labelBackgroundColor=#ffffff;fontStyle=1" vertex="1" parent="1">
          <mxGeometry x="1188.22" y="527" width="30" height="30" as="geometry" />
        </mxCell>
        <mxCell id="0gGLNNwoWwdXebhI30fq-93" value="Original Image" style="text;html=1;resizable=0;autosize=1;align=center;verticalAlign=middle;points=[];fillColor=none;strokeColor=none;rounded=0;rotation=0;fontFamily=Times New Roman;sketch=0;labelBackgroundColor=#ffffff;fontStyle=1" vertex="1" parent="1">
          <mxGeometry x="240" y="627" width="90" height="20" as="geometry" />
        </mxCell>
        <mxCell id="0gGLNNwoWwdXebhI30fq-94" value="Mask" style="text;html=1;resizable=0;autosize=1;align=center;verticalAlign=middle;points=[];fillColor=none;strokeColor=none;rounded=0;rotation=0;fontFamily=Times New Roman;sketch=0;labelBackgroundColor=#ffffff;fontStyle=1" vertex="1" parent="1">
          <mxGeometry x="1255" y="627" width="40" height="20" as="geometry" />
        </mxCell>
        <mxCell id="0gGLNNwoWwdXebhI30fq-95" value="" style="edgeStyle=segmentEdgeStyle;endArrow=classic;html=1;labelBackgroundColor=#33FF33;strokeColor=#080808;strokeWidth=1;fontFamily=Times New Roman;opacity=50;dashed=1;fontStyle=1;entryX=0;entryY=0.367;entryDx=0;entryDy=0;entryPerimeter=0;" edge="1" parent="1" target="0gGLNNwoWwdXebhI30fq-96">
          <mxGeometry width="50" height="50" relative="1" as="geometry">
            <mxPoint x="820.22" y="742" as="sourcePoint" />
            <mxPoint x="1118.22" y="582" as="targetPoint" />
            <Array as="points">
              <mxPoint x="820.22" y="582" />
              <mxPoint x="1028.22" y="582" />
              <mxPoint x="1028.22" y="584" />
            </Array>
          </mxGeometry>
        </mxCell>
        <mxCell id="0gGLNNwoWwdXebhI30fq-96" value="" style="rounded=1;whiteSpace=wrap;html=1;fillColor=#e1d5e7;strokeColor=#9673a6;fontFamily=Times New Roman;sketch=0;labelBackgroundColor=#ffffff;fontStyle=1" vertex="1" parent="1">
          <mxGeometry x="1110.22" y="562" width="10" height="60" as="geometry" />
        </mxCell>
        <mxCell id="0gGLNNwoWwdXebhI30fq-97" value="A&lt;sub&gt;2&lt;/sub&gt;" style="text;html=1;resizable=0;autosize=1;align=center;verticalAlign=middle;points=[];fillColor=none;strokeColor=none;rounded=0;fontFamily=Times New Roman;sketch=0;labelBackgroundColor=#ffffff;fontStyle=1" vertex="1" parent="1">
          <mxGeometry x="1100.22" y="542" width="30" height="20" as="geometry" />
        </mxCell>
        <mxCell id="0gGLNNwoWwdXebhI30fq-98" value="" style="shape=image;verticalLabelPosition=bottom;labelBackgroundColor=#ffffff;verticalAlign=top;aspect=fixed;imageAspect=0;image=data:image/jpeg,/9j/4AAQSkZJRgABAQAAAQABAAD/2wBDAAgGBgcGBQgHBwcJCQgKDBQNDAsLDBkSEw8UHRofHh0aHBwgJC4nICIsIxwcKDcpLDAxNDQ0Hyc5PTgyPC4zNDL/2wBDAQkJCQwLDBgNDRgyIRwhMjIyMjIyMjIyMjIyMjIyMjIyMjIyMjIyMjIyMjIyMjIyMjIyMjIyMjIyMjIyMjIyMjL/wAARCAITAi4DASIAAhEBAxEB/8QAHwAAAQUBAQEBAQEAAAAAAAAAAAECAwQFBgcICQoL/8QAtRAAAgEDAwIEAwUFBAQAAAF9AQIDAAQRBRIhMUEGE1FhByJxFDKBkaEII0KxwRVS0fAkM2JyggkKFhcYGRolJicoKSo0NTY3ODk6Q0RFRkdISUpTVFVWV1hZWmNkZWZnaGlqc3R1dnd4eXqDhIWGh4iJipKTlJWWl5iZmqKjpKWmp6ipqrKztLW2t7i5usLDxMXGx8jJytLT1NXW19jZ2uHi4+Tl5ufo6erx8vP09fb3+Pn6/8QAHwEAAwEBAQEBAQEBAQAAAAAAAAECAwQFBgcICQoL/8QAtREAAgECBAQDBAcFBAQAAQJ3AAECAxEEBSExBhJBUQdhcRMiMoEIFEKRobHBCSMzUvAVYnLRChYkNOEl8RcYGRomJygpKjU2Nzg5OkNERUZHSElKU1RVVldYWVpjZGVmZ2hpanN0dXZ3eHl6goOEhYaHiImKkpOUlZaXmJmaoqOkpaanqKmqsrO0tba3uLm6wsPExcbHyMnK0tPU1dbX2Nna4uPk5ebn6Onq8vP09fb3+Pn6/9oADAMBAAIRAxEAPwD5/ooooAKKKKACiiigAooooAKKKKACiiigAoorWsLDZiaYfN1VT29z70m7FRi5OyCwsNmJph838Knt7n3rSCL6D8qBSisG7nVGKSshQo/urTwq/wB0flTQDmpVB9KTLSHIi5+6Pyqby067V/KmqP8AOamAqbloYEX+6v5UoiUnlV/IVIAO9OCg9c0rspIj8peyr+VHlL/cX8qmwKMUrlEYiTP3V/KneWn9xfyp+KKm47DREv8AcX8qURqT9xfyp4x3pwFF2Owzyk/uL+VBhX+4v5VLg+tG2kNJEaxKD9xfyp3lIf4V/KpVWnbTn/69FwsRCBf7i/lS+Qh42r+VThaXZ60XCyK32ZOyr+VHkJjlFH4VYIx3oAp3YtCAQIOiL+VNMKf3F/KrBX0NN20XY7FcQoT9xfypfJj/ALi/kKnKntTcHPNFx2IxEn9xfypyxIf4F/KpNvHH86VR6ikFiMQp/cX8hQYU7Iv5VKRigqKLhYj8lMcqv5UoijH8C/lTwO1KFouKxEY0/uL/AN80CJP7i/kKm2460u3P/wCuhsLIrmJf7i/kKaYE/uL+VWStJii4WKhhUfwL+QpREmPur+VWCtJjB60XFYreSndF/KkMKf3F/KrJXNIAadxNFbyU7IPyFZ+p6RHfRfLhJl+42P0PtWzs96QoKpSa1IlBNWZ5vNDJBK0UqlXU4INMruNW0ePUYcrhJ1HyP/Q+38q4qaGS3maKVCkinBU11QmpI4KtJwfkMoooqzIKKKKACiiigAooooAKKKKACiiigAooooAKKKKACiiigAooooAKKKKACiitewsNmJph8/VVPb3PvSbsVGLk7ISwsNmJph8/VVPb3PvWjTsUmOawbudUYpKyAYpwFAx3B/KjPpSKHhe/NSr6VEMetSKaTKROpxUg556VCnJ5NS5qSkPXPrUig1EvWp0XPU0mWhdtLj1FOAxS7RnNIoYFzShRT9tGKRVhuPainhc0u0CkAgHFPCZpB6VIoJ6UDG7CDxUgUnrShSaeBSEMK4oC59qko5NACYxxim4BNBHbj8abgg8UXCwhwD0pMeooYkUmSfai47DsYpAAT3pgcZ608OOmaQxSKTGKCwFLwaY7CgZpdmTSqfenqB/+qgBAuKNvtTiMUmDmgA2etG2nYNOxkdKQWIivrTcD3qfyyRTSmD0oFYhKADNG2pSOKRU9qYWIiueoo2e1WCuKBjHSgGiuU4pu2rOM0FKdxWKu0e1ZesaNHqcOVwlwg+R/6H2/lW4UBqMx01Jp3RMoKSszy+aGS3meGZCkiHBU1HXe6xo0epRZGEuEHyP/AEPt/KuGmhkt5nhmQpIhwVNdkJqSPMq0nTfkR0UUVZkFFFFABRRRQAUUUUAFFFFABRRRQAUUUUAFFFFABRRRQAUUVsadp+zE8w+fqq+nufek3YqMXJ2EsNP2YmmHz9VU9vc+9aODT/wpuM9BWDdzqjFJWQYNPHSkAJ604CpKE49KTB7U8ClIx60DGDNPU4PP8qTFKvvQMmVh6GnjmowfwqVRx1qSkPjUlsiraAVXiB6cVbWPHU1LNEKFJpwSngZHrTtp9KVykRkYpNpqXaTS4qblEeKU4x0qTae1NYGgdhqmng46YoVfelwaAHDPelPH/wCqm8j1prMcUgsOMgHrTDMc96jwzGnCIkUFKIGYfWm+aPpS+VzT9gpXHykBlPrUbOzHC5PtVnygegq1bwhY8sOTRcfKUUs5pMHOAam+wMOr5P0rUUADgUuCTzQFjKNlKOhz+FIEZOGGK1mXA4qOSPevv70BYpKvvUigDvTNpjbaakA4607kjtoNNwQafto4PcUikhuTilCZpRnPTipAOaYxgGKGGe1PIPpS7TjI5oJsQbOevFOCEHg/hUoBpP4ueKAECeoo2HFSil2+9ArFfbzRj2qZlxzmmhcjNFwsR7c01k/zipSCPejG4cUXFYqMlY+s6Kmpw5GEuEHyP/Q+38v577Ke4qIjmqjJp3RMoKSszyqeCW2meGZCkiHDKe1R16DrWix6pDkYS4QfI/8AQ+38v58FPBLbTvDMhSRDhlPauynUU0eXWoum/IjooorQxCiiigAooooAKKKKACiiigAooooAKKKKACiitawsdmJph83VVPb3PvSbsVGLkwsLDZiaYfN1VT29z71p5ptPBFYt3OmMUlYM04DNN709TmpKQUufelH1oxg9aRQoHvS4x3zRxml7UDG4J9qMHNOGc9qULikMUVKgBqIHn/69Too78UmNFiIVZUZqOIYHFWFzUM1ihQCKeAaFXJp6ipLGlfSkxjrU23imlc9RSKRFj3padt9qChJ6UDsR/nRuA7VIVwKjPPWmKwu761GTuNK3HSnRjPWkNIeiECnbSacqkdMkUHIpGiQzHPOKmSANgnpTY0LNnFXkjIHNIdiJYAKeFwcZqTyz2PNNdMeooAagcE7ug6VKnzUq4VPmb86Mqp60XCwmBu5NMKNuLZGPpTzhqOAMUXCxWkhDtkio/KZDkcirflg0nlgdM0rhykQ54PX3pPK9eKeYsHI6elT7EGMHORRcVrFcLx1NICwOKndMDIpqrnrVXCw0rgZPApygeuaesXJ549KcUweDTuSR7Ae9BQVIUzzikOBSuOxD0fA6U/GKkGCacU5yKQ7EajNMaPB4qfHNDJkdvyoCxAUBHOajwQeDxUzJjpTCKLhYiYZFQstTlaa6jHQ0xNFYisjW9Fj1OHIwlwg+ST+h9v5fz2yB/kUxl46U4ycXdGc4KSszyqeCW2meGZCkiHDKe1R16BrOix6pDkYS4QfI5/kfb+X8+Dngltp3hmQpIhwyntXdTqKaPJrUXTfkR0UUVoYhRRRQAUUUUAFFFFABRRRQAUUV2PhTwtDd3UU2quYYXGU5x/k0m7FRi5Mw7CxC4mlHzfwqe3v9a0sU6eKKG6ljiYsiuQpPcUzFZSvfU6IpJWQtOA/zimjrTulSULj/ADing81ETmnrwKQyQtmkpM0bsdqRQ/IpVBJ6UwZPTNSquKRQoXFLg4p6qT2pzA7eD+lAEODnAq3EpxVYZ3Veh5HWpZaRMnSp41OP/rU2MY71Oq5qGapCqvvUqL7Uir2z+tSImO9SWkNIpMHtUxjNJtIFIpEBXHWjbUhHNAXFAyMpnvURQ+tWTn60wr3wadxWK7KQKkhAI5/nSvjBGKSI4OKQ0iYCmvwRk0/OBUYyzUmWiZFJwRVpOmO9QpxUyuFNK5aRJtJXpzRtzjeufpxTS5Y0qpzxSuPlBkQrgjApuQT04FS+XxyaeEA96Vw5SLAIpBH3zU+Pb9abtweKLhYRRgUhyT0p2DnJPFLhaB2IirdKgdGB6/pV4gYyM1XkAzTRDRGp45pxBHSgdKME0ySRDnqKft+lMUZHHWnjJpisMZef/rUmKkINM/GkUNINPXrTSD60uBigdhxHvTelAbHWh8EZzQKwhphz70A8U0mgdhSM+tRunFP/AA/SkzxRclorMCKY3SrBG6omXHWmIrsufSsfWdGj1OHIwlwg+R/X2Pt/L+e4VNRMtVGTTujKcFJWZ5bPBJbTPDMhSRDhlNR13utaPHqUWRhLhB8j/wBD7fy/nw00MlvM0MyFJEOCprup1FNHk1qLpvyI6KKK0MQooooAKKKKACiitSxsthEsq/N/Cp7e9JuxUYuTFsbHYBNKvz/wqe3v9a6fUr9JtItLdXAkjB4Xg4+tZHSmnnrWV2zoSSVkIAc55NSDFNHtTulJgh2cUhNITSCkUPFOGaav0p1IoWk3c9KTqeKnjizzikUh0Y4qwqHFCrgVKijHJpDGhaa4qY4A6ioWHOaRQxFJYcGtCIcACq8CnOR/Or0K/wCc1MmaRRIiH3/OrCDsP502NOKlVQKzNkh6inhCfWhQKkWk2VYNpxRj2p4HFIR70h2Izz60w9elSFB9aYygdKBpDSB+P0pMZFSDkc4pCAOlMRXfOeRTQhPQmpu/WloHYgbKjmnQAM2c8UMOf/rVPCAo4qWyoosIFxTlj5yKQHjrUqKT3/SpbNUhUHOMc1IF9qBGR3qRF55qbl2Igu/rUojOOMEVKYwBwKQDAweKVxqIwKc0jLz0qcLxkH9Ka69xTuS0VpG2jufaprqwu9OmVL2Foi6hlz3z71HLHvAyDkEGrGpXkmpXMUjkqscYQA8/rTuTYqlT6fjUDhlGT0+lT5A6VHdS70VBTJZEpGKCMHpSxpj3p23nvTIGr1p5JpR6EU4L6UxDdpxyePwpApBqXOO1IVyOKVykhmDnpTSKTOGx3pxOe9FyrCFaTOKTkHnpRxQIAe1RsD604k56UEZpgRZxQM1JgUlITI2BpucipdoqN/ancmxEy4pjrx3NSdeOKaRTJKrrWNrGkR6lFkYS4UfI/wDQ+38q3WWoWXFXGTTujKcFJWZ5hNDJbzNFKhSRTgg0yu71jSItRhyCEuFHyP8A0Pt/KuHmhkt5milQo6nBBrtp1FNHlVqLpvyGUUUVoYhRRV23ttoEknXsPSk3YaVySytdpEsg+b+FT2rTR3xwnFQQnins5H0rJs6IpJDyxbrSGkByKWkMUClJA/8A10gYAU3OTQMcASeKkVaRVxTuPWkUh2KTHPBoC5+lSonNSXYI4z3/AJ1ajQj6UiKBU6ClcpCqme1O2+1PAGOaUkY6ipY0Qvx/+qmgZPalY81JEvNFy0iWJewxV2ND0zmmwx8ZxzVhV9hWbZqkPQVKijNIi1Mox2qGapAFp+COlCrk8YqQLSYxnPpSFfWpsAc0AZoHYhKCo2HoKsHI7UxlJHai4WIMtnBFKQMU4pQACcZpjsRhR60oUnt+dSbG9OKAu3pnNJhYrsuDjFLHnoTzUrZ74/KosESAipZaRbj6cmplQZBqOIZOTVlGJlwOlS2bJDxHkccGnhdo+YGnkMORUbSkN1GPpSGkPG3rnH60pIPAPNG6MyxqzAKzDLY6VbmsB/baWEc67JCNkm3jn2osJuxXABGGwTSsMLgVLqFldaTqJs7lSehVsY3CkWQOMEYPpQ1YlSUldFVgcHmoNpJqzIMSEVXd9gOKEwYxuASc8VWID/N2pDI5clz8vpipYyD901ojCT1HKuBSsh6jFSiPIzmnZB47UMaIB1owQcmptgzTWQg8UrjsR/Kx5pTgdKDkU35gef5UDDbk5pCADTs80h69aBjSGBznikZfen7c+tNbI9aYhm3vmnAZ4p3UUgOKTAjZSKTFPJ57U1sigTGFcd6awwKVs0jZxTFYgPXig/WnEc0gBpktEZGaiZasEf5xUTLg1SJaKTjBrJ1fSY9Rh3DCTqPkf+h9v5VtyL7Zquwq4yad0Y1IKSszzeWKSCVopVKupwQaZXZ6tpSX0eRhZ1Hyt6+x9q4+WN4ZWjkUq6nBB7V2wmpI8qrTcH5GzeeGtV0OO0uNTsJrdblA8XmKRwen4+3b600j5a1fEXiEazBYwxm7KwLhvtD7sHj7vPArKGXwqqWPoKm7Y0rOw6IHHBpXLf5NNiOMgjkdRTpFO3PakWOQnbTs+tMQgrxQaBoXOTgVOi4GcVHCg61KWxxmpZSFLZ6U5EzzSxrk5NWQBjpUtlpEax1Kq47UtKufT9akoeu4VMhJ7VEufSp1A7UikKBTWNP4HeozyelJlJCKuTV2GLcKjiiLY44rQjTauAMVDZrFDo1x3qdB3pi4HU5qVPaobNUh69afg9sU1RmpAPU0i0KKkXimAD1/WnAf5zSKsOPJ60uMdKTAzzS49KQWEI9aQjilIGeRQQQOKAsN2gioWQbsA1MATTSnzZ6U7jSBV2ilIz3pygHvTWIBxRcLETpxxULRnqBzVrG40/ysc4pFIbbPuj/2hVvDcbR1qnjy23KKuQz7gMVLLTJ1JbIPQUySNRERg4NSB3LfLwO9P8suQaktFfyV8lQwLHHrV2yldrT7DGN0gcSRuDypFHl5Ugc4qxYLHFKTOh2sMAg42n1pxeoSsyK7nv7+5Et/MHlQYH7sL/KolUA9M/jUkqNFM4LBxnIYelRMQOvH1pNkqKSsiOf1qoVBzU8xzwBTNo2EU0TI1PB2gRa5rf77mCAbmUEjJ+oqx46t7az8TrHaRhAIwXUdye9aPgDUbTS7fVJrmQIVw3IPTn0rlLrUH1XVbi+lH+sb5cnoK05kl5nnuM54jySBRnpQUAOTipFwBQ7YqbndYiZc0EcU8jIyKTLAYOaVx2ImCgdKZx/k1OajI56GncVhoAzTGTJqUqCRjikZcGncYxUHcUjDinBSD7fSkZfai4EZGBTQKlxgUwjB7/lQIQYJpGBpcZzz+lJgUCsRkjvTSBSyDJoAyOSKYEDKSaZip2+lMI5/+vQiWiM9aYwGOlSsPrTD1qkS0V2XIqsVxkdqvMKrSLg00zNopyKOtZWo6MuqbZIysc68MTwGFbcg4qpuaKUsOcjGDWik1rE5qsFJWOcuhAXVosDjkCrmmXMFndRyyorhT0NUJFCucdKAR6V1J2OIfcvHLqE8sQ2xu2VHpSyxg2+9W5B5FR96Hztxk4pPe4CRcRingZNMTpjNTRgZoY0SKNq06NQzdaYx5xzVy2jAGSKhmkSSKMAZqTilyAPaoywzxUmg8lR35pUBJ601Rk1Mi85pFJEioO9SgAdxTAB1IpCM1LZVhWPOM5p0KFnoih3HPatCKMIO1S2axiEa7e1TLQFHapAAKhmiQqrUwHpUajPpUigj0pMtIkQYFPABpEz3Ap+4Z6frUlIMDtThgdqVQD6U4qMdqRSE4PWlzx1poHNIx9qQxeOwprHjFPB4puef/r0BYTdximYcnpUgxmpBzQMhGRQACeacy/N0p+AF7Uxjlj4zml8s560+NjgVMQSM1LEVinGGqIxsjZU1dKnHrSDB60gRFFPjAfirIkOcxnNV5FVqqNazfaI1jJxI2M+lI1RrCVlHHBPtTmlO7BOR7Umv+GbrRRaM12ssU45IQjb+tT+JZ7K2trSz0+VZVx8zgHg/jzzQlchVFJ6EE033doI45J5qrNPnG0ZNQyLPBs+0QsocZUlutSjA9KW2hVxE3E5Pepgg25DAnPTHNM3BSOeKlVcjIpiZFJAHBGSufSkWHy1wDU23vinbM80ybEKuQaVnGfT8amCKDyv60rIPTA+tFxld5OlNcVO0a49qjwo+lAyIHBpTyOlObA6D9aTH+c0xBRjPNOC57UuO3FFxWGFe4/lUJB3d6sBD2pCpFK4EJGOmKYRUxO3r0phwT8uKpBYiGeeajY4NTNx0FRtnNMCI9aTn3/Onlcmlx9KBMjA/zmmMOam24NRt1pksYRxTGFS44prD1zQQyu2KhZeeKtMBUTL9apEsquvrVKaPJ/8Ar1pMuarSLz0qkzNo4x2LHNIp7UDpTQcNXaeUSGkbpwaO1Ic4pAIpx61ZiK87umKqKxB6VIWzxTY0WIRulI6j1rSX5R1qrbARxAd6WST3rNm0SVpfQ0LlvWoEy1W4oyBzxUs0SJY1yP8AGrC/KKZGhqdYSeoNRc0SGAlzxmpoodx71IkYXtxVlI8jj+VQ2WogkeABiplXFCoFqQDntUmqQKueopePSkLdulOUD+9SLSHL6YNPAyeDSBc9KkVfSpLsKoPqalCZFNC4708UihQuB1o3FfWjnPTikNIdhdxNJikOc9aORSYwwQeacB7004PfFPAxQFhFBz/9anNwOv6UhGaTA9aAEKs3OQalReMN1pF471MvXpTAdGFBxnmpiAOxpikA5pWz1B/SpCwpOPpTcgnrTVY5IOKd/KkVYYQWPSmBXLbcY9DUpwOQadu+XigYk7TTIFmkLAcAelVYZWstRt7ry/MWJwxUnrzVo/MMUCJuvGPcUJ2YW0NrxH4ng1uzihhsRG4JbeSDtz6cVjIvy8jmkO0HoM0u4cdKJPmd2RCCgrIdhR2FO/h4FNGM9akAOPagpjVJPOf0p55HH8qbtBOM/pSDCnH+NADsjODmgrgZAzRS/j+lBNhpc46frULkkZxU+0H+ID8KjlUg8c0FEBoB55pTnFNySadxjxndT1OTimhO9OwCOOtK4rAfpTGB/Cl+bPP8qQg9zx9KAsNbIGMZqMqdvQ/nTmznjp9KaS2OnFUhEXPOaibrU7KKiKZ7imAzv1pcZ9qRk44ojBI5/lTuIdtI96jK5PP86lwB/wDqphAzxQJkbDFNI+tSHk9aTGf/ANVMlohdQRUTDHvU7jFRMP8AOaaIZXIAqCTrmrD5qF+fSqM2jhAaa3WjNIa7jxyRDxStj1qENinBhQFxDw3FSRcuM1E+DzToXK0MaepoFiEOBnAqNCXPTio4/MlbCjiti0sgoBbrWcnY6Iq5HBAeDV+KH1FTLHgdB+FSBCehrJs3ihFiA7VOqCkAK1KqmouaJCqoqQYHagZPWnipLSAgetKDik98UdeaRokOHJqRFJNRovPWrCjHakUkOC4PWnj2oUZp2D2pMpB1HegAigK2ckU/rU3KsNyc9aU0FSe9KFIpFWG8Z6UuARS55pwoYWGhV9P1p30/nTgoxxTwppDsR4J6UKPm5pzAg0Ae4qkFiQAe9SgAjvUKB88GpgGHXmpY7DjyOlIIz6frRx3FKMseKQWFxj+H9aCc8YoEbA5zTwpI5NICMAYo2YOe1SlT2/U0w8dP50DEOaX58d6QAsc9KeVJHXmgZJHZSy2ktyD8sZweKrhVYZzVzSLaG5vvJu5dsJHv1/CoDEsc0iK25VYhWHcU3smRfWwzgCnBuKCuORzTGYelIdh+7Jxg0hOfrTcHFC+2c0wsJgn60vOeaU8nGcfWgLj1pBYd82O9RyEsOakGcf8A1qY1Fx2IghpQOf8A69LjHIpPmzQNIcfelUDPGKAT3qRQT3oE0MIYdKiI7kEVOVY//qprA96YiAg9aaTzUgUjtTWGe2KaBkbcjpUdS9P/ANVNKAnOaYEXX1poXB61KYuc5oCY75oER85oZcjpzTyDmkKk/wD16ZDISuD0NMYEc81MRj0pp/CmiWQsDULZGassOOKhz2JpksgP1qu+c96tOKgZAT/9aqMzzw5zS5rtLqU6f4O1WfWEjbVNanjlgiMYVlXJzKOOAckDpXUabaW0OueF/D4ggNjeaQ0txE0YLSOysSd2M5JVcc8Yruqv2abfTbzPJjT5oqSe6ueQNz/+umFiD1ru/hXOIPiLFb+VDKjpKpaRA2BtJ49Dx/OsTw5rdrotxrD3cDyC6tJoUCgHYx6ZzWnLezWzMXu12OeaQip7SJ7h8DgVqaj4XmsbXTLqKdLm01CISJKoI2t/EhB5yp4z0NX7S0EMarwSBUVPdNKK5tRLOyEajPJrRSIA8UqIMVIoArnbO1IcqjPNSBfShBUgHPQ1DNYoRUHXNSEDFKAMU4DipNEhirj1p4XPOacEPWnBcdqktIZs460AHOMin4JNOVeaTLSBFGe1TqnPWmotWUXHrSuWkNCinAD1p3/AakUcVNyrEQBPXp9adtA54NTBc9qCtTcqxDtB7YpdtSbD6UoGOB/KgCEIc04RDNT4IHSkBB7GlcZHsweaXbjpUgUnt+tOC0XHYiwD2oGOmKmwB2zSYBNO4WEQehp4DZ4PFOA2ilDcZJpDEJA6nmkChjkUrcgc0oweM0h2FU+tJnnrQE+b1/ClClTz0pDsGOOv6UnJ/iz+FSBc/wD66XaFHei4WGBO9Lz0pwOakJVkAxyKQWIPKzz0+lIqjftHU0/eQ23HXvSCNuuKYrDgoHemvED3oUHJBFO2D/IouFiHy+etDoQuRSsoLcU/bxyKAsRLwOtKQp70rIOgpAuBj+tFwaAYI4OaYcE1IExUbdcYoBCY+tKFUmnYyMU7bjt+OadwY0Badj+6adtz0z+dKEIFIRGBk8ikK8+n41J/nrTST60xWIzxRtVvUfQ0/ae+aawOaYWI/KX1NNZQBx/OpCKAPWgCLHHWkK09wf8AIpgJpisNKZ64/Koypz1qY9aQ9aESyEg+tR5wetTsaaRxVEsgY+9QOMGrLA1C6kjgVRDKzdelRE896lcHNQsSPaqIOH1rW7rXL/7Xd7A4RURIxtRFAwAo7dKuW3jPWLa2ghR4jJBE0ENw0eZURuoDdfXHpk1j2lpNfXkNpAN0szBVUVb1zSk0TV5LBbtbny1BeRUK4YjlcH0PFeg4LqjwIztLli9UO0LWrrw7q8WqWYjNxHnHmruU5BByMj1qtaapLZS3Bjht5PtKNG6zRBwA3cZ6H3FVHNSWkJknXjIppuOqKjfmOpGoXeo21nHctGI7SIRQxxptVQO+PU9Se9W0X5eeaq26BEAq4vSsJSbd2dlOEYqyHKMdDUq1EDz0FTJz6D6VmzaKJlHvUig+opqKalAJrM2SFAz2Bp4UY5oVTnFSBWFSaIAtBBz0p4UinYxSLSIttOUHNPxT0XmpLSHIvrxUuAvehE75qTFJstIjVC7jB4qwq+tLGgUdOtPKjH/16m5VhuKNpBpQMd6k20AREMTRtxU2MD/69Mxk5pNjSEC571II89KFqQH3qblWIynalRMGpcDqaMimIZsz3/SmeWQev5VKvB61MAMZPNAivhhjpj0pwQN2AqyiqwzQFHQUmx3I/KAHSk8nOCP51IY2LZzgU4oexqbgQmPnpSbgDg8GpSDmnbBjJFFx3IQo7UeX34qZV9M0EH0ouO5DsxTSuOe1Tbcc0xmJIwpx3pgRlAOc/pTlYhd2cinuNy4I4pBChTbux+NAC/fGeKhkjJHDYqbY0fy9R60jfdwaQyukJXvmpAw6E0/cPWjcOlO4EYIPb9ab3/8Ar0/Bz0pfmpiI8+1Jjd3qUAk9KQrzyKQEP3Wp2c08qD3FHl8UXAaMHqadtxyM0oTnnNSbDjgmgREVb0phRuozUw9zSEf5NMRDzjnP5U1hgVLhT2P4Gkxj/wCvTuBCBmmtx0qYqCMZxUbxnHy9KAImNIpBPU0hHOMfpUipgc0CFH1pMZp4HHf8KYTg9vxqkQyN1A//AF1Ax+lWGfjtUDkE8VRLIWzUZJqZqhcUyWROc1A5BPSrLciq5681RD3MJvEOh6X481LVrC3d7chhbCMALvIxu2novUgcY4qr43vdPvH0eeykgklfT4zcmIDh+eGx/EBjNcnSEnFeq5XTTXmfPWXtJVLavQXIJ6VqaXGMjOay1BLYHNbtl8iqaykzaktbm1GAAOtSA4qskvSpAx7GsGzriSqwZulW48AdaqR9atx4B6VmzeJZXGKmQ+hqEEEVNEMjjj8ag1SJVANSBaRRgVIp2j/69SapCYIFKq0YLGnbOalstITbk8VKkeBSKD9anCkDgipKQijtUirTlX1NSKOaRaE2kjFPGQMGlzTgmeakYgGfrSgECnbeODScjpQ2UkNKZGTSDGcZqaNeOf508AelTcexGFpwXvyKU59KB1oAOMcmkAz0NONIELHimgsOVR3qbaduRTVjCjnpU6BccUMlkKoSAWHNO8o5yBip+c9KRiB3xUEiKpAphfcxXHT1qRWKjlgfak3Bh83GfWgYgVevHHvQQCDg8U8RgHcM/SgqT93rTuBEsLZyT8v0pxUg9MipCoxzTM4PA4pBci3ZY4p4x0IFO255xzSAc9f0p9B3uIUDj2pu0DpUuMDAP51HnJwTSAjO7dgjikY4PtUx6cHNRbcnJ6+lA7kRRd2c/hSbB6VMykjNNK59qEURhWHWjIB6j86lHpyfxpXUYzii4iIDHSkOeozTyOM/zpQmRnNFxjAMjpSYxzUpUH0xSbeKYiLr3NOyQO5p20+tNxjpmgYmM84ANMIOak696X8aYiEDJ5NLtPvTyAe9N79sUCGsoxzn8aZ0qQgClAwOKYEW3IzmoyMdxVk9M8flUbDcaZJFg00pzzUmMGkzTQmQOMHFV3jccgZq42KZj3qkQyqUY9QKidCB2q0y81E4pklMnFQMMnirLjrULgVRNjyekP1FOwKYTzXpnzhNbAmQHtWxCucYqlY2/mgEDitZItnFZzZ1Uo6EqBgOtSruHekRT68VJHt3/NyKxZ0xRYiPAq5Fiq+2EqhiJDH7wNWkAAxWcjeJYUZxVmPOKrxYxVuMe9QzZIcoA607HpTgc9qcBipNEgAIH/16VRk9aOGPpUyrgYzUlpAoAYVMAM8U1V71OqjqBUspCJz1H61Iq88Ucj2FPRealloTGG9qfk56frSgGnHOcnH5UmAY45NKI+eKT7x+tTKu1e/50ihjqAtNjJxzjNTbFcE96YYtrZoY0KVLL6U4KAOtLzgHNGN3ekJkZyTgilU4OM1IV5x3pnlHdkCqEPDgHB71KpBpgTjmpVwBipExp643D8qcI1YckkinKuB1pSOPlNIRC0SFgQTxUjIQvqO9H3Bk45o+YOAehoGJuBOB1pyEsvIwafgRt0xn1qQFjzSJZCiZyW5pyqoGOtPbG3pUZjOODx9KYhrsAcf1qMg546VIcjlhUZK+YMNQWhCPb9aQfLyR+tTBcjk8fSkKdhk/WgLkXVsjpSYDGnGPaOvNGCRjP6UAMIU/WggA+1Ls55zTmXGCOlA7jcjHT9aNoPSnMmRxQqHbg4zSC4YGOlMIyeDSknOOMUAYPXFMCPOTigA4qQlR1BzTMZ9qBjd3PvQR3/rRtOMkCnHgDJxTGR4JNIVZsjFSgDGQaXbk8dKBXIRGQPmpwQYz2pWBJ4p2DtoERYFGMjGf0qTaD6/iaNuBTJIduOKayY5GamZR15/OoxnkU0BXOT60hAK4qcjAOaiwM+lUJkRAVab1H/16kYEGou5poljGqGTpU/UZqGTpz/OqJKkh568VXep5uxzUB+tMnqeU7eOtNVcyKvqaQnmrFtGd4Zu3SvTb0PnYxuzYtUEMIFWlIxzVBZjjGKlSRm7YrCTO6KL3mADGamhG4+tV7eMu2T0rUiAUYyKzkzojEdHGcg5FW4kyfWmwxgnJq2kfcVmzeMRypjsamT61GOvpUoxipZokSDinDJqMHNTIuOalmiQ5QB161Mq5HrSIoPUVOqjt/OoLSHJHhcnr6U8D2oTnrT2OenNJlJAoyafwG/8Ar04DaOfyoHJqRi9e9CplsU4c09BtPIpAOVVQ9aU8dqVsIQR0NHVulAgwdvHekwcYxUrZVflpihv4jn8KAuIADTgM9OKY554FP37U5/WkA0qQacqHqSKFIbpUgA7mgBAozycfjUgI6ZpAVx8uaAwJz+lITJAoPemhNvFSLh1zShSBz1oFcaEIHNJGf3nOMU/KjrTTtLcfzoAVtrP2P40/6YFICBzgfnSMQ3Tg0CY1gdpBP04pGOQFzilKhVAzmh1BXvQNDDlFx1FBRWT7tOjBxkYIprbgcjGPpQO40ZBA/rTmIA605ST0oIAPSgCFQSTnp7U7ZSknPAP4U4Lu5xj60wuM+UcYP500hWYpmpSOKjDAk+tIYhwvy5/Wgj8aTnPt9KUHPFACfUfrUbDceCM/nU4A6ZprEA0DuV9jhucUHripGft/KoypLZoKuOjGAcHil2789/xoROOTinKpx1A/CgTYgTaeMikKkHdzT+npn60oODQSQ5B55GaUpkcEU5xk9R+VG3b70AN2EDHNIOBg/wCFOI9QRQMD3qhMikHy/KcH3qLGOSRmrJ/Cq8vynP8AWmAzGCeeKY2CcipmKqoGf1qM7aaERnnjNQngnrU5xnpUUg9OlUSyFj71DIT0zU56VA+KaJKsi/LjNQEdi1WJRzxUDdepqiTzOC1UKGY1OIlz8vNWW0aeMZ3EipYbWSPqM12udzy4UrEEdq7cnj61aitscDmraIc8irscYbGAKzcjojArQWzCr0VsBgnrViK2OAc5NTrBjsazbN4wGxoFFSq3YGnCDjmpo7cDsKhs1SGLxTwGJqdY1U807aM/LUXNEhirU6Ang0iRmpghBFJspIkVcCpAMDNMAI6jNSAepxUlWHL64zT19cYoUjOBUoX0qShFBNP25oVCDn+lOLY7ZqWAoGOP6VJyF4qNcnkVMpb0oExAc8EUrjJwOlKG5pQC3J6UIkYFI6UgDZ5qbbgcGoyCeuRTHcTBDcH9KQ7jT+F4zzTHP+zn8aAETIPWpMkHpxTQFcYwQfrT48LwDn8aQ2IBzkCp41BTofzoXn/9dSKFC7cGkTcFj2jjijeQQOtIV296cDkc0EiHLHnpTlGKTqf/AK9KCW+lADjjGe1MDKDQOGx1HpSr8xIHBFAAy7yPWlK7RyKYC3mE5GB7UzzCWPpQMkwMDHFIfl600EtJxjFK7noRjHegBi4Zmx8uO5qSNe5bNRBlOccn61JGcrnBFMGO3EHG3A9agdzuyuKlZhTcAHI60gIwX5ZhgfSgEbvb60/zADhh+tL5nGCmBQMjbHY80Be9OwrD0/GjPH/16AuNZSVzTFBHank5GKYxx2oGgwJD6GnbNvUikiRgd7dCOKcSeeaAEJz9KTOKUAEUAEuAKBCck8Uuw7s/1p7HB6GmkMTkdaBClV7jn60wk9sflTgpBLOaDtYdx+FAiLDMfm6fSm7frinhcMT2+lMbG6mMGAIzUDcVMAQOf5VDJkOCPxpgIxUgdz9aYVDdOKflc8DH41EcM2M1SACgB5NQvxxUrYqJxxTJZA49TUD8VO+PX9ahfB71SJK0hJ//AF1Wc5NWXBqswIPU1S2JMn7M3biozblTzWq1uz9Kje1J7/pWlzFQM4RgGrMSY6GpDAV65pQnoTRcpRJo1PXdVhA3XOarJkH5hVxDxxU3NUh+1iMmnrxwaQHNSIp3dKkocseetTJGAKaCQealAz3qWy0hAD2NSIOeaULjvTgue9QXYVVBPFShVFIvAwKcE5zQ2OwojJ5BqRdy9aTgdKkQcVICBeckk0/bjnNOBHQ08KD060hMTaRTgrfWkwd3tTgSvSlcQBSOcfrTwfWk3EjOMGlRT1JpkgwPbpTGBqVhjnOKaxzQCGhCR1o2EHPWkIwaQqWGAaCkIfp+tATB44NPClaUnac0IBBIV4LA1MhyOajKoxDMcEU/Jzii5LH5+b2qTGR15qKM84JxipGYAYb8OaRI0k+tAXavHOaC2eBxTl3Acn9KBjBtzk/lTg3fOKcrgg8UZHamITIxnsab5eelLj3pFGc4pDFCAdTzSsG6dVoYoowSKRWyCCfpTAbjDYVaPm+tG4BsAjJpApDZyD+FAyQAY5puRj5Rmmt6E0gHHBHWgQg9/wAqCjE57U9Qc0owD1pBcTbtXmk2gD0FK3zHA60gRh94g/hQMay+/FR7AWGelTMO/FNBxQMSTOzCc4pu2QkHFOyM9RSgigBjHHBFKgIUnFKyk9KcUwBz+lAETZyKfwe9BcgYppIPegQyUlQec01WGz6U1n2McnIpsbZPBoHYduLfdNOIGMUHj2pmzPJOBTAQkD/9VRSgtg1MQo75/GmE5GRTEQnpz1puMnNPkBbHrUbDtnmmA0owJOKiZiOo5qRyR3FRv8y5qiWQsetQtUhU1AxzxmqRJE/Q5qnIeetW2PBHNVHOTzTAnCEjJoMS9s5qbbiniPNUyUimYmHam+Xn1q+QQME8VHsU9qVykipsGeaeEA+7U2wDoR+VOVSfpRcqwkYOMYqwoOOlMVGzjtU6r2zUtlJCqoJ5qUACkVRT44stuJwBUspAECnJU81KFz2NPGPwpR7UixNhH/66cFb0py7ulO+cdqkBo3DjFSKpbtSr71Io9KQMQJgcU9AR1oAqQIQM0iGRnJ6U5U7k04ZY9KfgCkK4BM0HPSgUoB3dRj6UxC4YrTfLGenNSHjjApuCpORzTAjIb0oIbH3eaD5meBxSFmHXpQMayuRwMGkCMPenIHOc9KCuaYCYOPegE45PT2o5Ucc03AJz3qQJVPPBqYE45HFQK2PTNOLseuMUxNCuMuGB49KXcOBmmBgxx1pcjO3+tIBTwwxzUwOR1FQkFTxxSjk9qAJN/bqKaq7Ce+aFIz7Ue60CF2juP1puMZ9PanAsR/8AWpjP8204oAVBjnipcd6jUZFAfsTTAMjo1BUAdQaRgGI6jFPxkcUAM3N2xUingbhzSDHSnc470gYxoyW4odtvDdKRnYnngj2pcbh82D+lADCpYArShcHmnEbR8o49KjL5bH9aBjmAB6c/Wmjr0P507tikAxQApyRTAOuf505iT0pQDj/61ADMA+/40xo8ZIqQjjimAEUAVpkyciiMeWD6098k8H9aaPvc0FCLknNPcnNLkIfkGaQtk80xDAxzjFMOR0pzE9KYwYcjGKYhrN/nNRuNwzUk3y7fpUOcZzVCIz0qNj8vFPK7ScHrUTthttNCZCSc81FJg9KlYcnNQyVQiFuuKpyZDVadvSqcnJ64pkmyEVBzyacWz6YpVXd/+qpQi4+bmhsaIQFPJpGUHpxU/lJ1BpQg+tItFXaPrSBR61OY+eOKYY3zgUirCqOMZqTAXnNQHcGwRViPGMd6LlJDuo4xU6DCgE1Gq85NSkjA4qWx2HDaKTODwcUnzHoP1qQDaASOaQwUsfu08Bsc09eFBzTwwIApANUDFTIMjjFMAy3A4qXaPTj61JLE8vnJFSE7fpQD6DH407qaRI3cVxgZzTxnqaFIBHYU4H1BxQIPlHWgxrgHOaHUAZAOach45piGjafrTSoBwal2gnNMdgpHvTATaO1NaMYyRmpRuI9KjJIyGamhjP4cCmhc9TTx9eKYS27hT+FMLibFB60mATjIp+GI5BppTI460mgGMo7mk3jPDDH0pqb8nOfxpBGu7k4PpQUTBlA6g04njOKjYICMdaUkkjmkIcHZ26gYpzN2HBpuQDjvTtufakIUsccdacpyKjIbsf0p4yBzTQD9wC0zg8imsynAHX61KLZ3jZx0HTjrQhbEefrTSO5OKApK809V4xQMAFZchhxSqQpwSKb04WnsoOCQaQh4wvNNMm7pRnimkZHFACuoIyTilVwq4BzTDlF5pFyTwOKQx+d3NIQPfNBwBSD6UwFP60qdTmmNzjg0qtjNACyEsxANBwo6io2OwZ5xSn5gDTARicjB4prAjk04nHFRStzikMNymhQMZz+FNU4zSeYRQOw4k84NNI4yaQtnpQSQKYmQtON+0HJ9KTzNwyCa2PC95bWcl7cXC8ovy57+1YsXLM/ZiSB6VfLpcyU3z8th0p/djNVyQ561ZkHFVWJBoRoIzc/4VC4BbNSY3c1G5wTTQmRSNiqztxU0hFVZGxVIlkTNjPNVZOTxzUzkVXfrVEnqC+B5MZF8n/fv/wCvWbq2gtpT26tcCTziQMLjGMf416GhyoNcz4uXdJYYPdz/ACrslRhyX6nl08VVdXlvoVR4IkPP25P+/Z/xrM1bw/JpkkC/aBKJTjITGP1r0RDla5vxYfnsecAOefy/wpTowVPmKpYqs63K9igvgeQjP25f+/f/ANeszWtDfR1iLXCy+YSBhcYwK9FjOUBFcr40AZbQ56Fx+gonQgqfMtyqeLrSr8jehyCjjt+VLtB70p46Um4A9a8657ZIq+9PwaarjpTtwzQAoTB61Y29MVF16U4ZHWi4iYcDFOGc9qhU1Ir8YzSuSyQHB56U8jJyOlRKdxwak9s4pCZJj1P6U4Djk1HkDg/zp/mLnB6fWkJj1UbeeacFTBH9ahVjk8cfWl3BTQKxMHXoKTdhsUwKr9M/nSKAr9f1oCxMXI4IppwR0pS4oCKxzVIkaN2evH0pNpZuelSEqv8A+ulRgw/+vQguRkYHXj6UzcCMVIdoOO9JhScVQXK5BLnBz7YpCzfjU0i4Py005Hb9aB3G7Tgnuaj2jqRj8am2seRikIIosFyEoM8dfrS5dcc09snp/Omj0YVNh3GCQl+SKlLfTFN2DNLgAUgG4XPB5+lSZJGKhZc9KN2xc9qYyTp3p8V1LGGj6qelRRksuRjBpVyGoEOGSfmJANO3bB1qIZZ+vFSYCnrUgKuclsjgelEe5jljxQCFbBIzTs9jQA7IPT+dMbIbg00jbyDx9KAdw3UgFZj60hOV4PNAYetNeQcbaB2HKMjrTCMNyaUyZHHFRMwA4pjsTbx07Uocg9sVBGN7BieB71NuxxQDQEc4OMGl/iNNPzUmQBzQIazHfzUTjLbufwp7tTCwPNBSFyCh5/CowDS/LmjGOaYwCnNABZgo5J6CjOOaN+0hl6g8UEsuRWrpazKFG9+1URDIrbSMYOK0rG5L5aVuB+tU5ZDJM7KPvNhRVoy1Qy42qoycVRcjOVOa7/SPB8E1msuogu78hQxG0fgawPF3htNEAvLbP2UnDLn7v4k1q6UlDnexzLGU3PkTOadjnrUbnI5NKpaZXkjUsiDLH0FQs4YZqLHTchf72M1VkJzU8rcE4/WqbNuNUhMY2SwAqGcFJCp6ipHOKryNzySaonqdhHJIcZdv++jUpndiAWJ+pqCPpTl+/UNstIn8+QdWb/vqnBi5G5ifqackBcA54pxjVOhqdSlYQSTK2Q7fnTZN7/eJOPU08A4pecYpXZWhAI1I+bNGxV6AfiaseXgZOKZjnnpSLTIQCemKeF3detPPHsKUHikx3GH0NOUY6GnAeopwAPtSC4xQc5p68mkbHrT0i6MelAhylhT1yTnBNLvYHABx61KrHPUYpEsQqMAGkAUdKXIYntimYycCgSHk8YNLtB4xim4HrzUqKOpNOwMVYQvORRtGc9aRyRjBGKaxbIA5FFhA3B3dqVZC44NKCenFOC9u1MTE8ztikVi2ece2KkVFDZ7U0qp+bFBIhb2zTcK3IODR/FtxxS7Qp6VVxkThiADnA9qduyADQvzMcKePenD6U0Ji9B1/KmMKDn8KMrQAw5I4pvlnqTTjzS5AHNSFyIgr0FG7saflcmgMc80DuN28cGnbMrzzSOTjJoUsy+1IaYAYGB+VMbHXJzSkBTzS7Qw7fnSGNj5Zj0pxIIORTiDjimFG9KQXGqApyD+tSKSeaiLY6mnBj1z+lFhjyx7UwuBwcCmvJjPrUe4leaQJE2Bjg/rTCueppoJxwaXn2pjEIwMCkzzin4Ug/MBikC55FK5Q9CQtIeuTmlFKPWmSNVj60MQeKcRzxTDjPWmA3aXB2gnHJqDJBqfzXjDBD97rkVCchcGixSFyTjFOLYGaj5HenZyKBMAc8mjdzj+tM3e5pAwz1piJC7AYU1f0RVk1e1WQjG8HFZbPlqmSb7PJFPGf3iNnGTVw3MqivFpHsS8AYrP17T11PRbm0cgBlyCe2KTRdVi1SxSVGBcDDqOxqLxI4/sOePzNhmxGD9SBXp3jKlrsfOcko1OV7nn2qXun6HZS6TZRrJJNEqyPuJ2t3OCK5XOEAzXW+OLGz0mw0+zhBNwT8xJJJGOvNci/3ccZrgatoe1hnePMyKQ/KapsevNWJXyMZqrIeP8A69CN2RsTiq0h56VMx4qtIeetUSdlEwPWp1xnivnKiuh4TzOBZn/d/H/gH01EWK8VKDnqM18wUUfU/MP7T/u/j/wD6dO78KU/cBxz6V8w0UvqX94P7T/u/j/wD6eY5TpUeMrjvXzLRR9S/vDWaf3Px/4B9NCMk47UpQLXzJRS+pf3h/2r/c/H/gH07xjpSMB6frXzHRR9R/vfgH9q/wBz8f8AgH06oGfX8adg7uTXzBRS+o/3vwD+1f7n4/8AAPqEZzUgf3r5aoo+o/3vwD+1f7n4/wDAPqZc85/nTgMV8r19J+FyP+ES0bsfsUP/AKAKxr4b2S5r3OjDY328+S1jUPFSo21OtMCkjkj8qep4IxnFcx2sQSbuCMe9GQaafmzt61EqyGT/AOtQCROCxPHFOJ7E03lUzmnh8jJpiaHqABkUmdwIxSBlcccU3cqE5oRDHtgLUJJIII+lP3oegpob5s9qYCKCB707AI5pC6scDg01xsGQM0wFBAJGaZJnBIBIpojDMHzj2pzE7SooAhjfdzjFPYkdKYhKHGMUjknqaQ7Dt+XAPWn4RiecFRnFRhSFyKULkZzSARWyMkc0u8KORSk7B0ppIbr+FAxQ+ab5m7IU9KRsDr0pFwAaGNDyTjrSEnHJyajIOeoxS570h2E+bByPoKRW28N3pHY9jn8KiD/N0pDSJHYDrSKQaXb5jc9/TimTW7Ry7AckjNZymk7FId346U/dgVBlkbawOaeSCM5pp3HYd+FO3e361GBxnP6U4VQDufenbyPWmhscZFO38UxMaZM8Udt2OKaqkFj2NCblBU4xmgBWfjkGmZBOac/PWmnpwaaEhGNMJ4pz8CoznFMdhitgkUm/NDMR3pmaYDsgdjUgYFarsWxTVlIPNMhlmO6ubGTzbeQow/Ki9u9Q1TbNczZ8s5XAxz17VEgM77R071NdyBIQi8VopO1jCVOLd2jLvLm4v7r7RdSb5BxnFV2P41I7fMagducA0ty0kloQSHnpVZ25qeVsGqsjiqRLI3PPWqkh55NTuwxVKVvm6VRDPNqKKK9U+cCiiigAooooAKKKKACiiigAooooAKKKKACiiigAr6S8LoP+EU0c54+xQf8AoC18219L+GM/8Ilox7fYYOf+2a1x43+Gd+W/x/k/0NYJsXpTQPyp+MjrTCGQk8V5h7YhIB6frRt+Yt0B4p6sxFI2/aTjmgZGVO3CnilUNjg0wPuJB60/IA4P6UDFEgHGRmnbQTnvUQOe1PEgH1oFYeVUDpn8aQsNvpTQS/Q0FmX3FO5Nhiq2/dkY+lTbs5BHFMEgIzSqR1FMTE5BxnimOPQ/pTnQsxz0qAsIzincEOKgjk80gHy8801nzwtG1gOQTSKHBdo4GaAc+lAbI4GD9aQ5HPP5UhDX5P8AhUbMRjFK5ccgcUvDAZ4zQUhqkMcE0rAr06fSmshQZH86awaQcUDF3YPrSs4qLaynvmk2u3JFIdhfMANMlcH7tPIA61GdpOKTKRJHIFIZiOKlmvPmWTaCQOKYoSJMnnpUbx723DpXDV1YxJbgTnOAD7U1W55FPMezBx1pTGx57VdGVnqO47AI5oXjoc01M08nFdQheMe9KrY4JpmR7UZoEPJANNJJOaCcc5zSFu+aYCk5zTMijcSKYWPpVWAc7ArUWcDmnZNRu4FCAjdhmo2YZ4PFJKQeajyCKYNjw3OKQ9CTTEJNPALnFUQy5Z5jQsRyelU7qYM55qSe42IFHXpWeWJ5PWmRYR2zzUJOaezccVCZCgOMc00JjLa2Ooava2QYL5sgBPoM10Hj3wdb+HLK1u7aQ4d/LYHPXHua5iO6ezvre8QfPE4YEe1dR8QPFlt4h0zT7e2b5lbfJz0OPoK3ppbs46vPzrl2OIfhM1JYaPJqiO6SbApx93NV5W+XjGKgS9lt8iN8A9qVjU83ooor0z54KKKKACiiigAooooAKKKKACiiigAooooAKKKKACvpnwuufCGjEMB/oMHH/bNa+Zq+mPDGR4Q0YjtYwcf9s1rjxv8ADO7Lv4/yf6GqCQDzzS7ty460KwYcrQdwzjivLPcGlgopwOR1zTSxxnr60oYEdaBjHQjpUJUhs9vepmfafvigsQM9aBohJ7E04KD0IxS8uemaXBAoAcEKLwePpQCx5HIpgJCmkTHGTTE0S445HFJ8qn/69LvXoDSM4BxTJsRyMw6HNNGTyRUhwx/+vSEAUxEZLA8YH4U7JIoO09aYdvpSKEbJIAI/EUkyMkgUHIx1xSMBUTl8ZzQNIkLLjqPypmCTx0qINnr1p4AYY3YpFWHkjHXNICWPWogqqRzzS7l3YzgUBYVhzUZPqcfhT2IQnkEVESrNnP4UFIC/qc1G0igcmrTeS1psJw26lmNu1skUfbqaljGM2+Jc9BVmARsMFsVTRiueRirUMSy2zPgqc4IzXHVi7gySR4xIIwQSKr3Mnz7U4HfiorS2IuZ5Sx24x1pCWeTcBxVUoNu4WsP6jHekG4UhYhuRQWJrrACSf/r0uRjr+lKpJ60h+amIGbimggCjYR16VGytu6jFAEm7jApvfk0wOB1obkUDBzgcVXzk8mplba4Ydjmmyy75GcgAsc8UySFhkdaaqbcnNKzeho7cmqsDGk0b9ik/lTNu5wBRMQDjmmSRO27rzURAFPJ4qJjiqRFyNiBVdySetSu3FVnNUkS2RP3z0qu/XIqSRue1VpGHNUiGQzP2qlIxBxU0jjJqpIwLVaMmzh6KKK9I8AKKKKACiiigAooooAKKKKACiiigAooooAKKKKACvpjwu+fCejD0sIP/AEWtfM9fTPhaP/iktGOf+XCD/wBFrXHjf4Z3Zd/H+T/Q1GBbAA4pShxz0peMdcmlGcdcV5Z7ZGMIeO9PCDHANLjPTNIw44P6UDGOu3rSAbhzTWLKcHBFPUEr8o4oGLtGNvrUTgocYz+NSk4xmnEblzigVyJQCM4waa+Cc9xUm4H5eRSFcDlqY7kQLFsmmuNzAjrUmDjpxUfl85zQAq7sHNNkLBeBTyOMU1k460wRGrHHSk2nOcH8qCetM5zwD+BoKsKWNM3BuP61Iy98UwjHI60gsIY89absA6U8ZYYNMYHOP50DSGmNjluuKTBPWn4OMZoWNsUhiIByGHFNYqfujFKyFeSKNoHJFMCPAGc/zpFAA4/nUpVCM0hKr/8AroC5HjPWp45vKh2r69Ki+8aXYyHkEd6hxTHck+0s6sGH5UwKT60I26lYn1ppWAbtI60ufSkIPc0uOOtOwDt5VeQaTgjjNR7sNgmlB/CgQpDDkUzeT1zTm9M0wIRk0wEyM/8A16Dx3oPXmmtweKAI2YDvTGIK8fpTnXPeogvOCaoVxAC3JpzkBegpSPcUj4IxVIlsbEeWkIwAKqu24k+tWpf3UG0fxCqLH6UybinpVdm5qR2wO1V3PvVEsa9VpGxxUrtxVOVuaoljHYCq0jZyRT5G4qrI1UkZNkUjDpVGUjPWppWOe1Yl/qnkyeXDtdwfmJ6D2+taxi5aIwqVIwV2YdFFFd54oUUUUAFFFFABRRRQAUUUUAFFFFABRRRQAUUUUAFfTnhlgPB2i5/58IP/AEWtfMdfTvhY7vCGigjgWEH/AKLWuTG/wzty/wDj/J/oaWdoG1f1qTDFcinDOcAU0o2MYODXl2PbGlWxkMAaccBfmp4T5c0wkn5cZFDC4wjHIwR6UhDEjjj0p27Bx0pATuPekMRuKaeORSlmZT/Km8vwKBgWXqBzQ2GHT9aURbR81OfIGccfWmAxD2NMIIJxSkqwwMZ/OlAO3tQBGwIqNmIbOKlY7eagYM7gAcZ5oGiN5AWz/WnRn3rS8q2hjzxwOeaz8BnJTgfnUc1ykxGBIyKiG7P3TVnBA4/lUZ3FhmmNERyD0NIxP4fWpmZgcDkU8LkfMDmgCsCR0HH1pc5HpT22g9MfjULHaeD+lNDFLN0yKayuenT3oySPemeY6/eBxRcAO5OtJy3NO3B+nSkYEjrQMUe2adJMXADY446UxT2FKSc5oBjTwO3505GyKXdkYK/rSFV+lMBHIxURbFOfGfQexpjeozSAcMH5j17UdetIp70/nrTAQqMDP6UDgcU0kk89KXIFMQZJqJxg8VITmo2PNNANKSNG0gBKr1PpUfGNxqb7XIltJApG1+vFM02zl1XVYrKHJGcuQM7RTSvsRKSSuxjAhQ3Y9KaiF5AOcd66LxrYx6Y1jawj+A5rDhHkQs7HqMCtHG25hTqqorop3jlmwOg4qoxOOKklYs5OagZj7UjQY7HFQsTinO3PaoXaqsSyKRsCuXu/E6xXMsP2Uko5XIfr+ldLI3HGKxPBuj2urePb2W+kRbPTkmvpd4yCsZ7jByMkZHpmt6FNTbTOTFVJU4px6s2NH0XVNUsTqV7brpOl+XvW9vH2xt0xjvzkYOMU++8Lag1ib3RHg123Vtsr6e+/yzgHnuevasxmuPF0V94k13WGt9Hs5lhWFFIErEZ8qJegYqvX3BNc3qep2emXqzeE9S1O2hlQ7o3Yo8Q6bS6nDE4zwMAbeSc47XhoQkrnnzxVRTavdFO81uSVGjiQxseC2ckfSsiiinGKjsc06kpu8mFFFFUQFFFFABRRRQAUUUUAFFFFABRRRQAUUUUAFFFFABX094V2nwjonzc/YIB/5DWvmGvpvwvlfCWiHqPsEH/ota5MZ/DO3L/4/wAn+hs5wfUetKoOeDQpJBGMelIHdWIxxXmntDzknio2XJwOtDOueT+FAaNzleopAhpiU8nr7Uj7uq1Iyh/Y0zDL7+1IpEUakmnKsaMSTyadkt2xSbTmgLilR17UBu2RinpESSSf0pG4HyjNAhjIrDjpTQFPAcflUhXcMng0hGwZpDuQGNHJG4ZoWNUjKhgPwpXA5dRk/WlzuTpQxpkGwAnJJyaHXK4AxTpHCr0pke4nkYFIsQ/ItCAN82acc78HlaXIBwDxQCGn72c4pCgyTnmkxufcDwKXfnOaQyMk7ipFNAVgadkklQMg03YVXA6UyiMlUYHPStATJdWucDjtVEqBwRnPvSlSF64HpUvUGiqqMWZR0qbZgYNSKCBgU3kdSapAhuFVTSIBtyakyB1o2g9AaYXIXfByKaeRmpiMnkVG+ew4oBEZ6cmmkccmn7sA5qL7xpjF49aeBzRtzQFOeDQICDTT8vJNOK+tNYetMQwtk0m/HApePSmuRTQiGZgsbP6Cu++HejfZ9PbUJV/fT9CfSvP3Vp54bdesjgcV7dp1stnp8MKgKEUAj6V04eHNK55mY1HGFl1PNfHUjXPi2OAH5YoQPzrndRkxiJDwOtbPiSdJfEN7dKQedoP0Fc1IxZiWPJ5orfEaYKNqSIWb3qGQ1JIcmoXNZnUxjHjrVd2xUrtVd296pEMikcAHNVvh1FDd+Mdf06S4WBtQ066tY3YZAZsc/gAT+FOmfIPSuCnv7mx1me4s7iSCZZHAkjYqwzkHBreipWfI7PoedmH8NJHR+Iby20Pwq3g2C8ttRmGpfbpbu1Y+UmI9gQZA3N1JPQcDk528VRRXoNt7nlXCiiikAUUUUAFFFFABRRRQAUUUUAFFFFABRRRQAUUUUAFFFFABX034UJPhPRvQWEH/AKLWvmSvprwtIP8AhE9FBHIsIB/5DWuTGfwzty/+P8n+htnB9qPm+ooRTjOMikZwDjGDXmHtDXjEo+U80m3CHYfmFPXG7J4/Gl2KpLA9aAAuTFkD5h2pgB3ZyakXO7APFOMSsc96AuNQbwfakYYOBS79oKkY+tMHXORj0oEDZUAg804KGGM8mkJHc0IFJ3Z/GkMBG6k56U2RljXJFOJcvg8igIXbaV49aVguRGRlXcoyDSkBhyMZqRo/l2bT+BpMBQATzTHcreWxYgg04xuFqViQc5GPpUTS45JpMpMi8pj1wfpTfIB5AwamEo7ZzTTIHOO9Iq5F5YXhqcVj9/zqTaMYJ5phBJxyaQ7jAVBIUHmmspPTrTmUgd80ig96TGRlWHamFmyMVMwGcg0xjjmmlYdxpGRSFKXORQD9aYCbcCkPHSlLH8KQAk0wGsTimYJqUjB60wnmgZE4HQ01IxkkYqYpu5JqPGDimAcDv+lNbgcH9KV1BFIQMcUwGc+1IxIp3IpjZPrQIQZPNRsRTiDjg1GwIpiZe8L2n2/xbaowyseXP4V6l4g1RNJ0eadmwxG1PrXm3g27t7HxC89y4RBEeSKi8WeIjrmobIv+PaI4XnrXZQkoxueTi6E61VJbGRcTtcOZGP3jk81UkNSNwtV3rCTu7noJKKSRGxwagfvT2PNQyEev600JshdjVZ2NSSN71yviDXvJLWdm/wC96SSA/c9h7/y+vTSEHJ2RhWqxpxvIj17XPKL2lo/7zpJID932Hv8Ay+vTlaKK9CEFBWR4lWrKrK7CiiirMgooooAKKKKACiiigAooooAKKKKACiiigAooooAKKKKACiiigAr6a8LD/ikdGb/pxg/9FrXzLX034WcHwdooP/PjAP8AyGtcmN/hndl38f5P9DYDZxg0uQeT1FMUADOabncSNteYe3Yn3qVBWkOGGcVCuxRhfy609XCZ56+tArEgGB1pVB3ZxTQQOSaVpMDjpQiR+/JwwzSF1BAAxmkUAjNO2qwznBFAhrDLfWhQBxt/Wn7fRs0hTPNA7hvI6AUod+uOPakHzmnYANBLInEjPwQF7ig4zjvTyrFuOlIyBTuJwaQ0yJzgZxkVGxDL92pWAIP9ajRCCeRj0xSLRFszyc4ppwhzVghAaMxH+H9aVirlZpVK8H5qjiLOeetXP3R4VOaYSoPApWGmR7XHUYH0pCBjPX8KcZAxxQFFFhkeB1xTDCsh64qQoAetOAAHQn8aY7kXkBeFJNG0Y5zS5UNx+VOYAkf0oAiKZBxmmAYzUrp3HFRbQM5NAIaRmo2ODT2244/lUeA3JplIATTTkZJNPGKRnGcUxERyaQgipN3oDUb80ARvk0nIFSY461G5xTC4w5bvTDjcM8DPNKSP8iomOaoRLqDwNKotl2oByc9aokBRkCpSaid8Dp+tUibEbMSOaru3NPdjiq7Hk5xVEsZIcc4qq75FSSyc4rkfEXiLyS9lZP8AvekkoP3PYe/v2+vTSEHN2RhWqxpx5pDfEPiHyS1nZv8AvekkgP3PYe/v2+vTj6KK9GEFBWR4VatKrLmYUUUVZkFFFFABRRRQAUUUUAFFFFABRRRQAUUUUAFFFFABRRRQAUUUUAFFFFABX0z4WYnwjowx/wAuEH/ota+Zq+mPC5/4pDRsHn7DB/6LWuTG/wAM78t/j/J/oawJwTjkU5MsM96YrEDrS+ZkV5Z7ZIqEcginkcc0xWIUdxSPIWxt4oJFODT1KnqKZGvc1KqjOR1+tMTHA56DigjPelTJzmlCMM5oJG4xxk4p6hh06Ux0YjjNKdyrhRQIkwc9P1pGkCdRSLnbkmozIB70CHlxJ0OKjaPLbs8UiyfNmnM2DxjmlcobuAOKRiVGe31pcHFKMBecflSKI+XXK0gVh2NTryvFNYkdqAuRshxxUWznr+lWPvKccfhUOwg5NIpMYU28kHH1pCQRlf508l2O3HFGSpIoKuRhS4+bg0FcKf8ACnt9KOooC5XC4OcUuSOTUpXPoPwppU49aAuQM5JpjOKmx60xogx70DIcEnIFB9x+tSOrAYU/pTGU96CkyM0winHrSbQTkkflTGMYnsKaSMUrGomfBxmmIUtgGoSeeopWPf8ArTCaoGhrHioWYCpGJJqNlz1poTIz61DITU7HA61WfvzVEtlaRyD0qB3J9qll69a43xN4l8gvY2Mn77pLKv8AB7D39+316awg5uyOetWjTjzSGeJfEfkF7Gyf990klU/c9h7+/b69OLoor0oQUFZHg1q0qsuaQUUUVZkFFFFABRRRQAUUUUAFFFFABRRRQAUUUUAFFFFABRRRQAUUUUAFFFFABRRRQAV9I+F3x4V0f/rxg/8AQFr5ur6N8Lg/8IvpB7fYof8A0Ba5Mb/DO/LP94+T/Q2wAx4qYbV6dajVlCYHWgAk5zXlnuMn3AmnKVJ6/rUCoc5qVeOgoJaJMANxUinHJximKxxzUisM80EMADnORilUkPntTgMEikZtq4HWmRcRmKncRxRuCLuYdfWn4BXIHNNP71dpoAQPkZBpNuTR9n2/dJp5BUYJ5pDImQDHenlSVBAxSD5TuJ/SplJY5xwaBNkQGOlMbn/9dSuSp45pQu4c0BchUEGnbSc+lS+WRztqM7gchTQO4x0GCOlRkADtU+WPOCPxqExlSSWzSZSYpH7vdUYI79afncuMU0pkf/WoGmIQc8VE2BxU23io2I+lBSYwjIxRkKKCSRgUzYe/WlcZGzndTS5B9qk2gcU0qO2MUFDD8xzTDUu3A601s4oGQMOeKjc4FTMDUMoyCAaY7kTP3qNnGc0GE47U3YEHPX60wI2fJppP0qQgYppAIqhMiLGo2apH4FQE00IjY81DIcVKx6nmuH8WeK/IL6fp8n777ssy/wDLP/ZH+179vr01p03N2RhWrRpR5pEXinxR5BewsH/fdJZV/g/2R7+/b69OFoor1KdNQVkeBWrSrS5pBRRRVmIUUUUAFFFFABRRRQAUUUUAFFFFABRRRQAUUUUAFFFFABRRRQAUUUUAFFFFABRRRQAV9FeGnI8LaR6fYoR/44tfOtfQvhwn/hGNJ/68of8A0AVx43+Gehln+8fJ/ob8T7ulSbucCq8fyrnvUitk15Z7rRMG55NSZOODUGRnNPEmRigmxYjJ708DbyelVRnPB/WrEall2t0oIaJg2XBzxUhYMwxSIgUcD9aeiDOSOaZkxd2OlKUz8w4NDqCvHWkAbvTJuJht3Wl8sk5BqUMcdqCuTmgVxgi3cNmnBVXgGpAccZpG+YcUE3GFcjGOKaQ3YHH1qQo6rkocH3qymj3ckYcdxkLimot7EupGO7KeCBmm8nrxS7XVyp4IOCKfzj/69JqxaknqV3LA4xnNBUgdM1KBQCAPSpLuV8Htx7VG2c5qwxIqF1JPFIuLGFjio+GByelTlcDtTAFBPTNIq5DuP8NNbpk1KSBnFMPzLz/OgpMYGyOn60hbntS8hcD+dRt8p5oGI3PIqAgn1qU885xTCuevFA0RkVHJgdBUzkAYquaY0RljUMg96mbpxUZGaYyE/SmscCnuMVC1UhEbnNQOQBTpGAPWuF8XeLfIMmnadJ+++7NMp/1f+yP9r1Pb69NqdNzdkY1q0aUeaQni3xb9n8zTtOk/ffdmmX/ln6qv+16nt9enn1FFerTpqCsj5+tWlWlzSCiiirMQooooAKKKKACiiigAooooAKKKKACiiigAooooAKKKKACiiigAooooAKKKKACiiigAooooAK+iPDY/4pfSf+vKH/0AUUVxY34F6no5X/H+RsA8Y7URE0UV5p7xLtBzmnR/exRRQST9j9KfGTmiigzkXF6U5WOetFFBiyeMZ60HjOKKKZBGGJbBPFSp6UUUwLCgeVnvVQjEhx60UUyInQWrF7Jt3OB6VdgJ+zA+goorppbnnVd36nLOd87s3JzSdM4oorCfxM9Cn8CImdjnmogxOQaKKxZqhx44FRsetFFItDHYhMg0+3iSSzmkYZdQcHNFFVEUtiuBxR/CR2ooqXuax2Iz1pG60UUFETDJqGQndjtRRQtxkJPzUw85ooplIhI5NRknJoopgROTVZycnmiiqiDOd8WXU9n4dvZreVo5QFAdeoywBx6cE14/RRXp4Re4/U8LMm/apeQUUUV1HnhRRRQAUUUUAFFFFABRRRQAUUUUAFFFFAH/2Q==;fontFamily=Times New Roman;sketch=0;fontStyle=1" vertex="1" parent="1">
          <mxGeometry x="506.68" y="70" width="52.54" height="50" as="geometry" />
        </mxCell>
        <mxCell id="0gGLNNwoWwdXebhI30fq-99" value="" style="shape=image;verticalLabelPosition=bottom;labelBackgroundColor=#ffffff;verticalAlign=top;aspect=fixed;imageAspect=0;image=data:image/jpeg,/9j/4AAQSkZJRgABAQAAAQABAAD/2wBDAAIBAQEBAQIBAQECAgICAgQDAgICAgUEBAMEBgUGBgYFBgYGBwkIBgcJBwYGCAsICQoKCgoKBggLDAsKDAkKCgr/2wBDAQICAgICAgUDAwUKBwYHCgoKCgoKCgoKCgoKCgoKCgoKCgoKCgoKCgoKCgoKCgoKCgoKCgoKCgoKCgoKCgoKCgr/wAARCAITAi4DASIAAhEBAxEB/8QAHwAAAQUBAQEBAQEAAAAAAAAAAAECAwQFBgcICQoL/8QAtRAAAgEDAwIEAwUFBAQAAAF9AQIDAAQRBRIhMUEGE1FhByJxFDKBkaEII0KxwRVS0fAkM2JyggkKFhcYGRolJicoKSo0NTY3ODk6Q0RFRkdISUpTVFVWV1hZWmNkZWZnaGlqc3R1dnd4eXqDhIWGh4iJipKTlJWWl5iZmqKjpKWmp6ipqrKztLW2t7i5usLDxMXGx8jJytLT1NXW19jZ2uHi4+Tl5ufo6erx8vP09fb3+Pn6/8QAHwEAAwEBAQEBAQEBAQAAAAAAAAECAwQFBgcICQoL/8QAtREAAgECBAQDBAcFBAQAAQJ3AAECAxEEBSExBhJBUQdhcRMiMoEIFEKRobHBCSMzUvAVYnLRChYkNOEl8RcYGRomJygpKjU2Nzg5OkNERUZHSElKU1RVVldYWVpjZGVmZ2hpanN0dXZ3eHl6goOEhYaHiImKkpOUlZaXmJmaoqOkpaanqKmqsrO0tba3uLm6wsPExcbHyMnK0tPU1dbX2Nna4uPk5ebn6Onq8vP09fb3+Pn6/9oADAMBAAIRAxEAPwD+f+iiigAooooAKKKKACiiigAooooAKKKKACiiigAooooAKKKKACiiigAooooAKKKKACiiigAooooAKKKKACiiigAooooAKKKKACiiigAooooAKKKKACiiigAooooAKKKKACiiigAooooAKKKKACiiigAooooAKKKKACiiigAooooAKKKKACiiigAooooAKKKKACiiigAooooAKKKKACiiigAooooAKKKKACiiigAooooAKKKKACiiigAooooAKKKKACiiigAooooAKKKKACiiigAooooAKKKKACiug+Fvwn+Kfxx8d2Pwt+Cnw08QeMPE+qeb/Znhzwto0+oX935cTzSeVbwI8kmyKOSRtqnaqMxwATX0f8FP+CFv/BYH4/eKrjwd4F/4J2/FCwu7bT3vZJvGvh1/DVqY1eNCqXWrm2gklzIpEKuZCodgpVHKgHyhRX3f8W/+DaP/AILR/Bj4NN8ZvFH7GmoajFBqEtvf+GvCWuWOuazbRg2qRXIs9Pmme4ile5dVFv5skYtLiSZIYhHJJ8IUAFFFFABRRRQAUUUUAFFFFABRRRQAUUUUAFFFFABRRRQAUUUUAFFFFABRRRQAUUUUAFFFFABRRRQAUUUUAFFFFABRRRQAUUUUAFFFFABRRRQAUUUUAFFFFABRRRQAUUUUAFFFFABRRRQAUUUUAFFFFABRRRQAUUV7/wD8Eq/2XP8AhtH/AIKO/Bf9mi98Df8ACS6R4l+IFh/wleif2n9j+06FbyfatV/fCWJk26fBdP8Au3Ep24jzIUBAPuD4T/8ABnR/wVN+K/ws8NfFL/hY/wAH/DX/AAkvh+y1X/hHPFmsa5Z6rpX2iBJvsl7b/wBkt5FzFv8ALlj3HY6suTjNev8AwL/4Mhv2p/EH9qf8NL/twfD/AMJeT5H9if8ACC+Hb7xF9rz5nnef9qOm/Z9uItu3zt+98+XsG/8Ao+ooA/BHwn/wY1+FbPxVpl546/4KV6hqOiRahC+s6fpPwlSyurq1DgyxQ3EmqTpBKyblWVoZVRiGMbgbT7h/xBU/8Esv+i+ftAf+FTof/wAp6/X6igD88PCf/Bqx/wAEOfDnhXTPD2sfsjahr93YafDb3Wu6t8SNfS61GRECtczLa3sMCyyEF2EUUcYZjsRFwo+n/Cf/AATJ/wCCbfgLxVpnjrwL/wAE+fgfout6LqEN/o2s6T8J9HtrqwuoXEkVxDLHbB4pUdVdXUhlZQQQRXuFFABRRRQAV8If8FU/+Deb9gz/AIKn6jqXxX8Y6RqHgX4sXWnxwQ/Erwm4El00FvNFarqFm58i+iQyRFmAiunjtYYVuo40Cj7vooA/kC/4KXf8G3X/AAUc/wCCcn9reP8A/hAv+FofDLT/AD7j/hYHgC2kuPsNnH9qk83UrHBuLDZbW3nzS4ls4fNRPtbscV8AV/f5XwB/wUu/4Nuv+Ccf/BRv+1vH/wDwgX/Cr/ibqHn3H/CwPAFtHb/bryT7VJ5upWOBb3++5ufPmlxFeTeUifa0UYoA/kCoroPiz8LfHfwO+Kfib4KfFLQv7L8T+D/EF7oniPTPtUU/2S/tJ3guIfMhZ45NksbruRmVsZUkEGufoAKKKKACiiigAooooAKKKKACiiigAooooAKKKKACiiigAooooAKKKKACiiigAooooAKKKKACiiigAooooAKKKKACiiigAooooAKKKKACiiigAooooAKKKKACiiigAooooAKKKKACiiigAooooAK/Z7/gyo/Zo/4WB+3F8Tv2o9V0nw/e6f8ADb4fxaVZf2jB5l/Zarq9z+5u7PMZWPFpp+pQSSB0cLdhAHSWTb+MNf1m/wDBpn+y/wCKv2cP+CP2geJ/GL6hDd/FbxhqfjWHStT0V7KSwtZUg0+1A3sTPFPb6dFexzhUV471NoZQJHAP0vooooAKKKKACiiigAooooAKKKKACiiigD8Ef+Dxz/glZqOvadpX/BVv4M+HNPSLRdPttC+Myxz29tJJG1xFb6VqYjESvdS75/sUztK8gjXT1SIRQzOn8+Nf3ufFn4W+BPjj8LPE3wU+KWhf2p4Y8YeH73RPEemfapYPtdhdwPBcQ+ZCySR74pHXcjKy5ypBANfxZf8ABWf/AIJ++Kv+CZf7efjr9lLWINQl0TTtQ+3+BNZ1BXZtW0C5JksrjzWggSeVUzbzvEgiF1bXMaEiOgD5wooooAKKKKACiiigAooooAKKKKACiiigAooooAKKKKACiiigAooooAKKKKACiiigAooooAKKKKACiiigAooooAKKKKACiiigAooooAKKKKACiiigAooooAKKKKACiiigAooooAKKKKACiiigDoPhP8LfHfxx+Kfhr4KfC3Qv7U8T+MPEFlonhzTPtUUH2u/u50gt4fMmZI498siLudlVc5YgAmv7rP2evgp4V/Zr+AXgf9nPwLqGoXeieAPB+meG9GutWlSS6mtbG1jtYnmaNERpSkSliqIpYkhVHA/hj/Z6+Nfir9mv4++B/wBozwLp+n3et+APGGmeJNGtdWieS1murG6juokmWN0doi8ShgroxUkBlPI/tN/4Ji/8FC/hZ/wVB/Y28L/tc/C3TP7I/tfzrPxH4Wm1WC7ufD+q277LiymeE/7k0TOsTyW9xbzNFF5oQAHv9FFFABRRRQAUUUUAFFFFABRRRQAUUUUAFfmh/wAHSf8AwTP079u//gnpffHDw9ren6V4y+AGn6t4v0681M3BjvdGSzMuq6cBE+xJZUtbeaOR4pD5lkkWYknllX9L68A/4Kxf8osv2lv+zf8Axl/6Y7ygD+IKiiigAooooAKKKKACiiigAooooAKKKKACiiigAooooAKKKKACiiigAooooAKKKKACiiigAooooAKKKKACiiigAooooAKKKKACiiigAooooAKKKKACiiigAooooAKKKKACiiigAooooAKKKKACvq//AII7/wDBVP4y/wDBKH9rjR/i/wCDvEeoP4E1rULOy+K/hC3gFzHrmjLL+8aOB5Yk+3QI8slrMZEKSMUZjDNPHJ8oUUAf3mfAH4/fBr9qX4NeHv2g/wBnz4haf4q8G+KtPF7oWu6Y5MdxHkqylWAeKVHV45IZFWSKSN45FR0ZR2Ffyhf8Guv/AAVc8d/sOftxaJ+yt4suvEGtfDL43eILLw+fDdjdxGHSPEl5c29tZawkUo+ltOI3iLwyLIwna0giP9XtABRRRQAUUUUAFFFFABRRRQAUUUUAFeAf8FYv+UWX7S3/AGb/AOMv/THeV7/Xh/8AwU28J+KvHv8AwTb/AGg/AvgXwzqGta3rXwP8WWGjaNpNk9zdX91No91HFbwxRgvLK7sqKigszMAASaAP4c6KKKACiiigAooooAKKKKACiiigAooooAKKKKACiiigAooooAKKKKACiiigAooooAKKKKACiiigAooooAKKKKACiiigAooooAKKKKACiiigAooooAKKKKACiiigAooooAKKKKACiiigAooooAKKKKACv7nP+Cfn7S//AA2R+w78Jv2o7nVvD93qHjn4f6Xquvf8ItP5lha6rJbJ9vtIsySMnkXYngaN3Z42hZHO9Gr+GOv6bv8AgzB/a81H4vfsGeN/2R/Ed7qFzd/BzxglxozSWFvHa22jayJriK2jkjIkmlF9barM5lUlVuYVV2UbIgD9jqKKKACiiigAooooAKKKKACiivL/ANr39tD9mD9gv4NT/H/9rj4v6f4L8KQ6hBYLqF7BNPJc3UxIjt4Le3SSe5lIV3KRI7LHFLIwCRuygHoHizxZ4V8BeFdT8deOvE2n6Lomi6fNf6zrOrXqW1rYWsKGSW4mlkISKJEVnZ2IVVUkkAV/Mj/wXR/4Og/in+2t/wAJn+x1+w7cf8Ix8EtQ26bqXjD7NPb674wtl81blMsw+xabc7kH2fyxcSxRYmdEuZrNfnD/AILj/wDBcf4y/wDBXr4yppelxah4V+C/hXUHfwH4DlmAknkw0f8AaupeWxSW+dGYKgLR2scjRRFi889x8IUAFFFFABRRRQAUUUUAFFFFABRRRQAUUUUAFFFFABRRRQAUUUUAFFFFABRRRQAUUUUAFFFFABRRRQAUUUUAFFFFABRRRQAUUUUAFFFFABRRRQAUUUUAFFFFABRRRQAUUUUAFFFFABRRRQAUUUUAFFFFABX3/wD8G3X/AAUu/wCHcn/BR3Qf+E/8Wf2f8Mvih5XhX4gfbL/yrOy82QfYdVl8y5ht4vstyV8y5m3+TZ3F9sUtIK+AKKAP7/KK+IP+Ddz9unWP2+/+CVHw++I/jzxn/bnjbwl5/g/x5eut40z39gVEEtxNds7XVzPp8lhdTTq7q81zJ9xg0afb9ABRRRQAUUUUAFFFFABX8aX/AAXa/wCCofir/gqN+3n4m+Iej+NtQvfhb4V1CfR/hHo0k7i1t9MjKRvqEcTwQPHLfvCLt/Nj89Fkht3d1totv7P/APB3d/wVT079nD9l+P8A4Jz/AAo8R6ha/EL4tafBe+KZrSC4hWw8I+dMkirdRyxjzby4tjamHEyParepMsfmwl/5kaACiiigAooooAKKKKACiiigAooooAKKKKACiiigAooooAKKKKACiiigAooooAKKKKACiiigAooooAKKKKACiiigAooooAKKKKACiiigAooooAKKKKACiiigAooooAKKKKACiiigAooooAKKKKACiiigAooooAKKKKAPYP2Ov2/P2yf+Cf8A47m+Iv7Hn7QniDwNqF3t/tO306ZJrDU9kU8Uf2yxnWS1vPLW5mMfnxP5TSF02uAw/oe/4Jo/8He/7G37TP8AZPwt/bn8Pf8AClvG1z5Fr/wkfmvdeFdSuW+yw7/tGPO0vzJpbiTZcq9vbwQbpb5mOK/mBooA/v8AKK/ji/4JR/8ABfP9uL/glNrEXhnwT4g/4Tv4ZS+TFe/C/wAYancyWFnCLxrmaTS2D/8AEruZPNuQZER4Xa4Mk0E7Rx7P3e/Zo/4O4v8AgkL8YPhZaeLPjp8SPEHwk8Tjy4tU8Ja/4S1LVNk3kRPLJbXWmW08c9sJXkiSSUQTP5LM0EQZcgH6f0V8Af8AEUd/wQo/6Pm/8xl4n/8AlZR/xFHf8EKP+j5v/MZeJ/8A5WUAff8AXn/7VX7S/wALP2N/2cfGn7Ufxr1b7J4Y8DeH7jVdT2TwRzXXlr+7tLfz5I43uZ5THBDGzr5k00aA5cV8gf8AEUd/wQo/6Pm/8xl4n/8AlZX5If8ABzz/AMF5/hn+3xp3g39lD9gn44ahrHwnTTzrHxC1Cys73TY9f1P7Ri10+e3vLSCcxWggFyMO8Esl5ExQSWcbAA/NH9vz9sXx3/wUA/bJ+IX7YfxFs/smoeOfED3dvpnmRSf2ZYRosFjY+ZFDCs32e0it4POMatL5PmON7sT4/RRQAUUUUAFFFFABRRRQAUUUUAFFFFABRRRQAUUUUAFFFFABRRRQAUUUUAFFFFABRRRQAUUUUAFFFFABRRRQAUUUUAFFFFABRRRQAUUUUAFFFFABRRRQAUUUUAFFFFABRRRQAUUUUAFFFFABRRRQAUUUUAFFFFABRRRQAUUUUAFFFFABRRRQAUUUUAFFFFABRRRQAUUUUAFFFFABRRRQAUUUUAFFFFABRRRQAUUUUAFFFFABRRRQAUUUUAFFFFABRRRQAUUUUAFFFFABRRRQAUUUUAFFFFABRRRQAUUUUAFFFFABRRRQAUUUUAFFFFABRRRQAUUUUAFFFFABRRRQAUUUUAFFFFABRRRQAUUUUAFFFFABRRRQAUUUUAFFFFABRRRQAUUUUAFFFFABRRRQAUUUUAFFFFABRRRQAUUUUAFFFFABRRRQAUUUUAFFFFABRRRQAUUUUAFFFFABRRRQAUUUUAFFFFABRRRQAUUUUAFFFFABRRRQAUUUUAFFFFABRRRQAUUUUAFFFFABRRRQAUUUUAFFFFABRRRQAUUUUAFFFFABRRRQAUUUUAFFFFABRRRQAUUUUAFFFFABRRRQAUUUUAFFFFABRRRQAUUUUAFFFFABRRRQAUUUUAFFFFABRRRQAUUUUAFFFFABRRRQAUUUUAFFFFABRRRQAUUUUAFFFFABRRRQAUUUUAFFFFABRRRQAUUUUAFFFFABRRRQAUUUUAFFFFABRRRQAUUUUAFFFFABRRRQAUUUUAFFFFABRRRQAUUUUAFFFFABRRRQAUUUUAFFFFABRRRQAUUUUAFFFFABRRRQAUUUUAFFFFABRRRQAUUUUAFFFFABRRRQAUUUUAFFFFABRRRQAUUUUAFFFFABRRRQAUUUUAFFFFABRRRQAUUUUAFFFFABRRRQAUUUUAFFFFABRRRQAUUUUAFFFFABRRRQAUUUUAFFFFABRRRQAUUUUAFFFFABRRRQAUUUUAFFFFABRRRQAUUUUAFFFFABRRRQAUUUUAFFFFABRRRQAUUUUAFFFFABRRRQAUUUUAFFFFABRRRQAUUUUAFFFFABRRRQAUUUUAFFFFABRRRQAUUUUAFFFFABRRRQAUUUUAFFFFABRRRQAUUUUAFFFFABRRRQAUUUUAFFFFABRRRQAUUUUAFFFFABRRRQAUUUUAFFFFABRRRQAUUUUAFFFFABRRRQAUUUUAFFFFABRRRQAUUUUAFFFFABRRRQAUUUUAFFFFABRRRQAUUUUAFFFFABRRRQAUUUUAFFFFABRRRQAUUUUAFFFFABRRRQAUUUUAFFFFABRRRQAUUUUAFFFFABRRRQAUUUUAFFFFABRRRQAUUUUAFFFFABRRRQAUUUUAFFFFABRRRQAUUUUAFFFFABRRRQAUUUUAFFFFABRRRQAUUUUAFFFFABRRRQAUUUUAFFFFABRRRQAUUUUAFFFFABRRRQAUUUUAFFFFABRRRQAUUUUAFFFFABRRRQAUUUUAFFFFABRRRQAUUUUAFFFFABRRRQAUUUUAFFFFABRRRQAUUUUAFFFFABRRRQAUUUUAFFFFABRRRQAUUUUAFFFFABRRRQAUUUUAFFFFABRRRQAUUUUAFFFFABRRRQAUUUUAFFFFABRRRQAUUUUAFFFFABRRRQAUUUUAFFFFABRRRQAUUUUAFFFFABRRRQAUUUUAFFFFABRRRQAUUUUAFFFFABRRRQAUUUUAFFFFABRRRQAUUUUAFFFFABRRRQAUUUUAFFFFABRRRQAUUUUAFFFFABRRRQAUUUUAFFFFABRRRQAUUUUAFFFFABRRRQAUUUUAFFFFABRRRQAUUUUAFFFFABRRRQAUUUUAFFFFABRRRQAUUUUAFFFFABRRRQAUUUUAFFFFABRRRQAUUUUAFFFFABRRRQAUUUUAFFFFABRRRQAUUUUAFFFFABRRRQAUUUUAFFFFABRRRQAUUUUAFFFFABRRRQAUUUUAFFFFABRRRQAUUUUAFFFFABRRRQAUUUUAFFFFABRRRQAUUUUAFFFFABRRRQAUUUUAFFFFABRRRQAUUUUAFFFFABRRRQAUUUUAFFFFABRRRQAUUUUAFFFFABRRRQAUUUUAFFFFABRRRQAUUUUAFFFFABRRRQAUUUUAFFFFABRRRQAUUUUAFFFFABRRRQAUUUUAFFFFABRRRQAUUUUAFFFFABRRRQAUUUUAFFFFABRRRQAUUUUAFFFFABRRRQAUUUUAFFFFABRRRQAUUUUAFFFFABRRRQAUUUUAFFFFABRRRQAUUUUAFFFFABRRRQAUUUUAFFFFABRRRQAUUUUAFFFFABRRRQAUUUUAFFFFABRRRQAUUUUAFFFFABRRRQAUUUUAFFFFABRRRQAUUUUAFFFFABRRRQAUUUUAFFFFABRRRQAUUUUAFFFFABRRRQAUUUUAFFFFABRRRQAUUUUAFFFFABRRRQAUUUUAFFFFABRRRQAUUUUAFFFFABRRRQAUUUUAFFFFABRRRQAUUUUAFFFFABRRRQAUUUUAFFFFABRRRQAUUUUAFFFFABRRRQAUUUUAFFFFABRRRQAUUUUAFFFFABRRRQAUUUUAFFFFABRRRQAUUUUAFFFFABRRRQAUUUUAFFFFABRRRQAUUUUAFFFFABRRRQAUUUUAFFFFABRRRQAUUUUAFFFFABRRRQAUUUUAFFFFABRRRQAUUUUAFFFFABRRRQAUUUUAFFFFABRRRQAUUUUAFFFFABRRRQAUUUUAFFFFABRRRQAUUUUAFFFFABRRRQAUUUUAFFFFABRRRQAUUUUAFFFFABRRRQAUUUUAFFFFABRRRQAUUUUAFFFFABRRRQAUUUUAFFFFABRRRQAUUUUAFFFFABRRRQAUUUUAFFFFABRRRQAUUUUAFFFFABRRRQAUUUUAFFFFABRRRQAUUUUAFFFFABRRRQAUUUUAFFFFABRRRQAUUUUAFFFFABRRRQAUUUUAFFFFABRRRQAUUUUAFFFFABRRRQAUUUUAFFFFABRRRQAUUUUAFFFFABRRRQAUUUUAFFFFABRRRQAUUUUAFFFFABRRRQAUUUUAFFFFABRRRQAUUUUAFFFFABRRRQAUUUUAFFFFABRRRQAUUUUAFFFFABRRRQAUUUUAFFFFABRRRQAUUUUAFFFFABRRRQAUUUUAFFFFABRRRQAUUUUAFFFFABRRRQAUUUUAFFFFABRRRQAUUUUAFFFFABRRRQAUUUUAFFFFABRRRQAUUUUAFFFFABRRRQAUUUUAFFFFABRRRQAUUUUAFFFFABRRRQAUUUUAFFFFABRRRQAUUUUAFFFFABRRRQAUUUUAFFFFABRRRQAUUUUAFFFFABRRRQAUUUUAFFFFABRRRQAUUUUAFFFFABRRRQAUUUUAFFFFABRRRQAUUUUAFFFFABRRRQAUUUUAFFFFABRRRQAUUUUAFFFFABRRRQAUUUUAFFFFABRRRQAUUUUAFFFFABRRRQAUUUUAFFFFABRRRQAUUUUAFFFFABRRRQAUUUUAFFFFABRRRQAUUUUAFFFFABRRRQAUUUUAFFFFABRRRQAUUUUAFFFFABRRRQAUUUUAFFFFABRRRQAUUUUAFFFFABRRRQAUUUUAFFFFABRRRQAUUUUAFFFFABRRRQAUUUUAFFFFABRRRQAUUUUAFFFFABRRRQAUUUUAFFFFABRRRQAUUUUAFFFFABRRRQAUUUUAFFFFABRRRQAUUUUAFFFFABRRRQAUUUUAFFFFABRRRQAUUUUAFFFFABRRRQAUUUUAFFFFABRRRQAUUUUAFFFFABRRRQAUUUUAFFFFABRRRQAUUUUAFFFFABRRRQAUUUUAFFFFABRRRQAUUUUAFFFFABRRRQAUUUUAFFFFABRRRQAUUUUAFFFFABRRRQAUUUUAFFFFABRRRQAUUUUAFFFFABRRRQAUUUUAFFFFABRRRQAUUUUAFFFFABRRRQAUUUUAFFFFABRRRQAUUUUAFFFFABRRRQAUUUUAFFFFABRRRQAUUUUAFFFFABRRRQAUUUUAFFFFABRRRQAUUUUAFFFFABRRRQAUUUUAFFFFABRRRQAUUUUAFFFFABRRRQAUUUUAFFFFABRRRQAUUUUAFFFFABRRRQAUUUUAFFFFABRRRQAUUUUAFFFFABRRRQAUUUUAFFFFABRRRQAUUUUAFFFFABRRRQAUUUUAFFFFABRRRQAUUUUAFFFFABRRRQAUUUUAFFFFABRRRQAUUUUAFFFFABRRRQAUUUUAFFFFABRRRQAUUUUAFFFFABRRRQAUUUUAFFFFABRRRQAUUUUAFFFFABRRRQAUUUUAFFFFABRRRQAUUUUAFFFFABRRRQAUUUUAFFFFABRRRQAUUUUAFFFFABRRRQAUUUUAFFFFABRRRQAUUUUAFFFFABRRRQAUUUUAFFFFABRRRQAUUUUAFFFFABRRRQAUUUUAFFFFABRRRQAUUUUAFFFFABRRRQAUUUUAFFFFABRRRQAUUUUAFFFFABRRRQAUUUUAFFFFABRRRQAUUUUAFFFFABRRRQAUUUUAFFFFABRRRQAUUUUAFFFFABRRRQAUUUUAFFFFABRRRQAUUUUAFFFFABRRRQAUUUUAFFFFABRRRQAUUUUAFFFFABRRRQAUUUUAFFFFABRRRQAUUUUAFFFFABRRRQAUUUUAFFFFABRRRQAUUUUAFFFFABRRRQAUUUUAFFFFABRRRQAUUUUAFFFFABRRRQAUUUUAFFFFABRRRQB//Z;fontFamily=Times New Roman;sketch=0;fontStyle=1" vertex="1" parent="1">
          <mxGeometry x="1058.68" y="70" width="52.54" height="50" as="geometry" />
        </mxCell>
        <mxCell id="0gGLNNwoWwdXebhI30fq-101" value="" style="endArrow=classic;html=1;rounded=0;dashed=1;" edge="1" parent="1">
          <mxGeometry width="50" height="50" relative="1" as="geometry">
            <mxPoint x="623.22" y="110" as="sourcePoint" />
            <mxPoint x="644" y="150" as="targetPoint" />
          </mxGeometry>
        </mxCell>
        <mxCell id="0gGLNNwoWwdXebhI30fq-102" value="X&lt;sup&gt;0,0&lt;/sup&gt;" style="rounded=1;whiteSpace=wrap;html=1;" vertex="1" parent="1">
          <mxGeometry x="630" y="150" width="50" height="30" as="geometry" />
        </mxCell>
        <mxCell id="0gGLNNwoWwdXebhI30fq-103" value="" style="group" vertex="1" connectable="0" parent="1">
          <mxGeometry x="720" y="150" width="55" height="30" as="geometry" />
        </mxCell>
        <mxCell id="0gGLNNwoWwdXebhI30fq-104" value="X&lt;sup&gt;0,1&lt;/sup&gt;" style="rounded=1;whiteSpace=wrap;html=1;" vertex="1" parent="0gGLNNwoWwdXebhI30fq-103">
          <mxGeometry width="50" height="30" as="geometry" />
        </mxCell>
        <mxCell id="0gGLNNwoWwdXebhI30fq-105" value="" style="rounded=1;whiteSpace=wrap;html=1;" vertex="1" parent="0gGLNNwoWwdXebhI30fq-103">
          <mxGeometry x="45" width="10" height="30" as="geometry" />
        </mxCell>
        <mxCell id="0gGLNNwoWwdXebhI30fq-106" value="" style="group" vertex="1" connectable="0" parent="1">
          <mxGeometry x="818" y="150" width="55" height="30" as="geometry" />
        </mxCell>
        <mxCell id="0gGLNNwoWwdXebhI30fq-107" value="X&lt;sup&gt;0,1&lt;/sup&gt;" style="rounded=1;whiteSpace=wrap;html=1;" vertex="1" parent="0gGLNNwoWwdXebhI30fq-106">
          <mxGeometry width="50" height="30" as="geometry" />
        </mxCell>
        <mxCell id="0gGLNNwoWwdXebhI30fq-108" value="" style="rounded=1;whiteSpace=wrap;html=1;" vertex="1" parent="0gGLNNwoWwdXebhI30fq-106">
          <mxGeometry x="45" width="10" height="30" as="geometry" />
        </mxCell>
        <mxCell id="0gGLNNwoWwdXebhI30fq-112" value="" style="endArrow=classic;html=1;rounded=0;entryX=0.5;entryY=1;entryDx=0;entryDy=0;dashed=1;" edge="1" parent="1" target="0gGLNNwoWwdXebhI30fq-2">
          <mxGeometry width="50" height="50" relative="1" as="geometry">
            <mxPoint x="679.22" y="150" as="sourcePoint" />
            <mxPoint x="729.22" y="100" as="targetPoint" />
          </mxGeometry>
        </mxCell>
        <mxCell id="0gGLNNwoWwdXebhI30fq-117" value="" style="endArrow=classic;html=1;rounded=0;entryX=0.5;entryY=1;entryDx=0;entryDy=0;dashed=1;" edge="1" parent="1">
          <mxGeometry width="50" height="50" relative="1" as="geometry">
            <mxPoint x="775.22" y="150" as="sourcePoint" />
            <mxPoint x="801" y="110" as="targetPoint" />
          </mxGeometry>
        </mxCell>
        <mxCell id="0gGLNNwoWwdXebhI30fq-118" value="" style="endArrow=classic;html=1;rounded=0;entryX=0.5;entryY=1;entryDx=0;entryDy=0;dashed=1;" edge="1" parent="1">
          <mxGeometry width="50" height="50" relative="1" as="geometry">
            <mxPoint x="873.22" y="150" as="sourcePoint" />
            <mxPoint x="899" y="110" as="targetPoint" />
          </mxGeometry>
        </mxCell>
        <mxCell id="0gGLNNwoWwdXebhI30fq-119" value="" style="endArrow=classic;html=1;rounded=0;entryX=0.5;entryY=1;entryDx=0;entryDy=0;dashed=1;" edge="1" parent="1">
          <mxGeometry width="50" height="50" relative="1" as="geometry">
            <mxPoint x="966.22" y="150" as="sourcePoint" />
            <mxPoint x="992" y="110" as="targetPoint" />
          </mxGeometry>
        </mxCell>
        <mxCell id="0gGLNNwoWwdXebhI30fq-120" value="" style="endArrow=classic;html=1;rounded=0;dashed=1;" edge="1" parent="1">
          <mxGeometry width="50" height="50" relative="1" as="geometry">
            <mxPoint x="664.22" y="182" as="sourcePoint" />
            <mxPoint x="685" y="222" as="targetPoint" />
          </mxGeometry>
        </mxCell>
        <mxCell id="0gGLNNwoWwdXebhI30fq-121" value="X&lt;sup&gt;0,0&lt;/sup&gt;" style="rounded=1;whiteSpace=wrap;html=1;" vertex="1" parent="1">
          <mxGeometry x="681" y="219" width="50" height="30" as="geometry" />
        </mxCell>
        <mxCell id="0gGLNNwoWwdXebhI30fq-122" value="" style="group" vertex="1" connectable="0" parent="1">
          <mxGeometry x="771" y="220" width="55" height="30" as="geometry" />
        </mxCell>
        <mxCell id="0gGLNNwoWwdXebhI30fq-123" value="X&lt;sup&gt;0,1&lt;/sup&gt;" style="rounded=1;whiteSpace=wrap;html=1;" vertex="1" parent="0gGLNNwoWwdXebhI30fq-122">
          <mxGeometry width="50" height="30" as="geometry" />
        </mxCell>
        <mxCell id="0gGLNNwoWwdXebhI30fq-124" value="" style="rounded=1;whiteSpace=wrap;html=1;" vertex="1" parent="0gGLNNwoWwdXebhI30fq-122">
          <mxGeometry x="45" width="10" height="30" as="geometry" />
        </mxCell>
        <mxCell id="0gGLNNwoWwdXebhI30fq-128" value="X&lt;sup&gt;0,0&lt;/sup&gt;" style="rounded=1;whiteSpace=wrap;html=1;" vertex="1" parent="1">
          <mxGeometry x="968.22" y="80" width="50" height="30" as="geometry" />
        </mxCell>
        <mxCell id="0gGLNNwoWwdXebhI30fq-129" value="X&lt;sup&gt;0,0&lt;/sup&gt;" style="rounded=1;whiteSpace=wrap;html=1;" vertex="1" parent="1">
          <mxGeometry x="915.22" y="150" width="50" height="30" as="geometry" />
        </mxCell>
        <mxCell id="0gGLNNwoWwdXebhI30fq-130" value="X&lt;sup&gt;0,0&lt;/sup&gt;" style="rounded=1;whiteSpace=wrap;html=1;" vertex="1" parent="1">
          <mxGeometry x="868.22" y="220" width="50" height="30" as="geometry" />
        </mxCell>
        <mxCell id="0gGLNNwoWwdXebhI30fq-132" value="" style="endArrow=classic;html=1;rounded=0;entryX=0.5;entryY=1;entryDx=0;entryDy=0;dashed=1;" edge="1" parent="1">
          <mxGeometry width="50" height="50" relative="1" as="geometry">
            <mxPoint x="825.22" y="220" as="sourcePoint" />
            <mxPoint x="851" y="180" as="targetPoint" />
          </mxGeometry>
        </mxCell>
        <mxCell id="0gGLNNwoWwdXebhI30fq-133" value="" style="endArrow=classic;html=1;rounded=0;entryX=0.5;entryY=1;entryDx=0;entryDy=0;dashed=1;" edge="1" parent="1">
          <mxGeometry width="50" height="50" relative="1" as="geometry">
            <mxPoint x="730.22" y="219" as="sourcePoint" />
            <mxPoint x="756" y="179" as="targetPoint" />
          </mxGeometry>
        </mxCell>
        <mxCell id="0gGLNNwoWwdXebhI30fq-134" value="" style="endArrow=classic;html=1;rounded=0;entryX=0.5;entryY=1;entryDx=0;entryDy=0;dashed=1;" edge="1" parent="1">
          <mxGeometry width="50" height="50" relative="1" as="geometry">
            <mxPoint x="915.22" y="221" as="sourcePoint" />
            <mxPoint x="941" y="181" as="targetPoint" />
          </mxGeometry>
        </mxCell>
        <mxCell id="0gGLNNwoWwdXebhI30fq-135" value="" style="endArrow=classic;html=1;rounded=0;dashed=1;" edge="1" parent="1">
          <mxGeometry width="50" height="50" relative="1" as="geometry">
            <mxPoint x="705" y="250" as="sourcePoint" />
            <mxPoint x="726" y="290" as="targetPoint" />
          </mxGeometry>
        </mxCell>
        <mxCell id="0gGLNNwoWwdXebhI30fq-136" value="X&lt;sup&gt;0,0&lt;/sup&gt;" style="rounded=1;whiteSpace=wrap;html=1;" vertex="1" parent="1">
          <mxGeometry x="719" y="290" width="50" height="30" as="geometry" />
        </mxCell>
        <mxCell id="0gGLNNwoWwdXebhI30fq-137" value="" style="endArrow=classic;html=1;rounded=0;entryX=0.5;entryY=1;entryDx=0;entryDy=0;dashed=1;" edge="1" parent="1">
          <mxGeometry width="50" height="50" relative="1" as="geometry">
            <mxPoint x="864.22" y="289" as="sourcePoint" />
            <mxPoint x="890" y="249" as="targetPoint" />
          </mxGeometry>
        </mxCell>
        <mxCell id="0gGLNNwoWwdXebhI30fq-138" value="X&lt;sup&gt;0,0&lt;/sup&gt;" style="rounded=1;whiteSpace=wrap;html=1;" vertex="1" parent="1">
          <mxGeometry x="814.22" y="289" width="50" height="30" as="geometry" />
        </mxCell>
        <mxCell id="0gGLNNwoWwdXebhI30fq-139" value="" style="endArrow=classic;html=1;rounded=0;dashed=1;" edge="1" parent="1">
          <mxGeometry width="50" height="50" relative="1" as="geometry">
            <mxPoint x="748" y="321" as="sourcePoint" />
            <mxPoint x="769" y="361" as="targetPoint" />
          </mxGeometry>
        </mxCell>
        <mxCell id="0gGLNNwoWwdXebhI30fq-140" value="" style="endArrow=classic;html=1;rounded=0;entryX=0.5;entryY=1;entryDx=0;entryDy=0;dashed=1;" edge="1" parent="1">
          <mxGeometry width="50" height="50" relative="1" as="geometry">
            <mxPoint x="814.22" y="359" as="sourcePoint" />
            <mxPoint x="840" y="319" as="targetPoint" />
          </mxGeometry>
        </mxCell>
        <mxCell id="0gGLNNwoWwdXebhI30fq-141" value="X&lt;sup&gt;0,0&lt;/sup&gt;" style="rounded=1;whiteSpace=wrap;html=1;" vertex="1" parent="1">
          <mxGeometry x="766.22" y="358" width="50" height="30" as="geometry" />
        </mxCell>
        <mxCell id="0gGLNNwoWwdXebhI30fq-142" value="" style="endArrow=classic;html=1;rounded=0;dashed=1;" edge="1" parent="1">
          <mxGeometry width="50" height="50" relative="1" as="geometry">
            <mxPoint x="640" y="95" as="sourcePoint" />
            <mxPoint x="680" y="95" as="targetPoint" />
          </mxGeometry>
        </mxCell>
        <mxCell id="0gGLNNwoWwdXebhI30fq-143" value="" style="endArrow=classic;html=1;rounded=0;dashed=1;" edge="1" parent="1">
          <mxGeometry width="50" height="50" relative="1" as="geometry">
            <mxPoint x="736" y="96" as="sourcePoint" />
            <mxPoint x="776" y="96" as="targetPoint" />
          </mxGeometry>
        </mxCell>
        <mxCell id="0gGLNNwoWwdXebhI30fq-144" value="" style="endArrow=classic;html=1;rounded=0;dashed=1;" edge="1" parent="1">
          <mxGeometry width="50" height="50" relative="1" as="geometry">
            <mxPoint x="832" y="97" as="sourcePoint" />
            <mxPoint x="872" y="97" as="targetPoint" />
          </mxGeometry>
        </mxCell>
        <mxCell id="0gGLNNwoWwdXebhI30fq-145" value="" style="endArrow=classic;html=1;rounded=0;dashed=1;" edge="1" parent="1">
          <mxGeometry width="50" height="50" relative="1" as="geometry">
            <mxPoint x="929" y="96" as="sourcePoint" />
            <mxPoint x="969" y="96" as="targetPoint" />
          </mxGeometry>
        </mxCell>
        <mxCell id="0gGLNNwoWwdXebhI30fq-146" value="" style="endArrow=classic;html=1;rounded=0;dashed=1;" edge="1" parent="1">
          <mxGeometry width="50" height="50" relative="1" as="geometry">
            <mxPoint x="681" y="166" as="sourcePoint" />
            <mxPoint x="721" y="166" as="targetPoint" />
          </mxGeometry>
        </mxCell>
        <mxCell id="0gGLNNwoWwdXebhI30fq-147" value="" style="endArrow=classic;html=1;rounded=0;dashed=1;" edge="1" parent="1">
          <mxGeometry width="50" height="50" relative="1" as="geometry">
            <mxPoint x="777" y="166" as="sourcePoint" />
            <mxPoint x="817" y="166" as="targetPoint" />
          </mxGeometry>
        </mxCell>
        <mxCell id="0gGLNNwoWwdXebhI30fq-148" value="" style="endArrow=classic;html=1;rounded=0;dashed=1;" edge="1" parent="1">
          <mxGeometry width="50" height="50" relative="1" as="geometry">
            <mxPoint x="874" y="167" as="sourcePoint" />
            <mxPoint x="914" y="167" as="targetPoint" />
          </mxGeometry>
        </mxCell>
        <mxCell id="0gGLNNwoWwdXebhI30fq-149" value="" style="endArrow=classic;html=1;rounded=0;dashed=1;" edge="1" parent="1">
          <mxGeometry width="50" height="50" relative="1" as="geometry">
            <mxPoint x="828" y="236" as="sourcePoint" />
            <mxPoint x="868" y="236" as="targetPoint" />
          </mxGeometry>
        </mxCell>
        <mxCell id="0gGLNNwoWwdXebhI30fq-150" value="" style="endArrow=classic;html=1;rounded=0;dashed=1;" edge="1" parent="1">
          <mxGeometry width="50" height="50" relative="1" as="geometry">
            <mxPoint x="731" y="235" as="sourcePoint" />
            <mxPoint x="771" y="235" as="targetPoint" />
          </mxGeometry>
        </mxCell>
        <mxCell id="0gGLNNwoWwdXebhI30fq-151" value="" style="endArrow=classic;html=1;rounded=0;dashed=1;" edge="1" parent="1">
          <mxGeometry width="50" height="50" relative="1" as="geometry">
            <mxPoint x="773" y="305" as="sourcePoint" />
            <mxPoint x="813" y="305" as="targetPoint" />
          </mxGeometry>
        </mxCell>
        <mxCell id="0gGLNNwoWwdXebhI30fq-153" value="" style="curved=1;endArrow=classic;html=1;rounded=0;dashed=1;entryX=0;entryY=0.5;entryDx=0;entryDy=0;strokeWidth=0.5;" edge="1" parent="1">
          <mxGeometry width="50" height="50" relative="1" as="geometry">
            <mxPoint x="737" y="96" as="sourcePoint" />
            <mxPoint x="873" y="95" as="targetPoint" />
            <Array as="points">
              <mxPoint x="767" y="66" />
              <mxPoint x="857" y="76" />
            </Array>
          </mxGeometry>
        </mxCell>
        <mxCell id="0gGLNNwoWwdXebhI30fq-154" value="" style="curved=1;endArrow=classic;html=1;rounded=0;dashed=1;entryX=0;entryY=0.5;entryDx=0;entryDy=0;strokeWidth=0.5;" edge="1" parent="1">
          <mxGeometry width="50" height="50" relative="1" as="geometry">
            <mxPoint x="832" y="95" as="sourcePoint" />
            <mxPoint x="968" y="94" as="targetPoint" />
            <Array as="points">
              <mxPoint x="862" y="65" />
              <mxPoint x="952" y="75" />
            </Array>
          </mxGeometry>
        </mxCell>
        <mxCell id="0gGLNNwoWwdXebhI30fq-155" value="" style="curved=1;endArrow=classic;html=1;rounded=0;dashed=1;entryX=0;entryY=0.5;entryDx=0;entryDy=0;strokeWidth=0.5;" edge="1" parent="1">
          <mxGeometry width="50" height="50" relative="1" as="geometry">
            <mxPoint x="681" y="166" as="sourcePoint" />
            <mxPoint x="817" y="165" as="targetPoint" />
            <Array as="points">
              <mxPoint x="711" y="136" />
              <mxPoint x="801" y="146" />
            </Array>
          </mxGeometry>
        </mxCell>
        <mxCell id="0gGLNNwoWwdXebhI30fq-156" value="" style="curved=1;endArrow=classic;html=1;rounded=0;dashed=1;entryX=0;entryY=0.5;entryDx=0;entryDy=0;strokeWidth=0.5;" edge="1" parent="1">
          <mxGeometry width="50" height="50" relative="1" as="geometry">
            <mxPoint x="777" y="166" as="sourcePoint" />
            <mxPoint x="913" y="165" as="targetPoint" />
            <Array as="points">
              <mxPoint x="807" y="136" />
              <mxPoint x="897" y="146" />
            </Array>
          </mxGeometry>
        </mxCell>
        <mxCell id="0gGLNNwoWwdXebhI30fq-157" value="" style="curved=1;endArrow=classic;html=1;rounded=0;dashed=1;entryX=0;entryY=0.5;entryDx=0;entryDy=0;strokeWidth=0.5;" edge="1" parent="1">
          <mxGeometry width="50" height="50" relative="1" as="geometry">
            <mxPoint x="731" y="235" as="sourcePoint" />
            <mxPoint x="867" y="234" as="targetPoint" />
            <Array as="points">
              <mxPoint x="761" y="205" />
              <mxPoint x="851" y="215" />
            </Array>
          </mxGeometry>
        </mxCell>
        <mxCell id="0gGLNNwoWwdXebhI30fq-159" value="" style="curved=1;endArrow=classic;html=1;rounded=0;dashed=1;entryX=0;entryY=0.5;entryDx=0;entryDy=0;strokeWidth=0.5;" edge="1" parent="1" target="0gGLNNwoWwdXebhI30fq-10">
          <mxGeometry width="50" height="50" relative="1" as="geometry">
            <mxPoint x="646.22" y="90" as="sourcePoint" />
            <mxPoint x="782.22" y="89" as="targetPoint" />
            <Array as="points">
              <mxPoint x="676.22" y="60" />
              <mxPoint x="830" y="60" />
            </Array>
          </mxGeometry>
        </mxCell>
        <mxCell id="0gGLNNwoWwdXebhI30fq-160" value="" style="curved=1;endArrow=classic;html=1;rounded=0;dashed=1;entryX=0;entryY=0.5;entryDx=0;entryDy=0;strokeWidth=0.5;" edge="1" parent="1">
          <mxGeometry width="50" height="50" relative="1" as="geometry">
            <mxPoint x="742.22" y="91" as="sourcePoint" />
            <mxPoint x="969" y="96" as="targetPoint" />
            <Array as="points">
              <mxPoint x="772.22" y="61" />
              <mxPoint x="926" y="61" />
            </Array>
          </mxGeometry>
        </mxCell>
        <mxCell id="0gGLNNwoWwdXebhI30fq-161" value="" style="curved=1;endArrow=classic;html=1;rounded=0;dashed=1;entryX=0;entryY=0.5;entryDx=0;entryDy=0;strokeWidth=0.5;" edge="1" parent="1">
          <mxGeometry width="50" height="50" relative="1" as="geometry">
            <mxPoint x="685.22" y="161" as="sourcePoint" />
            <mxPoint x="912" y="166" as="targetPoint" />
            <Array as="points">
              <mxPoint x="715.22" y="131" />
              <mxPoint x="869" y="131" />
            </Array>
          </mxGeometry>
        </mxCell>
        <mxCell id="0gGLNNwoWwdXebhI30fq-162" value="" style="shape=image;verticalLabelPosition=bottom;labelBackgroundColor=#ffffff;verticalAlign=top;aspect=fixed;imageAspect=0;image=data:image/jpeg,/9j/4AAQSkZJRgABAQAAAQABAAD/2wBDAAIBAQEBAQIBAQECAgICAgQDAgICAgUEBAMEBgUGBgYFBgYGBwkIBgcJBwYGCAsICQoKCgoKBggLDAsKDAkKCgr/2wBDAQICAgICAgUDAwUKBwYHCgoKCgoKCgoKCgoKCgoKCgoKCgoKCgoKCgoKCgoKCgoKCgoKCgoKCgoKCgoKCgoKCgr/wAARCAITAi4DASIAAhEBAxEB/8QAHwAAAQUBAQEBAQEAAAAAAAAAAAECAwQFBgcICQoL/8QAtRAAAgEDAwIEAwUFBAQAAAF9AQIDAAQRBRIhMUEGE1FhByJxFDKBkaEII0KxwRVS0fAkM2JyggkKFhcYGRolJicoKSo0NTY3ODk6Q0RFRkdISUpTVFVWV1hZWmNkZWZnaGlqc3R1dnd4eXqDhIWGh4iJipKTlJWWl5iZmqKjpKWmp6ipqrKztLW2t7i5usLDxMXGx8jJytLT1NXW19jZ2uHi4+Tl5ufo6erx8vP09fb3+Pn6/8QAHwEAAwEBAQEBAQEBAQAAAAAAAAECAwQFBgcICQoL/8QAtREAAgECBAQDBAcFBAQAAQJ3AAECAxEEBSExBhJBUQdhcRMiMoEIFEKRobHBCSMzUvAVYnLRChYkNOEl8RcYGRomJygpKjU2Nzg5OkNERUZHSElKU1RVVldYWVpjZGVmZ2hpanN0dXZ3eHl6goOEhYaHiImKkpOUlZaXmJmaoqOkpaanqKmqsrO0tba3uLm6wsPExcbHyMnK0tPU1dbX2Nna4uPk5ebn6Onq8vP09fb3+Pn6/9oADAMBAAIRAxEAPwD+f+iiigAooooAKKKKACiiigAooooAKKKKACiiigAooooAKKKKACiiigAooooAKKKKACiiigAooooAKKKKACiiigAooooAKKKKACiiigAooooAKKKKACiiigAooooAKKKKACiiigAooooAKKKKACiiigAooooAKKKKACiiigAooooAKKKKACiiigAooooAKKKKACiiigAooooAKKKKACiiigAooooAKKKKACiiigAooooAKKKKACiiigAooooAKKKKACiiigAooooAKKKKACiiigAooooAKKKKACiug+Fvwn+Kfxx8d2Pwt+Cnw08QeMPE+qeb/Znhzwto0+oX935cTzSeVbwI8kmyKOSRtqnaqMxwATX0f8FP+CFv/BYH4/eKrjwd4F/4J2/FCwu7bT3vZJvGvh1/DVqY1eNCqXWrm2gklzIpEKuZCodgpVHKgHyhRX3f8W/+DaP/AILR/Bj4NN8ZvFH7GmoajFBqEtvf+GvCWuWOuazbRg2qRXIs9Pmme4ile5dVFv5skYtLiSZIYhHJJ8IUAFFFFABRRRQAUUUUAFFFFABRRRQAUUUUAFFFFABRRRQAUUUUAFFFFABRRRQAUUUUAFFFFABRRRQAUUUUAFFFFABRRRQAUUUUAFFFFABRRRQAUUUUAFFFFABRRRQAUUUUAFFFFABRRRQAUUUUAFFFFABRRRQAUUV7/wD8Eq/2XP8AhtH/AIKO/Bf9mi98Df8ACS6R4l+IFh/wleif2n9j+06FbyfatV/fCWJk26fBdP8Au3Ep24jzIUBAPuD4T/8ABnR/wVN+K/ws8NfFL/hY/wAH/DX/AAkvh+y1X/hHPFmsa5Z6rpX2iBJvsl7b/wBkt5FzFv8ALlj3HY6suTjNev8AwL/4Mhv2p/EH9qf8NL/twfD/AMJeT5H9if8ACC+Hb7xF9rz5nnef9qOm/Z9uItu3zt+98+XsG/8Ao+ooA/BHwn/wY1+FbPxVpl546/4KV6hqOiRahC+s6fpPwlSyurq1DgyxQ3EmqTpBKyblWVoZVRiGMbgbT7h/xBU/8Esv+i+ftAf+FTof/wAp6/X6igD88PCf/Bqx/wAEOfDnhXTPD2sfsjahr93YafDb3Wu6t8SNfS61GRECtczLa3sMCyyEF2EUUcYZjsRFwo+n/Cf/AATJ/wCCbfgLxVpnjrwL/wAE+fgfout6LqEN/o2s6T8J9HtrqwuoXEkVxDLHbB4pUdVdXUhlZQQQRXuFFABRRRQAV8If8FU/+Deb9gz/AIKn6jqXxX8Y6RqHgX4sXWnxwQ/Erwm4El00FvNFarqFm58i+iQyRFmAiunjtYYVuo40Cj7vooA/kC/4KXf8G3X/AAUc/wCCcn9reP8A/hAv+FofDLT/AD7j/hYHgC2kuPsNnH9qk83UrHBuLDZbW3nzS4ls4fNRPtbscV8AV/f5XwB/wUu/4Nuv+Ccf/BRv+1vH/wDwgX/Cr/ibqHn3H/CwPAFtHb/bryT7VJ5upWOBb3++5ufPmlxFeTeUifa0UYoA/kCoroPiz8LfHfwO+Kfib4KfFLQv7L8T+D/EF7oniPTPtUU/2S/tJ3guIfMhZ45NksbruRmVsZUkEGufoAKKKKACiiigAooooAKKKKACiiigAooooAKKKKACiiigAooooAKKKKACiiigAooooAKKKKACiiigAooooAKKKKACiiigAooooAKKKKACiiigAooooAKKKKACiiigAooooAKKKKACiiigAooooAK/Z7/gyo/Zo/4WB+3F8Tv2o9V0nw/e6f8ADb4fxaVZf2jB5l/Zarq9z+5u7PMZWPFpp+pQSSB0cLdhAHSWTb+MNf1m/wDBpn+y/wCKv2cP+CP2geJ/GL6hDd/FbxhqfjWHStT0V7KSwtZUg0+1A3sTPFPb6dFexzhUV471NoZQJHAP0vooooAKKKKACiiigAooooAKKKKACiiigD8Ef+Dxz/glZqOvadpX/BVv4M+HNPSLRdPttC+Myxz29tJJG1xFb6VqYjESvdS75/sUztK8gjXT1SIRQzOn8+Nf3ufFn4W+BPjj8LPE3wU+KWhf2p4Y8YeH73RPEemfapYPtdhdwPBcQ+ZCySR74pHXcjKy5ypBANfxZf8ABWf/AIJ++Kv+CZf7efjr9lLWINQl0TTtQ+3+BNZ1BXZtW0C5JksrjzWggSeVUzbzvEgiF1bXMaEiOgD5wooooAKKKKACiiigAooooAKKKKACiiigAooooAKKKKACiiigAooooAKKKKACiiigAooooAKKKKACiiigAooooAKKKKACiiigAooooAKKKKACiiigAooooAKKKKACiiigAooooAKKKKACiiigDoPhP8LfHfxx+Kfhr4KfC3Qv7U8T+MPEFlonhzTPtUUH2u/u50gt4fMmZI498siLudlVc5YgAmv7rP2evgp4V/Zr+AXgf9nPwLqGoXeieAPB+meG9GutWlSS6mtbG1jtYnmaNERpSkSliqIpYkhVHA/hj/Z6+Nfir9mv4++B/wBozwLp+n3et+APGGmeJNGtdWieS1murG6juokmWN0doi8ShgroxUkBlPI/tN/4Ji/8FC/hZ/wVB/Y28L/tc/C3TP7I/tfzrPxH4Wm1WC7ufD+q277LiymeE/7k0TOsTyW9xbzNFF5oQAHv9FFFABRRRQAUUUUAFFFFABRRRQAUUUUAFfmh/wAHSf8AwTP079u//gnpffHDw9ren6V4y+AGn6t4v0681M3BjvdGSzMuq6cBE+xJZUtbeaOR4pD5lkkWYknllX9L68A/4Kxf8osv2lv+zf8Axl/6Y7ygD+IKiiigAooooAKKKKACiiigAooooAKKKKACiiigAooooAKKKKACiiigAooooAKKKKACiiigAooooAKKKKACiiigAooooAKKKKACiiigAooooAKKKKACiiigAooooAKKKKACiiigAooooAKKKKACvq//AII7/wDBVP4y/wDBKH9rjR/i/wCDvEeoP4E1rULOy+K/hC3gFzHrmjLL+8aOB5Yk+3QI8slrMZEKSMUZjDNPHJ8oUUAf3mfAH4/fBr9qX4NeHv2g/wBnz4haf4q8G+KtPF7oWu6Y5MdxHkqylWAeKVHV45IZFWSKSN45FR0ZR2Ffyhf8Guv/AAVc8d/sOftxaJ+yt4suvEGtfDL43eILLw+fDdjdxGHSPEl5c29tZawkUo+ltOI3iLwyLIwna0giP9XtABRRRQAUUUUAFFFFABRRRQAUUUUAFeAf8FYv+UWX7S3/AGb/AOMv/THeV7/Xh/8AwU28J+KvHv8AwTb/AGg/AvgXwzqGta3rXwP8WWGjaNpNk9zdX91No91HFbwxRgvLK7sqKigszMAASaAP4c6KKKACiiigAooooAKKKKACiiigAooooAKKKKACiiigAooooAKKKKACiiigAooooAKKKKACiiigAooooAKKKKACiiigAooooAKKKKACiiigAooooAKKKKACiiigAooooAKKKKACiiigAooooAKKKKACv7nP+Cfn7S//AA2R+w78Jv2o7nVvD93qHjn4f6Xquvf8ItP5lha6rJbJ9vtIsySMnkXYngaN3Z42hZHO9Gr+GOv6bv8AgzB/a81H4vfsGeN/2R/Ed7qFzd/BzxglxozSWFvHa22jayJriK2jkjIkmlF9barM5lUlVuYVV2UbIgD9jqKKKACiiigAooooAKKKKACiivL/ANr39tD9mD9gv4NT/H/9rj4v6f4L8KQ6hBYLqF7BNPJc3UxIjt4Le3SSe5lIV3KRI7LHFLIwCRuygHoHizxZ4V8BeFdT8deOvE2n6Lomi6fNf6zrOrXqW1rYWsKGSW4mlkISKJEVnZ2IVVUkkAV/Mj/wXR/4Og/in+2t/wAJn+x1+w7cf8Ix8EtQ26bqXjD7NPb674wtl81blMsw+xabc7kH2fyxcSxRYmdEuZrNfnD/AILj/wDBcf4y/wDBXr4yppelxah4V+C/hXUHfwH4DlmAknkw0f8AaupeWxSW+dGYKgLR2scjRRFi889x8IUAFFFFABRRRQAUUUUAFFFFABRRRQAUUUUAFFFFABRRRQAUUUUAFFFFABRRRQAUUUUAFFFFABRRRQAUUUUAFFFFABRRRQAUUUUAFFFFABRRRQAUUUUAFFFFABRRRQAUUUUAFFFFABRRRQAUUUUAFFFFABX3/wD8G3X/AAUu/wCHcn/BR3Qf+E/8Wf2f8Mvih5XhX4gfbL/yrOy82QfYdVl8y5ht4vstyV8y5m3+TZ3F9sUtIK+AKKAP7/KK+IP+Ddz9unWP2+/+CVHw++I/jzxn/bnjbwl5/g/x5eut40z39gVEEtxNds7XVzPp8lhdTTq7q81zJ9xg0afb9ABRRRQAUUUUAFFFFABX8aX/AAXa/wCCofir/gqN+3n4m+Iej+NtQvfhb4V1CfR/hHo0k7i1t9MjKRvqEcTwQPHLfvCLt/Nj89Fkht3d1totv7P/APB3d/wVT079nD9l+P8A4Jz/AAo8R6ha/EL4tafBe+KZrSC4hWw8I+dMkirdRyxjzby4tjamHEyParepMsfmwl/5kaACiiigAooooAKKKKACiiigAooooAKKKKACiiigAooooAKKKKACiiigAooooAKKKKACiiigAooooAKKKKACiiigAooooAKKKKACiiigAooooAKKKKACiiigAooooAKKKKACiiigAooooAKKKKACiiigAooooAKKKKAPYP2Ov2/P2yf+Cf8A47m+Iv7Hn7QniDwNqF3t/tO306ZJrDU9kU8Uf2yxnWS1vPLW5mMfnxP5TSF02uAw/oe/4Jo/8He/7G37TP8AZPwt/bn8Pf8AClvG1z5Fr/wkfmvdeFdSuW+yw7/tGPO0vzJpbiTZcq9vbwQbpb5mOK/mBooA/v8AKK/ji/4JR/8ABfP9uL/glNrEXhnwT4g/4Tv4ZS+TFe/C/wAYancyWFnCLxrmaTS2D/8AEruZPNuQZER4Xa4Mk0E7Rx7P3e/Zo/4O4v8AgkL8YPhZaeLPjp8SPEHwk8Tjy4tU8Ja/4S1LVNk3kRPLJbXWmW08c9sJXkiSSUQTP5LM0EQZcgH6f0V8Af8AEUd/wQo/6Pm/8xl4n/8AlZR/xFHf8EKP+j5v/MZeJ/8A5WUAff8AXn/7VX7S/wALP2N/2cfGn7Ufxr1b7J4Y8DeH7jVdT2TwRzXXlr+7tLfz5I43uZ5THBDGzr5k00aA5cV8gf8AEUd/wQo/6Pm/8xl4n/8AlZX5If8ABzz/AMF5/hn+3xp3g39lD9gn44ahrHwnTTzrHxC1Cys73TY9f1P7Ri10+e3vLSCcxWggFyMO8Esl5ExQSWcbAA/NH9vz9sXx3/wUA/bJ+IX7YfxFs/smoeOfED3dvpnmRSf2ZYRosFjY+ZFDCs32e0it4POMatL5PmON7sT4/RRQAUUUUAFFFFABRRRQAUUUUAFFFFABRRRQAUUUUAFFFFABRRRQAUUUUAFFFFABRRRQAUUUUAFFFFABRRRQAUUUUAFFFFABRRRQAUUUUAFFFFABRRRQAUUUUAFFFFABRRRQAUUUUAFFFFABRRRQAUUUUAFFFFABRRRQAUUUUAFFFFABRRRQAUUUUAFFFFABRRRQAUUUUAFFFFABRRRQAUUUUAFFFFABRRRQAUUUUAFFFFABRRRQAUUUUAFFFFABRRRQAUUUUAFFFFABRRRQAUUUUAFFFFABRRRQAUUUUAFFFFABRRRQAUUUUAFFFFABRRRQAUUUUAFFFFABRRRQAUUUUAFFFFABRRRQAUUUUAFFFFABRRRQAUUUUAFFFFABRRRQAUUUUAFFFFABRRRQAUUUUAFFFFABRRRQAUUUUAFFFFABRRRQAUUUUAFFFFABRRRQAUUUUAFFFFABRRRQAUUUUAFFFFABRRRQAUUUUAFFFFABRRRQAUUUUAFFFFABRRRQAUUUUAFFFFABRRRQAUUUUAFFFFABRRRQAUUUUAFFFFABRRRQAUUUUAFFFFABRRRQAUUUUAFFFFABRRRQAUUUUAFFFFABRRRQAUUUUAFFFFABRRRQAUUUUAFFFFABRRRQAUUUUAFFFFABRRRQAUUUUAFFFFABRRRQAUUUUAFFFFABRRRQAUUUUAFFFFABRRRQAUUUUAFFFFABRRRQAUUUUAFFFFABRRRQAUUUUAFFFFABRRRQAUUUUAFFFFABRRRQAUUUUAFFFFABRRRQAUUUUAFFFFABRRRQAUUUUAFFFFABRRRQAUUUUAFFFFABRRRQAUUUUAFFFFABRRRQAUUUUAFFFFABRRRQAUUUUAFFFFABRRRQAUUUUAFFFFABRRRQAUUUUAFFFFABRRRQAUUUUAFFFFABRRRQAUUUUAFFFFABRRRQAUUUUAFFFFABRRRQAUUUUAFFFFABRRRQAUUUUAFFFFABRRRQAUUUUAFFFFABRRRQAUUUUAFFFFABRRRQAUUUUAFFFFABRRRQAUUUUAFFFFABRRRQAUUUUAFFFFABRRRQAUUUUAFFFFABRRRQAUUUUAFFFFABRRRQAUUUUAFFFFABRRRQAUUUUAFFFFABRRRQAUUUUAFFFFABRRRQAUUUUAFFFFABRRRQAUUUUAFFFFABRRRQAUUUUAFFFFABRRRQAUUUUAFFFFABRRRQAUUUUAFFFFABRRRQAUUUUAFFFFABRRRQAUUUUAFFFFABRRRQAUUUUAFFFFABRRRQAUUUUAFFFFABRRRQAUUUUAFFFFABRRRQAUUUUAFFFFABRRRQAUUUUAFFFFABRRRQAUUUUAFFFFABRRRQAUUUUAFFFFABRRRQAUUUUAFFFFABRRRQAUUUUAFFFFABRRRQAUUUUAFFFFABRRRQAUUUUAFFFFABRRRQAUUUUAFFFFABRRRQAUUUUAFFFFABRRRQAUUUUAFFFFABRRRQAUUUUAFFFFABRRRQAUUUUAFFFFABRRRQAUUUUAFFFFABRRRQAUUUUAFFFFABRRRQAUUUUAFFFFABRRRQAUUUUAFFFFABRRRQAUUUUAFFFFABRRRQAUUUUAFFFFABRRRQAUUUUAFFFFABRRRQAUUUUAFFFFABRRRQAUUUUAFFFFABRRRQAUUUUAFFFFABRRRQAUUUUAFFFFABRRRQAUUUUAFFFFABRRRQAUUUUAFFFFABRRRQAUUUUAFFFFABRRRQAUUUUAFFFFABRRRQAUUUUAFFFFABRRRQAUUUUAFFFFABRRRQAUUUUAFFFFABRRRQAUUUUAFFFFABRRRQAUUUUAFFFFABRRRQAUUUUAFFFFABRRRQAUUUUAFFFFABRRRQAUUUUAFFFFABRRRQAUUUUAFFFFABRRRQAUUUUAFFFFABRRRQAUUUUAFFFFABRRRQAUUUUAFFFFABRRRQAUUUUAFFFFABRRRQAUUUUAFFFFABRRRQAUUUUAFFFFABRRRQAUUUUAFFFFABRRRQAUUUUAFFFFABRRRQAUUUUAFFFFABRRRQAUUUUAFFFFABRRRQAUUUUAFFFFABRRRQAUUUUAFFFFABRRRQAUUUUAFFFFABRRRQAUUUUAFFFFABRRRQAUUUUAFFFFABRRRQAUUUUAFFFFABRRRQAUUUUAFFFFABRRRQAUUUUAFFFFABRRRQAUUUUAFFFFABRRRQAUUUUAFFFFABRRRQAUUUUAFFFFABRRRQAUUUUAFFFFABRRRQAUUUUAFFFFABRRRQAUUUUAFFFFABRRRQAUUUUAFFFFABRRRQAUUUUAFFFFABRRRQAUUUUAFFFFABRRRQAUUUUAFFFFABRRRQAUUUUAFFFFABRRRQAUUUUAFFFFABRRRQAUUUUAFFFFABRRRQAUUUUAFFFFABRRRQAUUUUAFFFFABRRRQAUUUUAFFFFABRRRQAUUUUAFFFFABRRRQAUUUUAFFFFABRRRQAUUUUAFFFFABRRRQAUUUUAFFFFABRRRQAUUUUAFFFFABRRRQAUUUUAFFFFABRRRQAUUUUAFFFFABRRRQAUUUUAFFFFABRRRQAUUUUAFFFFABRRRQAUUUUAFFFFABRRRQAUUUUAFFFFABRRRQAUUUUAFFFFABRRRQAUUUUAFFFFABRRRQAUUUUAFFFFABRRRQAUUUUAFFFFABRRRQAUUUUAFFFFABRRRQAUUUUAFFFFABRRRQAUUUUAFFFFABRRRQAUUUUAFFFFABRRRQAUUUUAFFFFABRRRQAUUUUAFFFFABRRRQAUUUUAFFFFABRRRQAUUUUAFFFFABRRRQAUUUUAFFFFABRRRQAUUUUAFFFFABRRRQAUUUUAFFFFABRRRQAUUUUAFFFFABRRRQAUUUUAFFFFABRRRQAUUUUAFFFFABRRRQAUUUUAFFFFABRRRQAUUUUAFFFFABRRRQAUUUUAFFFFABRRRQAUUUUAFFFFABRRRQAUUUUAFFFFABRRRQAUUUUAFFFFABRRRQAUUUUAFFFFABRRRQAUUUUAFFFFABRRRQAUUUUAFFFFABRRRQAUUUUAFFFFABRRRQAUUUUAFFFFABRRRQAUUUUAFFFFABRRRQAUUUUAFFFFABRRRQAUUUUAFFFFABRRRQAUUUUAFFFFABRRRQAUUUUAFFFFABRRRQAUUUUAFFFFABRRRQAUUUUAFFFFABRRRQAUUUUAFFFFABRRRQAUUUUAFFFFABRRRQAUUUUAFFFFABRRRQAUUUUAFFFFABRRRQAUUUUAFFFFABRRRQAUUUUAFFFFABRRRQAUUUUAFFFFABRRRQAUUUUAFFFFABRRRQAUUUUAFFFFABRRRQAUUUUAFFFFABRRRQAUUUUAFFFFABRRRQAUUUUAFFFFABRRRQAUUUUAFFFFABRRRQAUUUUAFFFFABRRRQAUUUUAFFFFABRRRQAUUUUAFFFFABRRRQAUUUUAFFFFABRRRQAUUUUAFFFFABRRRQAUUUUAFFFFABRRRQAUUUUAFFFFABRRRQAUUUUAFFFFABRRRQAUUUUAFFFFABRRRQAUUUUAFFFFABRRRQAUUUUAFFFFABRRRQAUUUUAFFFFABRRRQAUUUUAFFFFABRRRQAUUUUAFFFFABRRRQAUUUUAFFFFABRRRQAUUUUAFFFFABRRRQAUUUUAFFFFABRRRQAUUUUAFFFFABRRRQAUUUUAFFFFABRRRQAUUUUAFFFFABRRRQAUUUUAFFFFABRRRQAUUUUAFFFFABRRRQAUUUUAFFFFABRRRQAUUUUAFFFFABRRRQAUUUUAFFFFABRRRQAUUUUAFFFFABRRRQAUUUUAFFFFABRRRQAUUUUAFFFFABRRRQAUUUUAFFFFABRRRQAUUUUAFFFFABRRRQAUUUUAFFFFABRRRQAUUUUAFFFFABRRRQAUUUUAFFFFABRRRQAUUUUAFFFFABRRRQAUUUUAFFFFABRRRQAUUUUAFFFFABRRRQAUUUUAFFFFABRRRQAUUUUAFFFFABRRRQAUUUUAFFFFABRRRQAUUUUAFFFFABRRRQAUUUUAFFFFABRRRQAUUUUAFFFFABRRRQAUUUUAFFFFABRRRQAUUUUAFFFFABRRRQAUUUUAFFFFABRRRQAUUUUAFFFFABRRRQAUUUUAFFFFABRRRQAUUUUAFFFFABRRRQAUUUUAFFFFABRRRQAUUUUAFFFFABRRRQAUUUUAFFFFABRRRQAUUUUAFFFFABRRRQAUUUUAFFFFABRRRQAUUUUAFFFFABRRRQAUUUUAFFFFABRRRQAUUUUAFFFFABRRRQAUUUUAFFFFABRRRQAUUUUAFFFFABRRRQAUUUUAFFFFABRRRQAUUUUAFFFFABRRRQAUUUUAFFFFABRRRQAUUUUAFFFFABRRRQAUUUUAFFFFABRRRQAUUUUAFFFFABRRRQAUUUUAFFFFABRRRQAUUUUAFFFFABRRRQAUUUUAFFFFABRRRQAUUUUAFFFFABRRRQAUUUUAFFFFABRRRQAUUUUAFFFFABRRRQAUUUUAFFFFABRRRQAUUUUAFFFFABRRRQAUUUUAFFFFABRRRQAUUUUAFFFFABRRRQAUUUUAFFFFABRRRQAUUUUAFFFFABRRRQAUUUUAFFFFABRRRQAUUUUAFFFFABRRRQAUUUUAFFFFABRRRQAUUUUAFFFFABRRRQAUUUUAFFFFABRRRQAUUUUAFFFFABRRRQAUUUUAFFFFABRRRQB//Z;fontFamily=Times New Roman;sketch=0;fontStyle=1" vertex="1" parent="1">
          <mxGeometry x="896.22" y="297.5" width="22.07" height="21" as="geometry" />
        </mxCell>
        <mxCell id="0gGLNNwoWwdXebhI30fq-163" value="" style="shape=image;verticalLabelPosition=bottom;labelBackgroundColor=#ffffff;verticalAlign=top;aspect=fixed;imageAspect=0;image=data:image/jpeg,/9j/4AAQSkZJRgABAQAAAQABAAD/2wBDAAIBAQEBAQIBAQECAgICAgQDAgICAgUEBAMEBgUGBgYFBgYGBwkIBgcJBwYGCAsICQoKCgoKBggLDAsKDAkKCgr/2wBDAQICAgICAgUDAwUKBwYHCgoKCgoKCgoKCgoKCgoKCgoKCgoKCgoKCgoKCgoKCgoKCgoKCgoKCgoKCgoKCgoKCgr/wAARCAITAi4DASIAAhEBAxEB/8QAHwAAAQUBAQEBAQEAAAAAAAAAAAECAwQFBgcICQoL/8QAtRAAAgEDAwIEAwUFBAQAAAF9AQIDAAQRBRIhMUEGE1FhByJxFDKBkaEII0KxwRVS0fAkM2JyggkKFhcYGRolJicoKSo0NTY3ODk6Q0RFRkdISUpTVFVWV1hZWmNkZWZnaGlqc3R1dnd4eXqDhIWGh4iJipKTlJWWl5iZmqKjpKWmp6ipqrKztLW2t7i5usLDxMXGx8jJytLT1NXW19jZ2uHi4+Tl5ufo6erx8vP09fb3+Pn6/8QAHwEAAwEBAQEBAQEBAQAAAAAAAAECAwQFBgcICQoL/8QAtREAAgECBAQDBAcFBAQAAQJ3AAECAxEEBSExBhJBUQdhcRMiMoEIFEKRobHBCSMzUvAVYnLRChYkNOEl8RcYGRomJygpKjU2Nzg5OkNERUZHSElKU1RVVldYWVpjZGVmZ2hpanN0dXZ3eHl6goOEhYaHiImKkpOUlZaXmJmaoqOkpaanqKmqsrO0tba3uLm6wsPExcbHyMnK0tPU1dbX2Nna4uPk5ebn6Onq8vP09fb3+Pn6/9oADAMBAAIRAxEAPwD+f+iiigAooooAKKKKACiiigAooooAKKKKACiiigAooooAKKKKACiiigAooooAKKKKACiiigAooooAKKKKACiiigAooooAKKKKACiiigAooooAKKKKACiiigAooooAKKKKACiiigAooooAKKKKACiiigAooooAKKKKACiiigAooooAKKKKACiiigAooooAKKKKACiiigAooooAKKKKACiiigAooooAKKKKACiiigAooooAKKKKACiiigAooooAKKKKACiiigAooooAKKKKACiiigAooooAKKKKACiug+Fvwn+Kfxx8d2Pwt+Cnw08QeMPE+qeb/Znhzwto0+oX935cTzSeVbwI8kmyKOSRtqnaqMxwATX0f8FP+CFv/BYH4/eKrjwd4F/4J2/FCwu7bT3vZJvGvh1/DVqY1eNCqXWrm2gklzIpEKuZCodgpVHKgHyhRX3f8W/+DaP/AILR/Bj4NN8ZvFH7GmoajFBqEtvf+GvCWuWOuazbRg2qRXIs9Pmme4ile5dVFv5skYtLiSZIYhHJJ8IUAFFFFABRRRQAUUUUAFFFFABRRRQAUUUUAFFFFABRRRQAUUUUAFFFFABRRRQAUUUUAFFFFABRRRQAUUUUAFFFFABRRRQAUUUUAFFFFABRRRQAUUUUAFFFFABRRRQAUUUUAFFFFABRRRQAUUUUAFFFFABRRRQAUUV7/wD8Eq/2XP8AhtH/AIKO/Bf9mi98Df8ACS6R4l+IFh/wleif2n9j+06FbyfatV/fCWJk26fBdP8Au3Ep24jzIUBAPuD4T/8ABnR/wVN+K/ws8NfFL/hY/wAH/DX/AAkvh+y1X/hHPFmsa5Z6rpX2iBJvsl7b/wBkt5FzFv8ALlj3HY6suTjNev8AwL/4Mhv2p/EH9qf8NL/twfD/AMJeT5H9if8ACC+Hb7xF9rz5nnef9qOm/Z9uItu3zt+98+XsG/8Ao+ooA/BHwn/wY1+FbPxVpl546/4KV6hqOiRahC+s6fpPwlSyurq1DgyxQ3EmqTpBKyblWVoZVRiGMbgbT7h/xBU/8Esv+i+ftAf+FTof/wAp6/X6igD88PCf/Bqx/wAEOfDnhXTPD2sfsjahr93YafDb3Wu6t8SNfS61GRECtczLa3sMCyyEF2EUUcYZjsRFwo+n/Cf/AATJ/wCCbfgLxVpnjrwL/wAE+fgfout6LqEN/o2s6T8J9HtrqwuoXEkVxDLHbB4pUdVdXUhlZQQQRXuFFABRRRQAV8If8FU/+Deb9gz/AIKn6jqXxX8Y6RqHgX4sXWnxwQ/Erwm4El00FvNFarqFm58i+iQyRFmAiunjtYYVuo40Cj7vooA/kC/4KXf8G3X/AAUc/wCCcn9reP8A/hAv+FofDLT/AD7j/hYHgC2kuPsNnH9qk83UrHBuLDZbW3nzS4ls4fNRPtbscV8AV/f5XwB/wUu/4Nuv+Ccf/BRv+1vH/wDwgX/Cr/ibqHn3H/CwPAFtHb/bryT7VJ5upWOBb3++5ufPmlxFeTeUifa0UYoA/kCoroPiz8LfHfwO+Kfib4KfFLQv7L8T+D/EF7oniPTPtUU/2S/tJ3guIfMhZ45NksbruRmVsZUkEGufoAKKKKACiiigAooooAKKKKACiiigAooooAKKKKACiiigAooooAKKKKACiiigAooooAKKKKACiiigAooooAKKKKACiiigAooooAKKKKACiiigAooooAKKKKACiiigAooooAKKKKACiiigAooooAK/Z7/gyo/Zo/4WB+3F8Tv2o9V0nw/e6f8ADb4fxaVZf2jB5l/Zarq9z+5u7PMZWPFpp+pQSSB0cLdhAHSWTb+MNf1m/wDBpn+y/wCKv2cP+CP2geJ/GL6hDd/FbxhqfjWHStT0V7KSwtZUg0+1A3sTPFPb6dFexzhUV471NoZQJHAP0vooooAKKKKACiiigAooooAKKKKACiiigD8Ef+Dxz/glZqOvadpX/BVv4M+HNPSLRdPttC+Myxz29tJJG1xFb6VqYjESvdS75/sUztK8gjXT1SIRQzOn8+Nf3ufFn4W+BPjj8LPE3wU+KWhf2p4Y8YeH73RPEemfapYPtdhdwPBcQ+ZCySR74pHXcjKy5ypBANfxZf8ABWf/AIJ++Kv+CZf7efjr9lLWINQl0TTtQ+3+BNZ1BXZtW0C5JksrjzWggSeVUzbzvEgiF1bXMaEiOgD5wooooAKKKKACiiigAooooAKKKKACiiigAooooAKKKKACiiigAooooAKKKKACiiigAooooAKKKKACiiigAooooAKKKKACiiigAooooAKKKKACiiigAooooAKKKKACiiigAooooAKKKKACiiigDoPhP8LfHfxx+Kfhr4KfC3Qv7U8T+MPEFlonhzTPtUUH2u/u50gt4fMmZI498siLudlVc5YgAmv7rP2evgp4V/Zr+AXgf9nPwLqGoXeieAPB+meG9GutWlSS6mtbG1jtYnmaNERpSkSliqIpYkhVHA/hj/Z6+Nfir9mv4++B/wBozwLp+n3et+APGGmeJNGtdWieS1murG6juokmWN0doi8ShgroxUkBlPI/tN/4Ji/8FC/hZ/wVB/Y28L/tc/C3TP7I/tfzrPxH4Wm1WC7ufD+q277LiymeE/7k0TOsTyW9xbzNFF5oQAHv9FFFABRRRQAUUUUAFFFFABRRRQAUUUUAFfmh/wAHSf8AwTP079u//gnpffHDw9ren6V4y+AGn6t4v0681M3BjvdGSzMuq6cBE+xJZUtbeaOR4pD5lkkWYknllX9L68A/4Kxf8osv2lv+zf8Axl/6Y7ygD+IKiiigAooooAKKKKACiiigAooooAKKKKACiiigAooooAKKKKACiiigAooooAKKKKACiiigAooooAKKKKACiiigAooooAKKKKACiiigAooooAKKKKACiiigAooooAKKKKACiiigAooooAKKKKACvq//AII7/wDBVP4y/wDBKH9rjR/i/wCDvEeoP4E1rULOy+K/hC3gFzHrmjLL+8aOB5Yk+3QI8slrMZEKSMUZjDNPHJ8oUUAf3mfAH4/fBr9qX4NeHv2g/wBnz4haf4q8G+KtPF7oWu6Y5MdxHkqylWAeKVHV45IZFWSKSN45FR0ZR2Ffyhf8Guv/AAVc8d/sOftxaJ+yt4suvEGtfDL43eILLw+fDdjdxGHSPEl5c29tZawkUo+ltOI3iLwyLIwna0giP9XtABRRRQAUUUUAFFFFABRRRQAUUUUAFeAf8FYv+UWX7S3/AGb/AOMv/THeV7/Xh/8AwU28J+KvHv8AwTb/AGg/AvgXwzqGta3rXwP8WWGjaNpNk9zdX91No91HFbwxRgvLK7sqKigszMAASaAP4c6KKKACiiigAooooAKKKKACiiigAooooAKKKKACiiigAooooAKKKKACiiigAooooAKKKKACiiigAooooAKKKKACiiigAooooAKKKKACiiigAooooAKKKKACiiigAooooAKKKKACiiigAooooAKKKKACv7nP+Cfn7S//AA2R+w78Jv2o7nVvD93qHjn4f6Xquvf8ItP5lha6rJbJ9vtIsySMnkXYngaN3Z42hZHO9Gr+GOv6bv8AgzB/a81H4vfsGeN/2R/Ed7qFzd/BzxglxozSWFvHa22jayJriK2jkjIkmlF9barM5lUlVuYVV2UbIgD9jqKKKACiiigAooooAKKKKACiivL/ANr39tD9mD9gv4NT/H/9rj4v6f4L8KQ6hBYLqF7BNPJc3UxIjt4Le3SSe5lIV3KRI7LHFLIwCRuygHoHizxZ4V8BeFdT8deOvE2n6Lomi6fNf6zrOrXqW1rYWsKGSW4mlkISKJEVnZ2IVVUkkAV/Mj/wXR/4Og/in+2t/wAJn+x1+w7cf8Ix8EtQ26bqXjD7NPb674wtl81blMsw+xabc7kH2fyxcSxRYmdEuZrNfnD/AILj/wDBcf4y/wDBXr4yppelxah4V+C/hXUHfwH4DlmAknkw0f8AaupeWxSW+dGYKgLR2scjRRFi889x8IUAFFFFABRRRQAUUUUAFFFFABRRRQAUUUUAFFFFABRRRQAUUUUAFFFFABRRRQAUUUUAFFFFABRRRQAUUUUAFFFFABRRRQAUUUUAFFFFABRRRQAUUUUAFFFFABRRRQAUUUUAFFFFABRRRQAUUUUAFFFFABX3/wD8G3X/AAUu/wCHcn/BR3Qf+E/8Wf2f8Mvih5XhX4gfbL/yrOy82QfYdVl8y5ht4vstyV8y5m3+TZ3F9sUtIK+AKKAP7/KK+IP+Ddz9unWP2+/+CVHw++I/jzxn/bnjbwl5/g/x5eut40z39gVEEtxNds7XVzPp8lhdTTq7q81zJ9xg0afb9ABRRRQAUUUUAFFFFABX8aX/AAXa/wCCofir/gqN+3n4m+Iej+NtQvfhb4V1CfR/hHo0k7i1t9MjKRvqEcTwQPHLfvCLt/Nj89Fkht3d1totv7P/APB3d/wVT079nD9l+P8A4Jz/AAo8R6ha/EL4tafBe+KZrSC4hWw8I+dMkirdRyxjzby4tjamHEyParepMsfmwl/5kaACiiigAooooAKKKKACiiigAooooAKKKKACiiigAooooAKKKKACiiigAooooAKKKKACiiigAooooAKKKKACiiigAooooAKKKKACiiigAooooAKKKKACiiigAooooAKKKKACiiigAooooAKKKKACiiigAooooAKKKKAPYP2Ov2/P2yf+Cf8A47m+Iv7Hn7QniDwNqF3t/tO306ZJrDU9kU8Uf2yxnWS1vPLW5mMfnxP5TSF02uAw/oe/4Jo/8He/7G37TP8AZPwt/bn8Pf8AClvG1z5Fr/wkfmvdeFdSuW+yw7/tGPO0vzJpbiTZcq9vbwQbpb5mOK/mBooA/v8AKK/ji/4JR/8ABfP9uL/glNrEXhnwT4g/4Tv4ZS+TFe/C/wAYancyWFnCLxrmaTS2D/8AEruZPNuQZER4Xa4Mk0E7Rx7P3e/Zo/4O4v8AgkL8YPhZaeLPjp8SPEHwk8Tjy4tU8Ja/4S1LVNk3kRPLJbXWmW08c9sJXkiSSUQTP5LM0EQZcgH6f0V8Af8AEUd/wQo/6Pm/8xl4n/8AlZR/xFHf8EKP+j5v/MZeJ/8A5WUAff8AXn/7VX7S/wALP2N/2cfGn7Ufxr1b7J4Y8DeH7jVdT2TwRzXXlr+7tLfz5I43uZ5THBDGzr5k00aA5cV8gf8AEUd/wQo/6Pm/8xl4n/8AlZX5If8ABzz/AMF5/hn+3xp3g39lD9gn44ahrHwnTTzrHxC1Cys73TY9f1P7Ri10+e3vLSCcxWggFyMO8Esl5ExQSWcbAA/NH9vz9sXx3/wUA/bJ+IX7YfxFs/smoeOfED3dvpnmRSf2ZYRosFjY+ZFDCs32e0it4POMatL5PmON7sT4/RRQAUUUUAFFFFABRRRQAUUUUAFFFFABRRRQAUUUUAFFFFABRRRQAUUUUAFFFFABRRRQAUUUUAFFFFABRRRQAUUUUAFFFFABRRRQAUUUUAFFFFABRRRQAUUUUAFFFFABRRRQAUUUUAFFFFABRRRQAUUUUAFFFFABRRRQAUUUUAFFFFABRRRQAUUUUAFFFFABRRRQAUUUUAFFFFABRRRQAUUUUAFFFFABRRRQAUUUUAFFFFABRRRQAUUUUAFFFFABRRRQAUUUUAFFFFABRRRQAUUUUAFFFFABRRRQAUUUUAFFFFABRRRQAUUUUAFFFFABRRRQAUUUUAFFFFABRRRQAUUUUAFFFFABRRRQAUUUUAFFFFABRRRQAUUUUAFFFFABRRRQAUUUUAFFFFABRRRQAUUUUAFFFFABRRRQAUUUUAFFFFABRRRQAUUUUAFFFFABRRRQAUUUUAFFFFABRRRQAUUUUAFFFFABRRRQAUUUUAFFFFABRRRQAUUUUAFFFFABRRRQAUUUUAFFFFABRRRQAUUUUAFFFFABRRRQAUUUUAFFFFABRRRQAUUUUAFFFFABRRRQAUUUUAFFFFABRRRQAUUUUAFFFFABRRRQAUUUUAFFFFABRRRQAUUUUAFFFFABRRRQAUUUUAFFFFABRRRQAUUUUAFFFFABRRRQAUUUUAFFFFABRRRQAUUUUAFFFFABRRRQAUUUUAFFFFABRRRQAUUUUAFFFFABRRRQAUUUUAFFFFABRRRQAUUUUAFFFFABRRRQAUUUUAFFFFABRRRQAUUUUAFFFFABRRRQAUUUUAFFFFABRRRQAUUUUAFFFFABRRRQAUUUUAFFFFABRRRQAUUUUAFFFFABRRRQAUUUUAFFFFABRRRQAUUUUAFFFFABRRRQAUUUUAFFFFABRRRQAUUUUAFFFFABRRRQAUUUUAFFFFABRRRQAUUUUAFFFFABRRRQAUUUUAFFFFABRRRQAUUUUAFFFFABRRRQAUUUUAFFFFABRRRQAUUUUAFFFFABRRRQAUUUUAFFFFABRRRQAUUUUAFFFFABRRRQAUUUUAFFFFABRRRQAUUUUAFFFFABRRRQAUUUUAFFFFABRRRQAUUUUAFFFFABRRRQAUUUUAFFFFABRRRQAUUUUAFFFFABRRRQAUUUUAFFFFABRRRQAUUUUAFFFFABRRRQAUUUUAFFFFABRRRQAUUUUAFFFFABRRRQAUUUUAFFFFABRRRQAUUUUAFFFFABRRRQAUUUUAFFFFABRRRQAUUUUAFFFFABRRRQAUUUUAFFFFABRRRQAUUUUAFFFFABRRRQAUUUUAFFFFABRRRQAUUUUAFFFFABRRRQAUUUUAFFFFABRRRQAUUUUAFFFFABRRRQAUUUUAFFFFABRRRQAUUUUAFFFFABRRRQAUUUUAFFFFABRRRQAUUUUAFFFFABRRRQAUUUUAFFFFABRRRQAUUUUAFFFFABRRRQAUUUUAFFFFABRRRQAUUUUAFFFFABRRRQAUUUUAFFFFABRRRQAUUUUAFFFFABRRRQAUUUUAFFFFABRRRQAUUUUAFFFFABRRRQAUUUUAFFFFABRRRQAUUUUAFFFFABRRRQAUUUUAFFFFABRRRQAUUUUAFFFFABRRRQAUUUUAFFFFABRRRQAUUUUAFFFFABRRRQAUUUUAFFFFABRRRQAUUUUAFFFFABRRRQAUUUUAFFFFABRRRQAUUUUAFFFFABRRRQAUUUUAFFFFABRRRQAUUUUAFFFFABRRRQAUUUUAFFFFABRRRQAUUUUAFFFFABRRRQAUUUUAFFFFABRRRQAUUUUAFFFFABRRRQAUUUUAFFFFABRRRQAUUUUAFFFFABRRRQAUUUUAFFFFABRRRQAUUUUAFFFFABRRRQAUUUUAFFFFABRRRQAUUUUAFFFFABRRRQAUUUUAFFFFABRRRQAUUUUAFFFFABRRRQAUUUUAFFFFABRRRQAUUUUAFFFFABRRRQAUUUUAFFFFABRRRQAUUUUAFFFFABRRRQAUUUUAFFFFABRRRQAUUUUAFFFFABRRRQAUUUUAFFFFABRRRQAUUUUAFFFFABRRRQAUUUUAFFFFABRRRQAUUUUAFFFFABRRRQAUUUUAFFFFABRRRQAUUUUAFFFFABRRRQAUUUUAFFFFABRRRQAUUUUAFFFFABRRRQAUUUUAFFFFABRRRQAUUUUAFFFFABRRRQAUUUUAFFFFABRRRQAUUUUAFFFFABRRRQAUUUUAFFFFABRRRQAUUUUAFFFFABRRRQAUUUUAFFFFABRRRQAUUUUAFFFFABRRRQAUUUUAFFFFABRRRQAUUUUAFFFFABRRRQAUUUUAFFFFABRRRQAUUUUAFFFFABRRRQAUUUUAFFFFABRRRQAUUUUAFFFFABRRRQAUUUUAFFFFABRRRQAUUUUAFFFFABRRRQAUUUUAFFFFABRRRQAUUUUAFFFFABRRRQAUUUUAFFFFABRRRQAUUUUAFFFFABRRRQAUUUUAFFFFABRRRQAUUUUAFFFFABRRRQAUUUUAFFFFABRRRQAUUUUAFFFFABRRRQAUUUUAFFFFABRRRQAUUUUAFFFFABRRRQAUUUUAFFFFABRRRQAUUUUAFFFFABRRRQAUUUUAFFFFABRRRQAUUUUAFFFFABRRRQAUUUUAFFFFABRRRQAUUUUAFFFFABRRRQAUUUUAFFFFABRRRQAUUUUAFFFFABRRRQAUUUUAFFFFABRRRQAUUUUAFFFFABRRRQAUUUUAFFFFABRRRQAUUUUAFFFFABRRRQAUUUUAFFFFABRRRQAUUUUAFFFFABRRRQAUUUUAFFFFABRRRQAUUUUAFFFFABRRRQAUUUUAFFFFABRRRQAUUUUAFFFFABRRRQAUUUUAFFFFABRRRQAUUUUAFFFFABRRRQAUUUUAFFFFABRRRQAUUUUAFFFFABRRRQAUUUUAFFFFABRRRQAUUUUAFFFFABRRRQAUUUUAFFFFABRRRQAUUUUAFFFFABRRRQAUUUUAFFFFABRRRQAUUUUAFFFFABRRRQAUUUUAFFFFABRRRQAUUUUAFFFFABRRRQAUUUUAFFFFABRRRQAUUUUAFFFFABRRRQAUUUUAFFFFABRRRQAUUUUAFFFFABRRRQAUUUUAFFFFABRRRQAUUUUAFFFFABRRRQAUUUUAFFFFABRRRQAUUUUAFFFFABRRRQAUUUUAFFFFABRRRQAUUUUAFFFFABRRRQAUUUUAFFFFABRRRQAUUUUAFFFFABRRRQAUUUUAFFFFABRRRQAUUUUAFFFFABRRRQAUUUUAFFFFABRRRQAUUUUAFFFFABRRRQAUUUUAFFFFABRRRQAUUUUAFFFFABRRRQAUUUUAFFFFABRRRQAUUUUAFFFFABRRRQAUUUUAFFFFABRRRQAUUUUAFFFFABRRRQAUUUUAFFFFABRRRQAUUUUAFFFFABRRRQAUUUUAFFFFABRRRQAUUUUAFFFFABRRRQAUUUUAFFFFABRRRQAUUUUAFFFFABRRRQAUUUUAFFFFABRRRQAUUUUAFFFFABRRRQAUUUUAFFFFABRRRQAUUUUAFFFFABRRRQAUUUUAFFFFABRRRQAUUUUAFFFFABRRRQAUUUUAFFFFABRRRQAUUUUAFFFFABRRRQAUUUUAFFFFABRRRQAUUUUAFFFFABRRRQAUUUUAFFFFABRRRQAUUUUAFFFFABRRRQAUUUUAFFFFABRRRQAUUUUAFFFFABRRRQAUUUUAFFFFABRRRQAUUUUAFFFFABRRRQAUUUUAFFFFABRRRQAUUUUAFFFFABRRRQAUUUUAFFFFABRRRQAUUUUAFFFFABRRRQAUUUUAFFFFABRRRQAUUUUAFFFFABRRRQAUUUUAFFFFABRRRQAUUUUAFFFFABRRRQAUUUUAFFFFABRRRQAUUUUAFFFFABRRRQAUUUUAFFFFABRRRQAUUUUAFFFFABRRRQAUUUUAFFFFABRRRQAUUUUAFFFFABRRRQAUUUUAFFFFABRRRQAUUUUAFFFFABRRRQAUUUUAFFFFABRRRQAUUUUAFFFFABRRRQAUUUUAFFFFABRRRQAUUUUAFFFFABRRRQAUUUUAFFFFABRRRQAUUUUAFFFFABRRRQAUUUUAFFFFABRRRQAUUUUAFFFFABRRRQAUUUUAFFFFABRRRQAUUUUAFFFFABRRRQAUUUUAFFFFABRRRQAUUUUAFFFFABRRRQAUUUUAFFFFABRRRQAUUUUAFFFFABRRRQAUUUUAFFFFABRRRQAUUUUAFFFFABRRRQAUUUUAFFFFABRRRQAUUUUAFFFFABRRRQAUUUUAFFFFABRRRQAUUUUAFFFFABRRRQAUUUUAFFFFABRRRQAUUUUAFFFFABRRRQAUUUUAFFFFABRRRQAUUUUAFFFFABRRRQAUUUUAFFFFABRRRQAUUUUAFFFFABRRRQAUUUUAFFFFABRRRQAUUUUAFFFFABRRRQAUUUUAFFFFABRRRQAUUUUAFFFFABRRRQAUUUUAFFFFABRRRQAUUUUAFFFFABRRRQAUUUUAFFFFABRRRQAUUUUAFFFFABRRRQAUUUUAFFFFABRRRQAUUUUAFFFFABRRRQAUUUUAFFFFABRRRQAUUUUAFFFFABRRRQAUUUUAFFFFABRRRQAUUUUAFFFFABRRRQAUUUUAFFFFABRRRQAUUUUAFFFFABRRRQAUUUUAFFFFABRRRQAUUUUAFFFFABRRRQB//Z;fontFamily=Times New Roman;sketch=0;fontStyle=1" vertex="1" parent="1">
          <mxGeometry x="949.65" y="220" width="32.57" height="31" as="geometry" />
        </mxCell>
        <mxCell id="0gGLNNwoWwdXebhI30fq-164" value="" style="shape=image;verticalLabelPosition=bottom;labelBackgroundColor=#ffffff;verticalAlign=top;aspect=fixed;imageAspect=0;image=data:image/jpeg,/9j/4AAQSkZJRgABAQAAAQABAAD/2wBDAAIBAQEBAQIBAQECAgICAgQDAgICAgUEBAMEBgUGBgYFBgYGBwkIBgcJBwYGCAsICQoKCgoKBggLDAsKDAkKCgr/2wBDAQICAgICAgUDAwUKBwYHCgoKCgoKCgoKCgoKCgoKCgoKCgoKCgoKCgoKCgoKCgoKCgoKCgoKCgoKCgoKCgoKCgr/wAARCAITAi4DASIAAhEBAxEB/8QAHwAAAQUBAQEBAQEAAAAAAAAAAAECAwQFBgcICQoL/8QAtRAAAgEDAwIEAwUFBAQAAAF9AQIDAAQRBRIhMUEGE1FhByJxFDKBkaEII0KxwRVS0fAkM2JyggkKFhcYGRolJicoKSo0NTY3ODk6Q0RFRkdISUpTVFVWV1hZWmNkZWZnaGlqc3R1dnd4eXqDhIWGh4iJipKTlJWWl5iZmqKjpKWmp6ipqrKztLW2t7i5usLDxMXGx8jJytLT1NXW19jZ2uHi4+Tl5ufo6erx8vP09fb3+Pn6/8QAHwEAAwEBAQEBAQEBAQAAAAAAAAECAwQFBgcICQoL/8QAtREAAgECBAQDBAcFBAQAAQJ3AAECAxEEBSExBhJBUQdhcRMiMoEIFEKRobHBCSMzUvAVYnLRChYkNOEl8RcYGRomJygpKjU2Nzg5OkNERUZHSElKU1RVVldYWVpjZGVmZ2hpanN0dXZ3eHl6goOEhYaHiImKkpOUlZaXmJmaoqOkpaanqKmqsrO0tba3uLm6wsPExcbHyMnK0tPU1dbX2Nna4uPk5ebn6Onq8vP09fb3+Pn6/9oADAMBAAIRAxEAPwD+f+iiigAooooAKKKKACiiigAooooAKKKKACiiigAooooAKKKKACiiigAooooAKKKKACiiigAooooAKKKKACiiigAooooAKKKKACiiigAooooAKKKKACiiigAooooAKKKKACiiigAooooAKKKKACiiigAooooAKKKKACiiigAooooAKKKKACiiigAooooAKKKKACiiigAooooAKKKKACiiigAooooAKKKKACiiigAooooAKKKKACiiigAooooAKKKKACiiigAooooAKKKKACiiigAooooAKKKKACiug+Fvwn+Kfxx8d2Pwt+Cnw08QeMPE+qeb/Znhzwto0+oX935cTzSeVbwI8kmyKOSRtqnaqMxwATX0f8FP+CFv/BYH4/eKrjwd4F/4J2/FCwu7bT3vZJvGvh1/DVqY1eNCqXWrm2gklzIpEKuZCodgpVHKgHyhRX3f8W/+DaP/AILR/Bj4NN8ZvFH7GmoajFBqEtvf+GvCWuWOuazbRg2qRXIs9Pmme4ile5dVFv5skYtLiSZIYhHJJ8IUAFFFFABRRRQAUUUUAFFFFABRRRQAUUUUAFFFFABRRRQAUUUUAFFFFABRRRQAUUUUAFFFFABRRRQAUUUUAFFFFABRRRQAUUUUAFFFFABRRRQAUUUUAFFFFABRRRQAUUUUAFFFFABRRRQAUUUUAFFFFABRRRQAUUV7/wD8Eq/2XP8AhtH/AIKO/Bf9mi98Df8ACS6R4l+IFh/wleif2n9j+06FbyfatV/fCWJk26fBdP8Au3Ep24jzIUBAPuD4T/8ABnR/wVN+K/ws8NfFL/hY/wAH/DX/AAkvh+y1X/hHPFmsa5Z6rpX2iBJvsl7b/wBkt5FzFv8ALlj3HY6suTjNev8AwL/4Mhv2p/EH9qf8NL/twfD/AMJeT5H9if8ACC+Hb7xF9rz5nnef9qOm/Z9uItu3zt+98+XsG/8Ao+ooA/BHwn/wY1+FbPxVpl546/4KV6hqOiRahC+s6fpPwlSyurq1DgyxQ3EmqTpBKyblWVoZVRiGMbgbT7h/xBU/8Esv+i+ftAf+FTof/wAp6/X6igD88PCf/Bqx/wAEOfDnhXTPD2sfsjahr93YafDb3Wu6t8SNfS61GRECtczLa3sMCyyEF2EUUcYZjsRFwo+n/Cf/AATJ/wCCbfgLxVpnjrwL/wAE+fgfout6LqEN/o2s6T8J9HtrqwuoXEkVxDLHbB4pUdVdXUhlZQQQRXuFFABRRRQAV8If8FU/+Deb9gz/AIKn6jqXxX8Y6RqHgX4sXWnxwQ/Erwm4El00FvNFarqFm58i+iQyRFmAiunjtYYVuo40Cj7vooA/kC/4KXf8G3X/AAUc/wCCcn9reP8A/hAv+FofDLT/AD7j/hYHgC2kuPsNnH9qk83UrHBuLDZbW3nzS4ls4fNRPtbscV8AV/f5XwB/wUu/4Nuv+Ccf/BRv+1vH/wDwgX/Cr/ibqHn3H/CwPAFtHb/bryT7VJ5upWOBb3++5ufPmlxFeTeUifa0UYoA/kCoroPiz8LfHfwO+Kfib4KfFLQv7L8T+D/EF7oniPTPtUU/2S/tJ3guIfMhZ45NksbruRmVsZUkEGufoAKKKKACiiigAooooAKKKKACiiigAooooAKKKKACiiigAooooAKKKKACiiigAooooAKKKKACiiigAooooAKKKKACiiigAooooAKKKKACiiigAooooAKKKKACiiigAooooAKKKKACiiigAooooAK/Z7/gyo/Zo/4WB+3F8Tv2o9V0nw/e6f8ADb4fxaVZf2jB5l/Zarq9z+5u7PMZWPFpp+pQSSB0cLdhAHSWTb+MNf1m/wDBpn+y/wCKv2cP+CP2geJ/GL6hDd/FbxhqfjWHStT0V7KSwtZUg0+1A3sTPFPb6dFexzhUV471NoZQJHAP0vooooAKKKKACiiigAooooAKKKKACiiigD8Ef+Dxz/glZqOvadpX/BVv4M+HNPSLRdPttC+Myxz29tJJG1xFb6VqYjESvdS75/sUztK8gjXT1SIRQzOn8+Nf3ufFn4W+BPjj8LPE3wU+KWhf2p4Y8YeH73RPEemfapYPtdhdwPBcQ+ZCySR74pHXcjKy5ypBANfxZf8ABWf/AIJ++Kv+CZf7efjr9lLWINQl0TTtQ+3+BNZ1BXZtW0C5JksrjzWggSeVUzbzvEgiF1bXMaEiOgD5wooooAKKKKACiiigAooooAKKKKACiiigAooooAKKKKACiiigAooooAKKKKACiiigAooooAKKKKACiiigAooooAKKKKACiiigAooooAKKKKACiiigAooooAKKKKACiiigAooooAKKKKACiiigDoPhP8LfHfxx+Kfhr4KfC3Qv7U8T+MPEFlonhzTPtUUH2u/u50gt4fMmZI498siLudlVc5YgAmv7rP2evgp4V/Zr+AXgf9nPwLqGoXeieAPB+meG9GutWlSS6mtbG1jtYnmaNERpSkSliqIpYkhVHA/hj/Z6+Nfir9mv4++B/wBozwLp+n3et+APGGmeJNGtdWieS1murG6juokmWN0doi8ShgroxUkBlPI/tN/4Ji/8FC/hZ/wVB/Y28L/tc/C3TP7I/tfzrPxH4Wm1WC7ufD+q277LiymeE/7k0TOsTyW9xbzNFF5oQAHv9FFFABRRRQAUUUUAFFFFABRRRQAUUUUAFfmh/wAHSf8AwTP079u//gnpffHDw9ren6V4y+AGn6t4v0681M3BjvdGSzMuq6cBE+xJZUtbeaOR4pD5lkkWYknllX9L68A/4Kxf8osv2lv+zf8Axl/6Y7ygD+IKiiigAooooAKKKKACiiigAooooAKKKKACiiigAooooAKKKKACiiigAooooAKKKKACiiigAooooAKKKKACiiigAooooAKKKKACiiigAooooAKKKKACiiigAooooAKKKKACiiigAooooAKKKKACvq//AII7/wDBVP4y/wDBKH9rjR/i/wCDvEeoP4E1rULOy+K/hC3gFzHrmjLL+8aOB5Yk+3QI8slrMZEKSMUZjDNPHJ8oUUAf3mfAH4/fBr9qX4NeHv2g/wBnz4haf4q8G+KtPF7oWu6Y5MdxHkqylWAeKVHV45IZFWSKSN45FR0ZR2Ffyhf8Guv/AAVc8d/sOftxaJ+yt4suvEGtfDL43eILLw+fDdjdxGHSPEl5c29tZawkUo+ltOI3iLwyLIwna0giP9XtABRRRQAUUUUAFFFFABRRRQAUUUUAFeAf8FYv+UWX7S3/AGb/AOMv/THeV7/Xh/8AwU28J+KvHv8AwTb/AGg/AvgXwzqGta3rXwP8WWGjaNpNk9zdX91No91HFbwxRgvLK7sqKigszMAASaAP4c6KKKACiiigAooooAKKKKACiiigAooooAKKKKACiiigAooooAKKKKACiiigAooooAKKKKACiiigAooooAKKKKACiiigAooooAKKKKACiiigAooooAKKKKACiiigAooooAKKKKACiiigAooooAKKKKACv7nP+Cfn7S//AA2R+w78Jv2o7nVvD93qHjn4f6Xquvf8ItP5lha6rJbJ9vtIsySMnkXYngaN3Z42hZHO9Gr+GOv6bv8AgzB/a81H4vfsGeN/2R/Ed7qFzd/BzxglxozSWFvHa22jayJriK2jkjIkmlF9barM5lUlVuYVV2UbIgD9jqKKKACiiigAooooAKKKKACiivL/ANr39tD9mD9gv4NT/H/9rj4v6f4L8KQ6hBYLqF7BNPJc3UxIjt4Le3SSe5lIV3KRI7LHFLIwCRuygHoHizxZ4V8BeFdT8deOvE2n6Lomi6fNf6zrOrXqW1rYWsKGSW4mlkISKJEVnZ2IVVUkkAV/Mj/wXR/4Og/in+2t/wAJn+x1+w7cf8Ix8EtQ26bqXjD7NPb674wtl81blMsw+xabc7kH2fyxcSxRYmdEuZrNfnD/AILj/wDBcf4y/wDBXr4yppelxah4V+C/hXUHfwH4DlmAknkw0f8AaupeWxSW+dGYKgLR2scjRRFi889x8IUAFFFFABRRRQAUUUUAFFFFABRRRQAUUUUAFFFFABRRRQAUUUUAFFFFABRRRQAUUUUAFFFFABRRRQAUUUUAFFFFABRRRQAUUUUAFFFFABRRRQAUUUUAFFFFABRRRQAUUUUAFFFFABRRRQAUUUUAFFFFABX3/wD8G3X/AAUu/wCHcn/BR3Qf+E/8Wf2f8Mvih5XhX4gfbL/yrOy82QfYdVl8y5ht4vstyV8y5m3+TZ3F9sUtIK+AKKAP7/KK+IP+Ddz9unWP2+/+CVHw++I/jzxn/bnjbwl5/g/x5eut40z39gVEEtxNds7XVzPp8lhdTTq7q81zJ9xg0afb9ABRRRQAUUUUAFFFFABX8aX/AAXa/wCCofir/gqN+3n4m+Iej+NtQvfhb4V1CfR/hHo0k7i1t9MjKRvqEcTwQPHLfvCLt/Nj89Fkht3d1totv7P/APB3d/wVT079nD9l+P8A4Jz/AAo8R6ha/EL4tafBe+KZrSC4hWw8I+dMkirdRyxjzby4tjamHEyParepMsfmwl/5kaACiiigAooooAKKKKACiiigAooooAKKKKACiiigAooooAKKKKACiiigAooooAKKKKACiiigAooooAKKKKACiiigAooooAKKKKACiiigAooooAKKKKACiiigAooooAKKKKACiiigAooooAKKKKACiiigAooooAKKKKAPYP2Ov2/P2yf+Cf8A47m+Iv7Hn7QniDwNqF3t/tO306ZJrDU9kU8Uf2yxnWS1vPLW5mMfnxP5TSF02uAw/oe/4Jo/8He/7G37TP8AZPwt/bn8Pf8AClvG1z5Fr/wkfmvdeFdSuW+yw7/tGPO0vzJpbiTZcq9vbwQbpb5mOK/mBooA/v8AKK/ji/4JR/8ABfP9uL/glNrEXhnwT4g/4Tv4ZS+TFe/C/wAYancyWFnCLxrmaTS2D/8AEruZPNuQZER4Xa4Mk0E7Rx7P3e/Zo/4O4v8AgkL8YPhZaeLPjp8SPEHwk8Tjy4tU8Ja/4S1LVNk3kRPLJbXWmW08c9sJXkiSSUQTP5LM0EQZcgH6f0V8Af8AEUd/wQo/6Pm/8xl4n/8AlZR/xFHf8EKP+j5v/MZeJ/8A5WUAff8AXn/7VX7S/wALP2N/2cfGn7Ufxr1b7J4Y8DeH7jVdT2TwRzXXlr+7tLfz5I43uZ5THBDGzr5k00aA5cV8gf8AEUd/wQo/6Pm/8xl4n/8AlZX5If8ABzz/AMF5/hn+3xp3g39lD9gn44ahrHwnTTzrHxC1Cys73TY9f1P7Ri10+e3vLSCcxWggFyMO8Esl5ExQSWcbAA/NH9vz9sXx3/wUA/bJ+IX7YfxFs/smoeOfED3dvpnmRSf2ZYRosFjY+ZFDCs32e0it4POMatL5PmON7sT4/RRQAUUUUAFFFFABRRRQAUUUUAFFFFABRRRQAUUUUAFFFFABRRRQAUUUUAFFFFABRRRQAUUUUAFFFFABRRRQAUUUUAFFFFABRRRQAUUUUAFFFFABRRRQAUUUUAFFFFABRRRQAUUUUAFFFFABRRRQAUUUUAFFFFABRRRQAUUUUAFFFFABRRRQAUUUUAFFFFABRRRQAUUUUAFFFFABRRRQAUUUUAFFFFABRRRQAUUUUAFFFFABRRRQAUUUUAFFFFABRRRQAUUUUAFFFFABRRRQAUUUUAFFFFABRRRQAUUUUAFFFFABRRRQAUUUUAFFFFABRRRQAUUUUAFFFFABRRRQAUUUUAFFFFABRRRQAUUUUAFFFFABRRRQAUUUUAFFFFABRRRQAUUUUAFFFFABRRRQAUUUUAFFFFABRRRQAUUUUAFFFFABRRRQAUUUUAFFFFABRRRQAUUUUAFFFFABRRRQAUUUUAFFFFABRRRQAUUUUAFFFFABRRRQAUUUUAFFFFABRRRQAUUUUAFFFFABRRRQAUUUUAFFFFABRRRQAUUUUAFFFFABRRRQAUUUUAFFFFABRRRQAUUUUAFFFFABRRRQAUUUUAFFFFABRRRQAUUUUAFFFFABRRRQAUUUUAFFFFABRRRQAUUUUAFFFFABRRRQAUUUUAFFFFABRRRQAUUUUAFFFFABRRRQAUUUUAFFFFABRRRQAUUUUAFFFFABRRRQAUUUUAFFFFABRRRQAUUUUAFFFFABRRRQAUUUUAFFFFABRRRQAUUUUAFFFFABRRRQAUUUUAFFFFABRRRQAUUUUAFFFFABRRRQAUUUUAFFFFABRRRQAUUUUAFFFFABRRRQAUUUUAFFFFABRRRQAUUUUAFFFFABRRRQAUUUUAFFFFABRRRQAUUUUAFFFFABRRRQAUUUUAFFFFABRRRQAUUUUAFFFFABRRRQAUUUUAFFFFABRRRQAUUUUAFFFFABRRRQAUUUUAFFFFABRRRQAUUUUAFFFFABRRRQAUUUUAFFFFABRRRQAUUUUAFFFFABRRRQAUUUUAFFFFABRRRQAUUUUAFFFFABRRRQAUUUUAFFFFABRRRQAUUUUAFFFFABRRRQAUUUUAFFFFABRRRQAUUUUAFFFFABRRRQAUUUUAFFFFABRRRQAUUUUAFFFFABRRRQAUUUUAFFFFABRRRQAUUUUAFFFFABRRRQAUUUUAFFFFABRRRQAUUUUAFFFFABRRRQAUUUUAFFFFABRRRQAUUUUAFFFFABRRRQAUUUUAFFFFABRRRQAUUUUAFFFFABRRRQAUUUUAFFFFABRRRQAUUUUAFFFFABRRRQAUUUUAFFFFABRRRQAUUUUAFFFFABRRRQAUUUUAFFFFABRRRQAUUUUAFFFFABRRRQAUUUUAFFFFABRRRQAUUUUAFFFFABRRRQAUUUUAFFFFABRRRQAUUUUAFFFFABRRRQAUUUUAFFFFABRRRQAUUUUAFFFFABRRRQAUUUUAFFFFABRRRQAUUUUAFFFFABRRRQAUUUUAFFFFABRRRQAUUUUAFFFFABRRRQAUUUUAFFFFABRRRQAUUUUAFFFFABRRRQAUUUUAFFFFABRRRQAUUUUAFFFFABRRRQAUUUUAFFFFABRRRQAUUUUAFFFFABRRRQAUUUUAFFFFABRRRQAUUUUAFFFFABRRRQAUUUUAFFFFABRRRQAUUUUAFFFFABRRRQAUUUUAFFFFABRRRQAUUUUAFFFFABRRRQAUUUUAFFFFABRRRQAUUUUAFFFFABRRRQAUUUUAFFFFABRRRQAUUUUAFFFFABRRRQAUUUUAFFFFABRRRQAUUUUAFFFFABRRRQAUUUUAFFFFABRRRQAUUUUAFFFFABRRRQAUUUUAFFFFABRRRQAUUUUAFFFFABRRRQAUUUUAFFFFABRRRQAUUUUAFFFFABRRRQAUUUUAFFFFABRRRQAUUUUAFFFFABRRRQAUUUUAFFFFABRRRQAUUUUAFFFFABRRRQAUUUUAFFFFABRRRQAUUUUAFFFFABRRRQAUUUUAFFFFABRRRQAUUUUAFFFFABRRRQAUUUUAFFFFABRRRQAUUUUAFFFFABRRRQAUUUUAFFFFABRRRQAUUUUAFFFFABRRRQAUUUUAFFFFABRRRQAUUUUAFFFFABRRRQAUUUUAFFFFABRRRQAUUUUAFFFFABRRRQAUUUUAFFFFABRRRQAUUUUAFFFFABRRRQAUUUUAFFFFABRRRQAUUUUAFFFFABRRRQAUUUUAFFFFABRRRQAUUUUAFFFFABRRRQAUUUUAFFFFABRRRQAUUUUAFFFFABRRRQAUUUUAFFFFABRRRQAUUUUAFFFFABRRRQAUUUUAFFFFABRRRQAUUUUAFFFFABRRRQAUUUUAFFFFABRRRQAUUUUAFFFFABRRRQAUUUUAFFFFABRRRQAUUUUAFFFFABRRRQAUUUUAFFFFABRRRQAUUUUAFFFFABRRRQAUUUUAFFFFABRRRQAUUUUAFFFFABRRRQAUUUUAFFFFABRRRQAUUUUAFFFFABRRRQAUUUUAFFFFABRRRQAUUUUAFFFFABRRRQAUUUUAFFFFABRRRQAUUUUAFFFFABRRRQAUUUUAFFFFABRRRQAUUUUAFFFFABRRRQAUUUUAFFFFABRRRQAUUUUAFFFFABRRRQAUUUUAFFFFABRRRQAUUUUAFFFFABRRRQAUUUUAFFFFABRRRQAUUUUAFFFFABRRRQAUUUUAFFFFABRRRQAUUUUAFFFFABRRRQAUUUUAFFFFABRRRQAUUUUAFFFFABRRRQAUUUUAFFFFABRRRQAUUUUAFFFFABRRRQAUUUUAFFFFABRRRQAUUUUAFFFFABRRRQAUUUUAFFFFABRRRQAUUUUAFFFFABRRRQAUUUUAFFFFABRRRQAUUUUAFFFFABRRRQAUUUUAFFFFABRRRQAUUUUAFFFFABRRRQAUUUUAFFFFABRRRQAUUUUAFFFFABRRRQAUUUUAFFFFABRRRQAUUUUAFFFFABRRRQAUUUUAFFFFABRRRQAUUUUAFFFFABRRRQAUUUUAFFFFABRRRQAUUUUAFFFFABRRRQAUUUUAFFFFABRRRQAUUUUAFFFFABRRRQAUUUUAFFFFABRRRQAUUUUAFFFFABRRRQAUUUUAFFFFABRRRQAUUUUAFFFFABRRRQAUUUUAFFFFABRRRQAUUUUAFFFFABRRRQAUUUUAFFFFABRRRQAUUUUAFFFFABRRRQAUUUUAFFFFABRRRQAUUUUAFFFFABRRRQAUUUUAFFFFABRRRQAUUUUAFFFFABRRRQAUUUUAFFFFABRRRQAUUUUAFFFFABRRRQAUUUUAFFFFABRRRQAUUUUAFFFFABRRRQAUUUUAFFFFABRRRQAUUUUAFFFFABRRRQAUUUUAFFFFABRRRQAUUUUAFFFFABRRRQAUUUUAFFFFABRRRQAUUUUAFFFFABRRRQAUUUUAFFFFABRRRQAUUUUAFFFFABRRRQAUUUUAFFFFABRRRQAUUUUAFFFFABRRRQAUUUUAFFFFABRRRQAUUUUAFFFFABRRRQAUUUUAFFFFABRRRQAUUUUAFFFFABRRRQAUUUUAFFFFABRRRQAUUUUAFFFFABRRRQAUUUUAFFFFABRRRQAUUUUAFFFFABRRRQAUUUUAFFFFABRRRQAUUUUAFFFFABRRRQAUUUUAFFFFABRRRQAUUUUAFFFFABRRRQAUUUUAFFFFABRRRQAUUUUAFFFFABRRRQAUUUUAFFFFABRRRQAUUUUAFFFFABRRRQAUUUUAFFFFABRRRQAUUUUAFFFFABRRRQAUUUUAFFFFABRRRQAUUUUAFFFFABRRRQAUUUUAFFFFABRRRQAUUUUAFFFFABRRRQAUUUUAFFFFABRRRQAUUUUAFFFFABRRRQAUUUUAFFFFABRRRQAUUUUAFFFFABRRRQAUUUUAFFFFABRRRQAUUUUAFFFFABRRRQAUUUUAFFFFABRRRQAUUUUAFFFFABRRRQAUUUUAFFFFABRRRQAUUUUAFFFFABRRRQAUUUUAFFFFABRRRQAUUUUAFFFFABRRRQAUUUUAFFFFABRRRQAUUUUAFFFFABRRRQAUUUUAFFFFABRRRQAUUUUAFFFFABRRRQAUUUUAFFFFABRRRQAUUUUAFFFFABRRRQAUUUUAFFFFABRRRQAUUUUAFFFFABRRRQAUUUUAFFFFABRRRQAUUUUAFFFFABRRRQAUUUUAFFFFABRRRQAUUUUAFFFFABRRRQAUUUUAFFFFABRRRQAUUUUAFFFFABRRRQAUUUUAFFFFABRRRQAUUUUAFFFFABRRRQAUUUUAFFFFABRRRQAUUUUAFFFFABRRRQAUUUUAFFFFABRRRQAUUUUAFFFFABRRRQAUUUUAFFFFABRRRQAUUUUAFFFFABRRRQAUUUUAFFFFABRRRQAUUUUAFFFFABRRRQAUUUUAFFFFABRRRQAUUUUAFFFFABRRRQAUUUUAFFFFABRRRQAUUUUAFFFFABRRRQAUUUUAFFFFABRRRQAUUUUAFFFFABRRRQAUUUUAFFFFABRRRQAUUUUAFFFFABRRRQAUUUUAFFFFABRRRQAUUUUAFFFFABRRRQAUUUUAFFFFABRRRQAUUUUAFFFFABRRRQAUUUUAFFFFABRRRQAUUUUAFFFFABRRRQAUUUUAFFFFABRRRQAUUUUAFFFFABRRRQAUUUUAFFFFABRRRQB//Z;fontFamily=Times New Roman;sketch=0;fontStyle=1" vertex="1" parent="1">
          <mxGeometry x="997.22" y="145" width="42.03" height="40" as="geometry" />
        </mxCell>
        <mxCell id="0gGLNNwoWwdXebhI30fq-165" value="" style="endArrow=classic;html=1;rounded=0;" edge="1" parent="1">
          <mxGeometry width="50" height="50" relative="1" as="geometry">
            <mxPoint x="865.22" y="306.5" as="sourcePoint" />
            <mxPoint x="895" y="307" as="targetPoint" />
          </mxGeometry>
        </mxCell>
        <mxCell id="0gGLNNwoWwdXebhI30fq-166" value="" style="endArrow=classic;html=1;rounded=0;" edge="1" parent="1">
          <mxGeometry width="50" height="50" relative="1" as="geometry">
            <mxPoint x="917.22" y="234.5" as="sourcePoint" />
            <mxPoint x="947" y="235" as="targetPoint" />
          </mxGeometry>
        </mxCell>
        <mxCell id="0gGLNNwoWwdXebhI30fq-167" value="" style="endArrow=classic;html=1;rounded=0;" edge="1" parent="1">
          <mxGeometry width="50" height="50" relative="1" as="geometry">
            <mxPoint x="965.22" y="164.5" as="sourcePoint" />
            <mxPoint x="995" y="165" as="targetPoint" />
          </mxGeometry>
        </mxCell>
        <mxCell id="0gGLNNwoWwdXebhI30fq-168" value="" style="endArrow=classic;html=1;rounded=0;" edge="1" parent="1">
          <mxGeometry width="50" height="50" relative="1" as="geometry">
            <mxPoint x="1019" y="97" as="sourcePoint" />
            <mxPoint x="1057" y="97" as="targetPoint" />
          </mxGeometry>
        </mxCell>
        <mxCell id="0gGLNNwoWwdXebhI30fq-169" value="" style="edgeStyle=segmentEdgeStyle;endArrow=classic;html=1;curved=0;rounded=0;endSize=8;startSize=8;entryX=0.5;entryY=1;entryDx=0;entryDy=0;dashed=1;" edge="1" parent="1" target="0gGLNNwoWwdXebhI30fq-99">
          <mxGeometry width="50" height="50" relative="1" as="geometry">
            <mxPoint x="1075.2200000000003" y="308.5" as="sourcePoint" />
            <mxPoint x="968.29" y="257" as="targetPoint" />
            <Array as="points">
              <mxPoint x="1085" y="309" />
            </Array>
          </mxGeometry>
        </mxCell>
        <mxCell id="0gGLNNwoWwdXebhI30fq-171" value="" style="endArrow=none;html=1;rounded=0;dashed=1;" edge="1" parent="1">
          <mxGeometry width="50" height="50" relative="1" as="geometry">
            <mxPoint x="978.22" y="235" as="sourcePoint" />
            <mxPoint x="1085" y="235" as="targetPoint" />
          </mxGeometry>
        </mxCell>
        <mxCell id="0gGLNNwoWwdXebhI30fq-172" value="" style="endArrow=none;html=1;rounded=0;dashed=1;" edge="1" parent="1">
          <mxGeometry width="50" height="50" relative="1" as="geometry">
            <mxPoint x="1035.22" y="166" as="sourcePoint" />
            <mxPoint x="1085" y="166" as="targetPoint" />
          </mxGeometry>
        </mxCell>
        <mxCell id="0gGLNNwoWwdXebhI30fq-182" value="" style="triangle;whiteSpace=wrap;html=1;" vertex="1" parent="1">
          <mxGeometry x="1067.22" y="225.5" width="10" height="20" as="geometry" />
        </mxCell>
        <mxCell id="0gGLNNwoWwdXebhI30fq-183" value="" style="triangle;whiteSpace=wrap;html=1;" vertex="1" parent="1">
          <mxGeometry x="1067.22" y="156.5" width="10" height="20" as="geometry" />
        </mxCell>
        <mxCell id="0gGLNNwoWwdXebhI30fq-185" value="" style="endArrow=none;html=1;rounded=0;dashed=1;" edge="1" parent="1">
          <mxGeometry width="50" height="50" relative="1" as="geometry">
            <mxPoint x="920" y="310" as="sourcePoint" />
            <mxPoint x="1077.22" y="308.5" as="targetPoint" />
          </mxGeometry>
        </mxCell>
        <mxCell id="0gGLNNwoWwdXebhI30fq-186" value="" style="triangle;whiteSpace=wrap;html=1;" vertex="1" parent="1">
          <mxGeometry x="1065.22" y="296.5" width="10" height="20" as="geometry" />
        </mxCell>
        <mxCell id="0gGLNNwoWwdXebhI30fq-187" value="" style="triangle;whiteSpace=wrap;html=1;" vertex="1" parent="1">
          <mxGeometry x="1032.22" y="86.5" width="10" height="20" as="geometry" />
        </mxCell>
        <mxCell id="0gGLNNwoWwdXebhI30fq-188" value="&lt;font style=&quot;font-size: 8px;&quot;&gt;Up X16&lt;/font&gt;" style="text;strokeColor=none;align=center;fillColor=none;html=1;verticalAlign=middle;whiteSpace=wrap;rounded=0;" vertex="1" parent="1">
          <mxGeometry x="1044.22" y="316.5" width="50" height="20" as="geometry" />
        </mxCell>
        <mxCell id="0gGLNNwoWwdXebhI30fq-189" value="&lt;font style=&quot;font-size: 8px;&quot;&gt;Up X8&lt;/font&gt;" style="text;strokeColor=none;align=center;fillColor=none;html=1;verticalAlign=middle;whiteSpace=wrap;rounded=0;" vertex="1" parent="1">
          <mxGeometry x="1039.25" y="245.5" width="50" height="20" as="geometry" />
        </mxCell>
        <mxCell id="0gGLNNwoWwdXebhI30fq-190" value="&lt;font style=&quot;font-size: 8px;&quot;&gt;Up X4&lt;/font&gt;" style="text;strokeColor=none;align=center;fillColor=none;html=1;verticalAlign=middle;whiteSpace=wrap;rounded=0;" vertex="1" parent="1">
          <mxGeometry x="1039.25" y="176.5" width="50" height="20" as="geometry" />
        </mxCell>
        <mxCell id="0gGLNNwoWwdXebhI30fq-191" value="&lt;font style=&quot;font-size: 8px;&quot;&gt;Up X2&lt;/font&gt;" style="text;strokeColor=none;align=center;fillColor=none;html=1;verticalAlign=middle;whiteSpace=wrap;rounded=0;" vertex="1" parent="1">
          <mxGeometry x="1014.22" y="104.5" width="50" height="20" as="geometry" />
        </mxCell>
        <mxCell id="0gGLNNwoWwdXebhI30fq-192" value="&lt;font style=&quot;font-size: 10px;&quot;&gt;Concat&lt;/font&gt;" style="text;strokeColor=none;align=center;fillColor=none;html=1;verticalAlign=middle;whiteSpace=wrap;rounded=0;" vertex="1" parent="1">
          <mxGeometry x="1058.68" y="47" width="50" height="20" as="geometry" />
        </mxCell>
        <mxCell id="0gGLNNwoWwdXebhI30fq-193" value="" style="endArrow=classic;html=1;rounded=0;" edge="1" parent="1">
          <mxGeometry width="50" height="50" relative="1" as="geometry">
            <mxPoint x="1111.22" y="96" as="sourcePoint" />
            <mxPoint x="1141" y="96.5" as="targetPoint" />
          </mxGeometry>
        </mxCell>
        <mxCell id="0gGLNNwoWwdXebhI30fq-194" value="&lt;font style=&quot;font-size: 14px;&quot;&gt;Loss&lt;/font&gt;" style="text;strokeColor=none;align=center;fillColor=none;html=1;verticalAlign=middle;whiteSpace=wrap;rounded=0;" vertex="1" parent="1">
          <mxGeometry x="1139.68" y="85" width="50" height="20" as="geometry" />
        </mxCell>
        <mxCell id="0gGLNNwoWwdXebhI30fq-195" value="Image" style="text;strokeColor=none;align=center;fillColor=none;html=1;verticalAlign=middle;whiteSpace=wrap;rounded=0;" vertex="1" parent="1">
          <mxGeometry x="449.22" y="86.5" width="50" height="20" as="geometry" />
        </mxCell>
        <mxCell id="0gGLNNwoWwdXebhI30fq-196" value="" style="endArrow=classic;html=1;rounded=0;" edge="1" parent="1">
          <mxGeometry width="50" height="50" relative="1" as="geometry">
            <mxPoint x="560.22" y="94.5" as="sourcePoint" />
            <mxPoint x="590" y="95" as="targetPoint" />
          </mxGeometry>
        </mxCell>
      </root>
    </mxGraphModel>
  </diagram>
</mxfile>
